<svg width="285" height="122" viewBox="0 0 285 122" fill="none" xmlns="http://www.w3.org/2000/svg">
<g clip-path="url(#clip0_169_26693)">
<path d="M69.1207 8.33984C69.6621 8.33984 70.1044 9.1195 70.1044 10.0764C70.1044 11.0353 69.6621 11.8149 69.1207 11.8149H53.7373C53.1921 11.8149 52.7441 11.0353 52.7441 10.0764C52.7441 9.1195 53.1921 8.33984 53.7373 8.33984H69.1207Z" fill="#99999A"/>
<path d="M24.2187 80.1961L25.9038 71.2939L20.9457 72.6283L16.8072 75.7508L12.6992 80.1961H24.2187ZM98.3489 80.1961L96.66 71.2939L101.622 72.6283L105.759 75.7508L109.861 80.1961H98.3489Z" fill="#992C3D"/>
<path d="M63.1732 28.9787C63.1583 29.4301 62.9685 29.858 62.6439 30.172C62.3193 30.486 61.8854 30.6616 61.4338 30.6616C60.9822 30.6616 60.5482 30.486 60.2237 30.172C59.8991 29.858 59.7093 29.4301 59.6943 28.9787V1.73652C59.6943 1.27519 59.8776 0.832755 60.2038 0.506544C60.53 0.180334 60.9725 -0.00292969 61.4338 -0.00292969C61.8951 -0.00292969 62.3376 0.180334 62.6638 0.506544C62.99 0.832755 63.1732 1.27519 63.1732 1.73652V28.9787Z" fill="#99999A"/>
<path d="M99.4871 111.87C102.15 111.87 104.314 112.644 104.314 113.599C104.314 114.566 102.15 115.339 99.4871 115.339H23.8909C21.2355 115.339 19.0776 114.566 19.0776 113.599C19.0776 112.644 21.2355 111.87 23.8909 111.87H99.4871Z" fill="#BBBDBF"/>
<path d="M104.365 115.347C107.404 115.347 109.861 116.127 109.861 117.086C109.861 118.045 107.404 118.822 104.365 118.822H18.1839C15.1568 118.822 12.6958 118.046 12.6958 117.086C12.6958 116.127 15.1568 115.347 18.1839 115.347H104.365Z" fill="#99999A"/>
<path d="M109.806 118.816C113.197 118.816 115.934 119.598 115.934 120.553C115.934 121.512 113.197 122.293 109.806 122.293H13.75C10.3759 122.293 7.63281 121.512 7.63281 120.553C7.63281 119.598 10.3759 118.816 13.75 118.816H109.806Z" fill="#7C7C7D"/>
<path d="M48.127 81.906V31.5181L61.4192 21.9297L74.7249 31.5181V81.906H48.127Z" fill="#7465FF"/>
<path d="M61.6521 22.4326H61.8999L54.0805 31.8037V50.6089L47.9995 53.8324L48.1272 52.092V30.376L61.6521 22.4326Z" fill="#7465FF"/>
<path d="M22.6006 111.87V73.6881L61.4004 45.6929L100.257 73.6881V111.87H22.6006Z" fill="#7465FF"/>
<path d="M62.2449 46.6308L36.7907 73.2382V111.87H22.6006V72.7807L60.4072 45.6948L62.2449 46.6308Z" fill="#7465FF"/>
<path d="M66.5433 47.0407V39.0592C66.562 38.3759 66.4435 37.6957 66.1949 37.0588C65.9462 36.422 65.5725 35.8415 65.0957 35.3515C64.619 34.8615 64.0488 34.4721 63.419 34.2062C62.7892 33.9402 62.1125 33.8032 61.4289 33.8032C60.7452 33.8032 60.0685 33.9402 59.4387 34.2062C58.8089 34.4721 58.2388 34.8615 57.762 35.3515C57.2852 35.8415 56.9115 36.422 56.6629 37.0588C56.4142 37.6957 56.2957 38.3759 56.3144 39.0592V47.0407H66.5433Z" fill="#633C17"/>
<path d="M62.6851 34.1164C62.2751 34.0076 61.8531 33.95 61.4289 33.9448C60.7569 33.9441 60.0914 34.0759 59.4704 34.3328C58.8494 34.5897 58.2852 34.9665 57.8101 35.4418C57.335 35.9171 56.9583 36.4814 56.7017 37.1025C56.445 37.7236 56.3135 38.3892 56.3145 39.0612V47.0427H58.8078V39.0593C58.8078 36.6689 60.4548 34.6749 62.6851 34.1164Z" fill="#462A15"/>
<path d="M62.4753 44.824C63.0872 45.7256 62.7517 47.0123 61.7452 47.6948L14.0508 79.7884C13.0405 80.4689 11.7176 80.2878 11.1095 79.39C10.4976 78.4788 10.8312 77.194 11.8434 76.5116L59.5378 44.416C60.5538 43.7336 61.8691 43.9185 62.4791 44.824" fill="#DE374B"/>
<path d="M60.1534 44.8238C59.5415 45.7254 59.8751 47.0121 60.8835 47.6946L108.578 79.7901C109.592 80.4706 110.902 80.2895 111.519 79.3917C112.131 78.4805 111.796 77.1957 110.781 76.5133L63.0871 44.4158C62.0654 43.7334 60.75 43.9183 60.1458 44.8238M77.5079 30.0332L62.6105 20.012C62.264 19.7902 61.8539 19.689 61.4439 19.7242C61.0215 19.6833 60.5975 19.7846 60.2392 20.012L45.3494 30.0332C44.5183 30.6031 44.2781 31.7069 44.8195 32.5075C44.9783 32.7425 45.1929 32.9344 45.4441 33.0662C45.6952 33.1979 45.9751 33.2653 46.2587 33.2624C46.6324 33.2594 46.997 33.1468 47.3072 32.9383L61.4287 23.4318L75.5521 32.9383C75.8609 33.1499 76.2269 33.2624 76.5986 33.2624C76.8822 33.2626 77.1617 33.1941 77.413 33.0626C77.6644 32.9311 77.8801 32.7406 78.0416 32.5075C78.5792 31.7069 78.3352 30.6051 77.5079 30.0332Z" fill="#DE374B"/>
<path d="M73.8385 111.973V92.6171C73.84 89.3261 72.5343 86.1694 70.2085 83.8411C67.8827 81.5128 64.7273 80.2037 61.4364 80.2017C59.8058 80.2009 58.191 80.5215 56.6843 81.1452C55.1777 81.7689 53.8087 82.6833 52.6557 83.8364C51.5027 84.9894 50.5882 86.3584 49.9645 87.865C49.3409 89.3717 49.0202 90.9864 49.021 92.6171V111.973H73.8385Z" fill="#633C17"/>
<path d="M65.4224 80.8824C64.1404 80.438 62.7932 80.2106 61.4364 80.2095C59.8058 80.2087 58.191 80.5293 56.6843 81.153C55.1777 81.7767 53.8087 82.6912 52.6557 83.8442C51.5027 84.9972 50.5882 86.3662 49.9645 87.8728C49.3409 89.3795 49.0202 90.9943 49.021 92.6249V111.981H57.0006V92.6249C56.9996 90.0326 57.8117 87.5053 59.3225 85.3988C60.8333 83.2923 62.9667 81.7127 65.4224 80.8824Z" fill="#462A15"/>
<path d="M93.4446 111.87V103.89C93.4446 102.534 92.9056 101.233 91.9463 100.273C90.9869 99.3139 89.6858 98.775 88.3291 98.775C86.9724 98.775 85.6713 99.3139 84.712 100.273C83.7527 101.233 83.2137 102.534 83.2137 103.89V111.87H93.4446ZM39.8656 111.87V103.89C39.8787 103.21 39.7561 102.534 39.5049 101.902C39.2538 101.27 38.879 100.695 38.4027 100.209C37.9264 99.7233 37.3581 99.3376 36.7309 99.0743C36.1037 98.8109 35.4304 98.6753 34.7502 98.6753C34.07 98.6753 33.3966 98.8109 32.7694 99.0743C32.1423 99.3376 31.5739 99.7233 31.0976 100.209C30.6213 100.695 30.2466 101.27 29.9954 101.902C29.7442 102.534 29.6216 103.21 29.6347 103.89V111.87H39.8656Z" fill="#633C17"/>
<path d="M36.4286 98.9705C35.655 98.7097 34.8304 98.6366 34.023 98.7571C33.2156 98.8777 32.4483 99.1884 31.7846 99.6637C31.1209 100.139 30.5796 100.765 30.2055 101.491C29.8314 102.217 29.6351 103.021 29.6328 103.837V111.868H32.9478V103.837C32.9478 101.584 34.4042 99.6662 36.4286 98.9705ZM90.0133 99.0067C89.2397 98.7433 88.4143 98.6681 87.6058 98.7876C86.7973 98.907 86.029 99.2175 85.3645 99.6933C84.7001 100.169 84.1587 100.797 83.7853 101.524C83.4119 102.251 83.2172 103.056 83.2175 103.873V111.897H86.523V103.873C86.5243 102.799 86.8615 101.753 87.4874 100.88C88.1133 100.007 88.9965 99.3523 90.0133 99.0067Z" fill="#462A15"/>
</g>
<path d="M138.869 40.4722C137.274 41.116 135.548 41.438 133.691 41.438C132.419 41.438 131.183 41.2433 129.985 40.854C128.795 40.4647 127.724 39.8957 126.773 39.147C125.83 38.3983 125.078 37.4774 124.516 36.3843C123.962 35.2912 123.685 34.0409 123.685 32.6333C123.685 31.1434 123.947 29.7845 124.471 28.5566C125.003 27.3213 125.755 26.2581 126.729 25.3672C127.702 24.4688 128.855 23.7762 130.188 23.2896C131.52 22.8029 132.995 22.5596 134.612 22.5596C134.912 22.5596 135.29 22.5745 135.747 22.6045C136.211 22.6344 136.69 22.6906 137.184 22.7729C137.678 22.8478 138.124 22.9601 138.521 23.1099V28.9048C138.026 28.7176 137.521 28.624 137.004 28.624C136.233 28.624 135.522 28.8149 134.871 29.1968C134.219 29.5711 133.699 30.0765 133.31 30.7129C132.92 31.3493 132.726 32.0568 132.726 32.8354C132.726 33.6066 132.875 34.2093 133.175 34.6436C133.474 35.0778 133.916 35.2949 134.5 35.2949C134.732 35.2949 135.009 35.2575 135.331 35.1826C135.653 35.1077 136.091 34.9206 136.645 34.6211C137.207 34.3216 137.948 33.835 138.869 33.1611V40.4722ZM152.233 23.0649H159.229V41H152.233V34.374L148.504 34.6997V41H141.519V23.0649H148.504V29.5449L152.233 29.2417V23.0649ZM161.812 23.0649H168.899V33.644C168.899 34.2804 169.052 34.8158 169.359 35.25C169.666 35.6768 170.164 35.8901 170.853 35.8901C171.542 35.8901 172.04 35.6693 172.347 35.2275C172.654 34.7783 172.807 34.2355 172.807 33.5991V23.0649H179.018V33.8462C179.018 36.4217 178.306 38.3309 176.884 39.5737C175.469 40.8166 173.421 41.438 170.741 41.438C167.821 41.438 165.601 40.8166 164.081 39.5737C162.569 38.3309 161.812 36.4217 161.812 33.8462V23.0649ZM181.612 41V23.0649C181.612 23.0649 181.844 23.05 182.308 23.02C182.78 22.9826 183.394 22.9377 184.15 22.8853C184.914 22.8328 185.745 22.7842 186.643 22.7393C187.549 22.6868 188.444 22.6457 189.327 22.6157C190.218 22.5783 191.012 22.5596 191.708 22.5596C193.16 22.5596 194.392 22.7505 195.403 23.1323C196.414 23.5067 197.23 24.0046 197.851 24.626C198.472 25.2474 198.925 25.9325 199.21 26.6812C199.502 27.4299 199.648 28.1785 199.648 28.9272C199.648 30.2375 199.315 31.3643 198.648 32.3076C197.982 33.2435 197.132 34.0184 196.099 34.6323L200.973 41H192.101L188.945 35.8003V41H181.612ZM188.9 32.5322C190.353 31.9932 191.394 31.4092 192.022 30.7803C192.659 30.1439 192.977 29.4626 192.977 28.7363C192.977 28.1299 192.865 27.7144 192.64 27.4897C192.416 27.2651 192.135 27.1528 191.798 27.1528C191.581 27.1528 191.356 27.1903 191.124 27.2651C190.892 27.3325 190.649 27.4186 190.394 27.5234L188.9 28.1411V32.5322ZM217.639 40.4722C216.044 41.116 214.319 41.438 212.462 41.438C211.189 41.438 209.954 41.2433 208.756 40.854C207.565 40.4647 206.495 39.8957 205.544 39.147C204.601 38.3983 203.848 37.4774 203.287 36.3843C202.733 35.2912 202.456 34.0409 202.456 32.6333C202.456 31.1434 202.718 29.7845 203.242 28.5566C203.773 27.3213 204.526 26.2581 205.499 25.3672C206.472 24.4688 207.625 23.7762 208.958 23.2896C210.291 22.8029 211.766 22.5596 213.383 22.5596C213.682 22.5596 214.06 22.5745 214.517 22.6045C214.981 22.6344 215.46 22.6906 215.955 22.7729C216.449 22.8478 216.894 22.9601 217.291 23.1099V28.9048C216.797 28.7176 216.292 28.624 215.775 28.624C215.004 28.624 214.292 28.8149 213.641 29.1968C212.99 29.5711 212.469 30.0765 212.08 30.7129C211.691 31.3493 211.496 32.0568 211.496 32.8354C211.496 33.6066 211.646 34.2093 211.945 34.6436C212.245 35.0778 212.687 35.2949 213.271 35.2949C213.503 35.2949 213.78 35.2575 214.102 35.1826C214.424 35.1077 214.861 34.9206 215.416 34.6211C215.977 34.3216 216.718 33.835 217.639 33.1611V40.4722ZM231.003 23.0649H238V41H231.003V34.374L227.275 34.6997V41H220.29V23.0649H227.275V29.5449L231.003 29.2417V23.0649ZM138.869 79.4722C137.274 80.116 135.548 80.438 133.691 80.438C132.419 80.438 131.183 80.2433 129.985 79.854C128.795 79.4647 127.724 78.8957 126.773 78.147C125.83 77.3983 125.078 76.4774 124.516 75.3843C123.962 74.2912 123.685 73.0409 123.685 71.6333C123.685 70.1434 123.947 68.7845 124.471 67.5566C125.003 66.3213 125.755 65.2581 126.729 64.3672C127.702 63.4688 128.855 62.7762 130.188 62.2896C131.52 61.8029 132.995 61.5596 134.612 61.5596C134.912 61.5596 135.29 61.5745 135.747 61.6045C136.211 61.6344 136.69 61.6906 137.184 61.7729C137.678 61.8478 138.124 61.9601 138.521 62.1099V67.9048C138.026 67.7176 137.521 67.624 137.004 67.624C136.233 67.624 135.522 67.8149 134.871 68.1968C134.219 68.5711 133.699 69.0765 133.31 69.7129C132.92 70.3493 132.726 71.0568 132.726 71.8354C132.726 72.6066 132.875 73.2093 133.175 73.6436C133.474 74.0778 133.916 74.2949 134.5 74.2949C134.732 74.2949 135.009 74.2575 135.331 74.1826C135.653 74.1077 136.091 73.9206 136.645 73.6211C137.207 73.3216 137.948 72.835 138.869 72.1611V79.4722ZM141.519 80V62.0649C141.519 62.0649 141.751 62.05 142.215 62.02C142.687 61.9826 143.301 61.9377 144.057 61.8853C144.821 61.8328 145.652 61.7842 146.55 61.7393C147.456 61.6868 148.351 61.6457 149.234 61.6157C150.125 61.5783 150.919 61.5596 151.615 61.5596C153.068 61.5596 154.299 61.7505 155.31 62.1323C156.321 62.5067 157.137 63.0046 157.758 63.626C158.38 64.2474 158.833 64.9325 159.117 65.6812C159.409 66.4299 159.555 67.1785 159.555 67.9272C159.555 69.2375 159.222 70.3643 158.556 71.3076C157.889 72.2435 157.04 73.0184 156.006 73.6323L160.88 80H152.008L148.853 74.8003V80H141.519ZM148.808 71.5322C150.26 70.9932 151.301 70.4092 151.93 69.7803C152.566 69.1439 152.884 68.4626 152.884 67.7363C152.884 67.1299 152.772 66.7144 152.547 66.4897C152.323 66.2651 152.042 66.1528 151.705 66.1528C151.488 66.1528 151.263 66.1903 151.031 66.2651C150.799 66.3325 150.556 66.4186 150.301 66.5234L148.808 67.1411V71.5322ZM163.059 62.0649H165.631L174.301 70.207L183.207 62.0649H185.688V80H178.31V74.1826L173.728 79.2139L169.27 74.3174V80H163.059V62.0649ZM124.123 113.048C124.168 113.055 124.378 113.123 124.752 113.25C125.134 113.37 125.594 113.508 126.133 113.666C126.672 113.815 127.211 113.95 127.75 114.07C128.297 114.182 128.761 114.238 129.143 114.238C129.472 114.238 129.742 114.19 129.952 114.092C130.161 113.995 130.266 113.815 130.266 113.553C130.266 113.269 130.116 113.01 129.817 112.778C129.517 112.546 129.132 112.307 128.66 112.06C128.196 111.812 127.698 111.532 127.167 111.217C126.642 110.903 126.145 110.525 125.673 110.083C125.209 109.641 124.827 109.113 124.527 108.5C124.228 107.878 124.078 107.137 124.078 106.276C124.078 105.22 124.299 104.329 124.741 103.603C125.182 102.869 125.774 102.282 126.515 101.84C127.264 101.391 128.102 101.065 129.031 100.863C129.967 100.661 130.925 100.56 131.906 100.56C132.737 100.56 133.523 100.604 134.264 100.694C135.005 100.784 135.631 100.882 136.14 100.986C136.656 101.091 136.982 101.162 137.117 101.2V106.354C137.117 106.354 136.959 106.321 136.645 106.253C136.338 106.186 135.949 106.111 135.477 106.029C135.013 105.946 134.53 105.872 134.028 105.804C133.534 105.737 133.1 105.703 132.726 105.703C132.381 105.703 132.123 105.763 131.951 105.883C131.778 106.003 131.692 106.145 131.692 106.31C131.692 106.444 131.767 106.594 131.917 106.759C132.067 106.916 132.246 107.04 132.456 107.129C133.242 107.474 133.983 107.826 134.68 108.185C135.376 108.544 135.99 108.96 136.521 109.432C137.053 109.903 137.469 110.48 137.768 111.161C138.075 111.835 138.229 112.662 138.229 113.643C138.229 114.811 137.933 115.829 137.341 116.698C136.757 117.566 135.911 118.24 134.803 118.719C133.703 119.198 132.374 119.438 130.816 119.438C129.476 119.438 128.372 119.374 127.503 119.247C126.635 119.12 125.954 118.978 125.459 118.82C124.965 118.656 124.617 118.51 124.415 118.382C124.22 118.255 124.123 118.191 124.123 118.191V113.048ZM145.191 112.003L139.722 101.065H147.729L149.515 104.737L151.357 101.065H158.05L152.469 112.003V119H145.191V112.003ZM159.656 113.048C159.701 113.055 159.911 113.123 160.285 113.25C160.667 113.37 161.127 113.508 161.667 113.666C162.206 113.815 162.745 113.95 163.284 114.07C163.83 114.182 164.294 114.238 164.676 114.238C165.006 114.238 165.275 114.19 165.485 114.092C165.694 113.995 165.799 113.815 165.799 113.553C165.799 113.269 165.65 113.01 165.35 112.778C165.051 112.546 164.665 112.307 164.193 112.06C163.729 111.812 163.231 111.532 162.7 111.217C162.176 110.903 161.678 110.525 161.206 110.083C160.742 109.641 160.36 109.113 160.061 108.5C159.761 107.878 159.611 107.137 159.611 106.276C159.611 105.22 159.832 104.329 160.274 103.603C160.716 102.869 161.307 102.282 162.048 101.84C162.797 101.391 163.636 101.065 164.564 100.863C165.5 100.661 166.458 100.56 167.439 100.56C168.27 100.56 169.056 100.604 169.797 100.694C170.539 100.784 171.164 100.882 171.673 100.986C172.189 101.091 172.515 101.162 172.65 101.2V106.354C172.65 106.354 172.493 106.321 172.178 106.253C171.871 106.186 171.482 106.111 171.01 106.029C170.546 105.946 170.063 105.872 169.562 105.804C169.067 105.737 168.633 105.703 168.259 105.703C167.914 105.703 167.656 105.763 167.484 105.883C167.312 106.003 167.226 106.145 167.226 106.31C167.226 106.444 167.3 106.594 167.45 106.759C167.6 106.916 167.78 107.04 167.989 107.129C168.775 107.474 169.517 107.826 170.213 108.185C170.909 108.544 171.523 108.96 172.055 109.432C172.586 109.903 173.002 110.48 173.301 111.161C173.608 111.835 173.762 112.662 173.762 113.643C173.762 114.811 173.466 115.829 172.875 116.698C172.291 117.566 171.444 118.24 170.336 118.719C169.236 119.198 167.907 119.438 166.35 119.438C165.009 119.438 163.905 119.374 163.037 119.247C162.168 119.12 161.487 118.978 160.993 118.82C160.499 118.656 160.15 118.51 159.948 118.382C159.754 118.255 159.656 118.191 159.656 118.191V113.048ZM175.413 101.065H192.393V106.882H187.396V119H180.41V106.882H175.413V101.065ZM194.392 101.065H207.318V106.231H201.377V107.702H207.296V112.104H201.377V113.8H207.711V119H194.392V101.065ZM210.384 101.065H212.956L221.626 109.207L230.532 101.065H233.014V119H225.635V113.183L221.053 118.214L216.595 113.317V119H210.384V101.065Z" fill="#7465FF"/>
<defs>
<clipPath id="clip0_169_26693">
<rect width="122" height="122" fill="white"/>
</clipPath>
</defs>
</svg>
