<svg width="16" height="16" viewBox="0 0 16 16" fill="none" xmlns="http://www.w3.org/2000/svg">
<g opacity="0.6">
<path d="M14.0667 8.33317L15 9.27317L10.6467 13.6665L8.33333 11.3332L9.26667 10.3932L10.6467 11.7798L14.0667 8.33317ZM6.66667 11.3332L8.66667 13.3332H2V11.9998C2 10.5265 4.38667 9.33317 7.33333 9.33317L8.59333 9.4065L6.66667 11.3332ZM7.33333 2.6665C8.04058 2.6665 8.71885 2.94746 9.21895 3.44755C9.71905 3.94765 10 4.62593 10 5.33317C10 6.04041 9.71905 6.71869 9.21895 7.21879C8.71885 7.71889 8.04058 7.99984 7.33333 7.99984C6.62609 7.99984 5.94781 7.71889 5.44772 7.21879C4.94762 6.71869 4.66667 6.04041 4.66667 5.33317C4.66667 4.62593 4.94762 3.94765 5.44772 3.44755C5.94781 2.94746 6.62609 2.6665 7.33333 2.6665Z" fill="#84FF7D"/>
</g>
</svg>
