<svg width="16" height="12" viewBox="0 0 16 12" fill="none" xmlns="http://www.w3.org/2000/svg">
<path fill-rule="evenodd" clip-rule="evenodd" d="M3.20005 3.5999C3.41222 3.5999 3.61571 3.51562 3.76573 3.36559C3.91576 3.21556 4.00005 3.01208 4.00005 2.7999C4.00005 2.58773 3.91576 2.38425 3.76573 2.23422C3.61571 2.08419 3.41222 1.9999 3.20005 1.9999C2.98788 1.9999 2.78439 2.08419 2.63436 2.23422C2.48433 2.38425 2.40005 2.58773 2.40005 2.7999C2.40005 3.01208 2.48433 3.21556 2.63436 3.36559C2.78439 3.51562 2.98788 3.5999 3.20005 3.5999ZM3.20005 5.1999C3.83657 5.1999 4.44702 4.94705 4.89711 4.49696C5.34719 4.04687 5.60005 3.43642 5.60005 2.7999C5.60005 2.16338 5.34719 1.55293 4.89711 1.10285C4.44702 0.652759 3.83657 0.399902 3.20005 0.399902C2.56353 0.399902 1.95308 0.652759 1.50299 1.10285C1.05291 1.55293 0.800049 2.16338 0.800049 2.7999C0.800049 3.43642 1.05291 4.04687 1.50299 4.49696C1.95308 4.94705 2.56353 5.1999 3.20005 5.1999Z" fill="#FF9317"/>
<path fill-rule="evenodd" clip-rule="evenodd" d="M3.23994 5.7999C2.92168 5.7999 2.61646 5.92633 2.39141 6.15137C2.16637 6.37642 2.03994 6.68164 2.03994 6.9999V8.1999C2.03994 8.41208 1.95566 8.61556 1.80563 8.76559C1.6556 8.91562 1.45211 8.9999 1.23994 8.9999C1.02777 8.9999 0.824285 8.91562 0.674256 8.76559C0.524227 8.61556 0.439941 8.41208 0.439941 8.1999V6.9999C0.439941 6.2573 0.734941 5.54511 1.26004 5.02C1.78514 4.4949 2.49734 4.1999 3.23994 4.1999C3.98255 4.1999 4.69474 4.4949 5.21984 5.02C5.74494 5.54511 6.03994 6.2573 6.03994 6.9999V8.1999C6.03994 8.41208 5.95566 8.61556 5.80563 8.76559C5.6556 8.91562 5.45211 8.9999 5.23994 8.9999C5.02777 8.9999 4.82428 8.91562 4.67426 8.76559C4.52423 8.61556 4.43994 8.41208 4.43994 8.1999V6.9999C4.43994 6.68164 4.31351 6.37642 4.08847 6.15137C3.86343 5.92633 3.5582 5.7999 3.23994 5.7999ZM12.7999 3.5999C12.5878 3.5999 12.3843 3.51562 12.2343 3.36559C12.0842 3.21556 11.9999 3.01208 11.9999 2.7999C11.9999 2.58773 12.0842 2.38425 12.2343 2.23422C12.3843 2.08419 12.5878 1.9999 12.7999 1.9999C13.0121 1.9999 13.2156 2.08419 13.3656 2.23422C13.5157 2.38425 13.5999 2.58773 13.5999 2.7999C13.5999 3.01208 13.5157 3.21556 13.3656 3.36559C13.2156 3.51562 13.0121 3.5999 12.7999 3.5999ZM12.7999 5.1999C12.1634 5.1999 11.553 4.94705 11.1029 4.49696C10.6528 4.04687 10.3999 3.43642 10.3999 2.7999C10.3999 2.16338 10.6528 1.55293 11.1029 1.10285C11.553 0.652759 12.1634 0.399902 12.7999 0.399902C13.4365 0.399902 14.0469 0.652759 14.497 1.10285C14.9471 1.55293 15.1999 2.16338 15.1999 2.7999C15.1999 3.43642 14.9471 4.04687 14.497 4.49696C14.0469 4.94705 13.4365 5.1999 12.7999 5.1999Z" fill="#FF9317"/>
<path fill-rule="evenodd" clip-rule="evenodd" d="M12.76 5.79971C13.0782 5.79971 13.3834 5.92614 13.6085 6.15118C13.8335 6.37622 13.96 6.68145 13.96 6.99971V8.19971C13.96 8.41188 14.0442 8.61536 14.1943 8.76539C14.3443 8.91542 14.5478 8.99971 14.76 8.99971C14.9721 8.99971 15.1756 8.91542 15.3256 8.76539C15.4757 8.61536 15.56 8.41188 15.56 8.19971V6.99971C15.56 6.2571 15.265 5.54491 14.7399 5.01981C14.2148 4.49471 13.5026 4.19971 12.76 4.19971C12.0174 4.19971 11.3052 4.49471 10.7801 5.01981C10.255 5.54491 9.95996 6.2571 9.95996 6.99971V8.19971C9.95996 8.41188 10.0442 8.61536 10.1943 8.76539C10.3443 8.91542 10.5478 8.99971 10.76 8.99971C10.9721 8.99971 11.1756 8.91542 11.3256 8.76539C11.4757 8.61536 11.56 8.41188 11.56 8.19971V6.99971C11.56 6.68145 11.6864 6.37622 11.9114 6.15118C12.1365 5.92614 12.4417 5.79971 12.76 5.79971Z" fill="#FF9317"/>
<path fill-rule="evenodd" clip-rule="evenodd" d="M8.03994 7.9999C7.50951 7.9999 7.0008 8.21062 6.62573 8.58569C6.25065 8.96076 6.03994 9.46947 6.03994 9.9999V11.1999C6.03994 11.4121 5.95566 11.6156 5.80563 11.7656C5.6556 11.9156 5.45211 11.9999 5.23994 11.9999C5.02777 11.9999 4.82428 11.9156 4.67426 11.7656C4.52423 11.6156 4.43994 11.4121 4.43994 11.1999V9.9999C4.43994 9.04512 4.81923 8.12945 5.49436 7.45432C6.16949 6.77919 7.08516 6.3999 8.03994 6.3999C8.99472 6.3999 9.91039 6.77919 10.5855 7.45432C11.2607 8.12945 11.6399 9.04512 11.6399 9.9999V11.1999C11.6399 11.4121 11.5557 11.6156 11.4056 11.7656C11.2556 11.9156 11.0521 11.9999 10.8399 11.9999C10.6278 11.9999 10.4243 11.9156 10.2743 11.7656C10.1242 11.6156 10.0399 11.4121 10.0399 11.1999V9.9999C10.0399 9.46947 9.82923 8.96076 9.45415 8.58569C9.07908 8.21062 8.57037 7.9999 8.03994 7.9999Z" fill="#FF9317"/>
<path fill-rule="evenodd" clip-rule="evenodd" d="M7.99985 5.8001C8.21203 5.8001 8.41551 5.71581 8.56554 5.56578C8.71557 5.41575 8.79985 5.21227 8.79985 5.0001C8.79985 4.78792 8.71557 4.58444 8.56554 4.43441C8.41551 4.28438 8.21203 4.2001 7.99985 4.2001C7.78768 4.2001 7.5842 4.28438 7.43417 4.43441C7.28414 4.58444 7.19985 4.78792 7.19985 5.0001C7.19985 5.21227 7.28414 5.41575 7.43417 5.56578C7.5842 5.71581 7.78768 5.8001 7.99985 5.8001ZM7.99985 7.4001C8.63637 7.4001 9.24682 7.14724 9.69691 6.69715C10.147 6.24707 10.3999 5.63662 10.3999 5.0001C10.3999 4.36358 10.147 3.75313 9.69691 3.30304C9.24682 2.85295 8.63637 2.6001 7.99985 2.6001C7.36333 2.6001 6.75288 2.85295 6.3028 3.30304C5.85271 3.75313 5.59985 4.36358 5.59985 5.0001C5.59985 5.63662 5.85271 6.24707 6.3028 6.69715C6.75288 7.14724 7.36333 7.4001 7.99985 7.4001Z" fill="#FF9317"/>
</svg>
