<svg width="28" height="28" viewBox="0 0 28 28" fill="none" xmlns="http://www.w3.org/2000/svg">
<path d="M14 13.5629C15.597 13.5629 16.9705 12.1369 16.9705 10.2799C16.9705 8.44543 15.5895 7.08643 14 7.08643C12.4105 7.08643 11.029 8.47543 11.029 10.2949C11.029 12.1369 12.403 13.5629 14 13.5629ZM5.4515 13.7334C6.833 13.7334 8.0365 12.4859 8.0365 10.8744C8.0365 9.27743 6.8255 8.09643 5.4515 8.09643C4.07 8.09643 2.852 9.30693 2.8595 10.8889C2.8595 12.4859 4.0625 13.7339 5.4515 13.7339M22.5485 13.7339C23.9375 13.7339 25.1405 12.4864 25.1405 10.8894C25.1405 9.30743 23.93 8.09693 22.5485 8.09693C21.1745 8.09693 19.9635 9.27793 19.9635 10.8744C19.9635 12.4864 21.167 13.7339 22.5485 13.7339ZM1.307 20.4404H6.952C6.1795 19.3189 7.1225 17.0609 8.7195 15.8279C7.8945 15.2784 6.833 14.8699 5.4445 14.8699C2.094 14.8699 0 17.3429 0 19.4004C0 20.0689 0.3715 20.4404 1.307 20.4404ZM26.693 20.4404C27.636 20.4404 28 20.0689 28 19.4004C28 17.3429 25.9055 14.8699 22.556 14.8699C21.167 14.8699 20.105 15.2784 19.281 15.8279C20.8775 17.0609 21.821 19.3189 21.0485 20.4404H26.693ZM9.328 20.4404H18.664C19.83 20.4404 20.246 20.1059 20.246 19.4524C20.246 17.5364 17.847 14.8924 13.9925 14.8924C10.1455 14.8924 7.7465 17.5364 7.7465 19.4524C7.7465 20.1059 8.162 20.4404 9.328 20.4404Z" fill="#FFBB00"/>
</svg>
