<svg width="16" height="16" viewBox="0 0 16 16" fill="none" xmlns="http://www.w3.org/2000/svg">
<g clip-path="url(#clip0_458_1374)">
<path d="M2.34392 13.6562C1.57984 12.9182 0.970378 12.0354 0.551106 11.0594C0.131834 10.0834 -0.0888561 9.03361 -0.0980866 7.97137C-0.107317 6.90914 0.0950964 5.8557 0.497344 4.87253C0.899591 3.88936 1.49362 2.99614 2.24476 2.245C2.9959 1.49386 3.88911 0.899835 4.87228 0.497588C5.85546 0.0953406 6.90889 -0.107073 7.97113 -0.0978425C9.03336 -0.0886119 10.0831 0.132078 11.0592 0.55135C12.0352 0.970622 12.9179 1.58008 13.6559 2.34416C15.1132 3.85298 15.9195 5.8738 15.9013 7.97137C15.8831 10.0689 15.0417 12.0754 13.5585 13.5587C12.0752 15.042 10.0687 15.8833 7.97113 15.9016C5.87355 15.9198 3.85273 15.1134 2.34392 13.6562ZM7.19992 4.00016V8.80016H8.79992V4.00016H7.19992ZM7.19992 10.4002V12.0002H8.79992V10.4002H7.19992Z" fill="#EB3535"/>
</g>
<defs>
<clipPath id="clip0_458_1374">
<rect width="16" height="16" fill="white"/>
</clipPath>
</defs>
</svg>
