<svg width="16" height="16" viewBox="0 0 16 16" fill="none" xmlns="http://www.w3.org/2000/svg">
<path d="M4.58396 2.13604C6.05544 1.43731 9.23891 0.762538 12.8435 3.07334C13.01 3.17271 13.2093 3.20447 13.3992 3.16188C13.5891 3.11929 13.7548 3.0057 13.861 2.84515C13.9673 2.6846 14.0059 2.48967 13.9686 2.30163C13.9314 2.11358 13.8212 1.94716 13.6615 1.83758C9.54132 -0.802618 5.78854 -0.0729439 3.93245 0.808454C3.83984 0.84806 3.75632 0.905655 3.68689 0.977783C3.61747 1.04991 3.56356 1.13509 3.52842 1.22821C3.49327 1.32133 3.47761 1.42047 3.48237 1.51968C3.48712 1.6189 3.5122 1.71615 3.5561 1.80561C3.6 1.89506 3.66181 1.97487 3.73783 2.04025C3.81385 2.10563 3.90251 2.15524 3.9985 2.1861C4.09449 2.21695 4.19582 2.22843 4.29642 2.21983C4.39703 2.21122 4.49483 2.18273 4.58396 2.13604ZM2.87704 2.41054C3.10436 2.74993 3.00897 3.2071 2.66292 3.43169C2.18291 3.74113 1.62172 4.43486 1.40759 4.79421C1.35936 4.88077 1.29396 4.95692 1.21527 5.01817C1.13657 5.07941 1.04618 5.12449 0.949448 5.15075C0.852716 5.17701 0.75161 5.1839 0.652119 5.17103C0.552629 5.15815 0.456777 5.12577 0.370241 5.07579C0.283706 5.02582 0.208247 4.95927 0.148335 4.88009C0.0884224 4.80091 0.0452747 4.7107 0.0214477 4.61482C-0.00237942 4.51894 -0.00640127 4.41933 0.00962035 4.3219C0.025642 4.22446 0.0613812 4.13117 0.114721 4.04757C0.39481 3.57842 1.09909 2.67806 1.8399 2.19893C2.00612 2.09223 2.20852 2.05459 2.40286 2.09424C2.59721 2.1339 2.76769 2.24762 2.87704 2.41054ZM8.25555 2.24984C8.15482 2.24619 8.05437 2.26256 7.9602 2.29796C7.86604 2.33336 7.7801 2.38707 7.70752 2.45589C7.63494 2.5247 7.57721 2.6072 7.53778 2.69845C7.49835 2.7897 7.47803 2.88784 7.47803 2.987C7.47803 3.08615 7.49835 3.18429 7.53778 3.27554C7.57721 3.3668 7.63494 3.44929 7.70752 3.51811C7.7801 3.58692 7.86604 3.64063 7.9602 3.67603C8.05437 3.71144 8.15482 3.7278 8.25555 3.72416C9.80822 3.72416 13.5458 5.00782 14.5149 9.96681C14.5526 10.1587 14.6663 10.3281 14.8309 10.4376C14.9955 10.5471 15.1976 10.5878 15.3927 10.5508C15.5879 10.5137 15.76 10.4019 15.8714 10.24C15.9827 10.078 16.0241 9.87925 15.9864 9.68732C14.864 3.94276 10.4252 2.24984 8.25555 2.24984ZM6.74653 3.01345C6.81389 3.1972 6.80451 3.39971 6.72045 3.57667C6.63639 3.75364 6.48449 3.89065 6.29798 3.95773C2.3605 5.36517 1.37309 9.06845 1.75364 11.6887C1.77163 11.7862 1.76943 11.8864 1.74719 11.9831C1.72494 12.0798 1.6831 12.1711 1.62418 12.2515C1.56525 12.332 1.49044 12.3999 1.40422 12.4513C1.31799 12.5026 1.22213 12.5363 1.12236 12.5504C1.02258 12.5645 0.920937 12.5587 0.823504 12.5333C0.726071 12.5079 0.634846 12.4634 0.555282 12.4025C0.475717 12.3417 0.409445 12.2656 0.360427 12.179C0.311408 12.0924 0.280649 11.9969 0.269987 11.8983C-0.173486 8.84685 0.960061 4.29612 5.78651 2.57225C5.97332 2.50599 6.17921 2.51522 6.35912 2.5979C6.53904 2.68059 6.67833 2.83 6.74653 3.01345ZM5.87886 6.86645C4.26937 8.09222 3.29718 10.7264 4.92798 13.9196C5.00933 14.0934 5.01886 14.2915 4.95457 14.472C4.89028 14.6526 4.75719 14.8015 4.58339 14.8873C4.40959 14.9732 4.20867 14.9893 4.02304 14.9322C3.8374 14.8751 3.68157 14.7494 3.58843 14.5814C1.67246 10.8302 2.72178 7.40647 4.96147 5.70057C6.07066 4.8561 7.46705 4.44485 8.87865 4.66944C10.2984 4.89603 11.6491 5.75347 12.6862 7.28968C12.7458 7.37015 12.7883 7.46165 12.8109 7.55868C12.8336 7.6557 12.8361 7.75624 12.8183 7.85424C12.8004 7.95224 12.7625 8.04566 12.707 8.12889C12.6514 8.21211 12.5793 8.28342 12.495 8.3385C12.4107 8.39359 12.3159 8.43131 12.2164 8.44941C12.1169 8.46751 12.0146 8.4656 11.9159 8.4438C11.8171 8.422 11.7239 8.38076 11.6417 8.32257C11.5596 8.26438 11.4903 8.19043 11.438 8.1052C10.5957 6.85946 9.58801 6.27652 8.63713 6.12479C7.67914 5.97207 6.69477 6.24458 5.87886 6.86645ZM13.5001 9.78714C13.4801 9.59888 13.3873 9.42537 13.2409 9.30252C13.0945 9.17967 12.9057 9.11688 12.7136 9.12714C12.5214 9.1374 12.3406 9.21992 12.2086 9.35763C12.0766 9.49535 12.0034 9.67771 12.0043 9.86699C12.1078 11.7436 13.2921 12.7547 14.0217 12.9863C14.2088 13.0389 14.4093 13.0179 14.581 12.9278C14.7526 12.8376 14.8819 12.6854 14.9415 12.5033C15.0012 12.3211 14.9866 12.1233 14.9007 11.9515C14.8149 11.7798 14.6645 11.6476 14.4814 11.5829L14.4662 11.5769L14.4256 11.5569C14.3813 11.5328 14.3389 11.5054 14.2988 11.4751C14.1747 11.3817 14.0641 11.2723 13.97 11.1497C13.7487 10.8642 13.5366 10.425 13.5011 9.78714M9.0055 10.3192C8.99551 10.1304 8.91225 9.95266 8.77289 9.82254C8.63353 9.69242 8.44872 9.61988 8.25657 9.61988C8.06442 9.61988 7.87961 9.69242 7.74025 9.82254C7.60089 9.95266 7.51763 10.1304 7.50764 10.3192C7.50764 11.3683 7.63956 12.1928 7.96126 13.0013C8.27585 13.7929 8.75992 14.5305 9.39316 15.4129C9.5102 15.5666 9.68357 15.6694 9.87642 15.6994C10.0693 15.7293 10.2664 15.6841 10.4259 15.5734C10.5854 15.4626 10.6947 15.2951 10.7306 15.1063C10.7665 14.9175 10.7261 14.7224 10.618 14.5625C9.9919 13.69 9.6012 13.0762 9.35663 12.4633C9.11916 11.8674 9.00652 11.2355 9.00652 10.3192M7.88007 14.8769C5.8129 11.1996 6.54052 9.41681 7.26104 8.84086C8.04244 8.21599 9.22572 8.49149 9.55959 9.55157C9.62048 9.74821 9.67122 9.98877 9.7382 10.3052L9.77372 10.4719C9.85389 10.8512 9.95334 11.2974 10.1066 11.7576C10.4141 12.6859 10.9499 13.708 12.0317 14.4936C12.1104 14.5561 12.2012 14.6022 12.2986 14.6293C12.396 14.6564 12.4979 14.6638 12.5983 14.6511C12.6987 14.6383 12.7954 14.6058 12.8826 14.5553C12.9698 14.5049 13.0458 14.4376 13.1059 14.3575C13.166 14.2775 13.209 14.1863 13.2323 14.0894C13.2556 13.9925 13.2588 13.8921 13.2415 13.794C13.2243 13.6959 13.1871 13.6023 13.1321 13.5187C13.0772 13.4351 13.0056 13.3634 12.9217 13.3077C12.1727 12.7637 11.78 12.049 11.5314 11.2994C11.4124 10.9293 11.3155 10.5527 11.2411 10.1714L11.2087 10.0187C11.1506 9.71445 11.0781 9.413 10.9915 9.11536C10.3217 6.99421 7.86384 6.45819 6.3132 7.69594C4.70066 8.9836 4.40332 11.7426 6.56691 15.5916C6.61207 15.6807 6.67509 15.7598 6.75217 15.8243C6.82925 15.8888 6.9188 15.9372 7.01542 15.9668C7.11205 15.9963 7.21375 16.0063 7.31441 15.9962C7.41507 15.986 7.5126 15.956 7.60113 15.9078C7.68966 15.8596 7.76737 15.7943 7.82956 15.7157C7.89175 15.6372 7.93715 15.5472 7.96302 15.4509C7.98889 15.3547 7.9947 15.2544 7.9801 15.1559C7.96549 15.0574 7.93078 14.9628 7.87804 14.8779" fill="#FFFDFD"/>
</svg>
