<svg width="16" height="16" viewBox="0 0 16 16" fill="none" xmlns="http://www.w3.org/2000/svg">
<g clip-path="url(#clip0_287_1409)">
<path d="M8.00003 8.81794L10.8356 5.99572C10.8885 5.95875 10.9327 5.91071 10.9651 5.85494C10.9976 5.79916 11.0175 5.73699 11.0235 5.67274C11.0295 5.60849 11.0214 5.5437 10.9999 5.48288C10.9783 5.42206 10.9438 5.36667 10.8986 5.32055C10.8535 5.27443 10.7988 5.2387 10.7385 5.21583C10.6782 5.19296 10.6136 5.1835 10.5492 5.18812C10.4848 5.19273 10.4222 5.21131 10.3658 5.24255C10.3093 5.2738 10.2603 5.31697 10.2222 5.36905L8.44447 7.11127V1.77794C8.44447 1.66007 8.39764 1.54702 8.3143 1.46367C8.23095 1.38032 8.1179 1.3335 8.00003 1.3335C7.88215 1.3335 7.7691 1.38032 7.68576 1.46367C7.60241 1.54702 7.55558 1.66007 7.55558 1.77794V7.11127L5.7778 5.35572C5.69411 5.27262 5.58084 5.22617 5.4629 5.22658C5.34496 5.227 5.23202 5.27425 5.14891 5.35794C5.06581 5.44163 5.01936 5.55491 5.01978 5.67285C5.02019 5.79078 5.06745 5.90373 5.15114 5.98683L8.00003 8.81794Z" fill="white"/>
<path d="M8.62662 9.44892L8.29773 9.7778H15.08C15.0044 9.52447 14.7288 8.75114 13.7066 5.94225C13.6513 5.76185 13.5382 5.60459 13.3849 5.4946C13.2315 5.38462 13.0464 5.32797 12.8577 5.33336H11.8C11.8633 5.56023 11.8654 5.79984 11.8061 6.0278C11.7468 6.25576 11.6281 6.46394 11.4622 6.63114L8.62662 9.44892Z" fill="white"/>
<path d="M7.36893 9.44874L4.53338 6.62652C4.36822 6.45974 4.25002 6.25233 4.19071 6.02524C4.1314 5.79814 4.13308 5.55942 4.1956 5.33318H3.14227C2.95687 5.32587 2.77414 5.37918 2.62176 5.48505C2.46938 5.59091 2.35566 5.74355 2.29782 5.91985C1.27116 8.74652 0.9956 9.52429 0.920044 9.77763H7.70227L7.36893 9.44874Z" fill="white"/>
<path d="M0.888916 10.6665V13.3332C0.888916 13.5689 0.982567 13.795 1.14927 13.9617C1.31596 14.1284 1.54206 14.2221 1.7778 14.2221H14.2222C14.458 14.2221 14.6841 14.1284 14.8508 13.9617C15.0175 13.795 15.1111 13.5689 15.1111 13.3332V10.6665H0.888916ZM13.3334 12.4443H11.5556V11.5554H13.3334V12.4443Z" fill="white"/>
</g>
<defs>
<clipPath id="clip0_287_1409">
<rect width="16" height="16" fill="white"/>
</clipPath>
</defs>
</svg>
