<svg width="16" height="16" viewBox="0 0 16 16" fill="none" xmlns="http://www.w3.org/2000/svg">
<g clip-path="url(#clip0_447_1368)">
<path d="M5.89998 9.175H0.724976L3.29998 2.625L5.89998 9.175ZM1.39998 8.7H5.22498L3.29998 3.825L1.39998 8.7ZM15.275 9.175H10.1L12.675 2.625L15.275 9.175ZM10.775 8.7H14.6L12.675 3.825L10.775 8.7Z" fill="#D0D0D0"/>
<path d="M12.575 2.55C12.575 2.55 12.025 2.35 11.725 2.225C10.65 1.775 9.32498 1.25 7.99998 1.25C6.67498 1.25 5.34998 1.8 4.27498 2.25C3.97498 2.375 3.42498 2.575 3.42498 2.575L2.59998 3.2C2.59998 3.2 3.27498 3.625 3.59998 3.5C3.87498 3.4 4.14998 3.275 4.47498 3.15C5.49998 2.725 6.77498 2.2 7.99998 2.2C9.22498 2.2 10.5 2.725 11.525 3.15C11.825 3.275 12.125 3.4 12.4 3.5C12.75 3.625 13.4 3.2 13.4 3.2L12.575 2.55Z" fill="#B8C2C4"/>
<path d="M0.5 8.7002C0.5 10.2502 1.75 11.5002 3.3 11.5002C4.85 11.5002 6.1 10.2502 6.1 8.7002H0.5ZM9.875 8.7002C9.875 10.2502 11.125 11.5002 12.675 11.5002C14.225 11.5002 15.5 10.2502 15.5 8.7002H9.875Z" fill="#428BC1"/>
<path d="M7.52502 3.0752H8.47502V13.3752H7.52502V3.0752Z" fill="#B8C2C4"/>
<path d="M7.25 4.6499H8.775V13.3749H7.25V4.6499Z" fill="#D0D0D0"/>
<path d="M6.92505 9.1748H9.07505V14.0998H6.92505V9.1748Z" fill="#545B60"/>
<path d="M3.29998 4.2501C3.82465 4.2501 4.24998 3.82477 4.24998 3.3001C4.24998 2.77543 3.82465 2.3501 3.29998 2.3501C2.77531 2.3501 2.34998 2.77543 2.34998 3.3001C2.34998 3.82477 2.77531 4.2501 3.29998 4.2501Z" fill="#DBB471"/>
<path d="M12.7 4.2501C13.2247 4.2501 13.65 3.82477 13.65 3.3001C13.65 2.77543 13.2247 2.3501 12.7 2.3501C12.1753 2.3501 11.75 2.77543 11.75 3.3001C11.75 3.82477 12.1753 4.2501 12.7 4.2501Z" fill="#545B60"/>
<path d="M3.29998 4.2501C3.82465 4.2501 4.24998 3.82477 4.24998 3.3001C4.24998 2.77543 3.82465 2.3501 3.29998 2.3501C2.77531 2.3501 2.34998 2.77543 2.34998 3.3001C2.34998 3.82477 2.77531 4.2501 3.29998 4.2501Z" fill="#545B60"/>
<path d="M3.29995 3.7752C3.56229 3.7752 3.77495 3.56253 3.77495 3.3002C3.77495 3.03786 3.56229 2.8252 3.29995 2.8252C3.03762 2.8252 2.82495 3.03786 2.82495 3.3002C2.82495 3.56253 3.03762 3.7752 3.29995 3.7752Z" fill="white"/>
<path d="M12.7 3.7752C12.9623 3.7752 13.175 3.56253 13.175 3.3002C13.175 3.03786 12.9623 2.8252 12.7 2.8252C12.4376 2.8252 12.225 3.03786 12.225 3.3002C12.225 3.56253 12.4376 3.7752 12.7 3.7752Z" fill="white"/>
<path d="M7.99998 3.3C8.77317 3.3 9.39998 2.6732 9.39998 1.9C9.39998 1.1268 8.77317 0.5 7.99998 0.5C7.22678 0.5 6.59998 1.1268 6.59998 1.9C6.59998 2.6732 7.22678 3.3 7.99998 3.3Z" fill="#D0D0D0"/>
<path d="M8 11.2749C5.925 11.2749 4.25 12.3249 4.25 13.6249H11.75C11.75 12.3249 10.075 11.2749 8 11.2749Z" fill="#D0D0D0"/>
<path d="M3.77502 13.625H12.225V14.575H3.77502V13.625Z" fill="#545B60"/>
<path d="M2.84998 14.5498H13.15V15.4998H2.84998V14.5498Z" fill="#6B767C"/>
</g>
<defs>
<clipPath id="clip0_447_1368">
<rect width="16" height="16" fill="white"/>
</clipPath>
</defs>
</svg>
