<svg width="16" height="16" viewBox="0 0 16 16" fill="none" xmlns="http://www.w3.org/2000/svg">
<path fill-rule="evenodd" clip-rule="evenodd" d="M10.6667 4.00016C10.8435 4.00016 11.0131 4.0704 11.1381 4.19542C11.2631 4.32045 11.3334 4.49002 11.3334 4.66683V6.00016H12C12.5305 6.00016 13.0392 6.21088 13.4143 6.58595C13.7893 6.96102 14 7.46973 14 8.00016V13.3335C14.1769 13.3335 14.3464 13.4037 14.4714 13.5288C14.5965 13.6538 14.6667 13.8234 14.6667 14.0002C14.6667 14.177 14.5965 14.3465 14.4714 14.4716C14.3464 14.5966 14.1769 14.6668 14 14.6668H2.00004C1.82323 14.6668 1.65366 14.5966 1.52864 14.4716C1.40361 14.3465 1.33337 14.177 1.33337 14.0002C1.33337 13.8234 1.40361 13.6538 1.52864 13.5288C1.65366 13.4037 1.82323 13.3335 2.00004 13.3335V8.00016C2.00004 7.46973 2.21075 6.96102 2.58583 6.58595C2.9609 6.21088 3.46961 6.00016 4.00004 6.00016H4.66671V4.66683C4.66671 4.49002 4.73695 4.32045 4.86197 4.19542C4.98699 4.0704 5.15656 4.00016 5.33337 4.00016C5.51018 4.00016 5.67975 4.0704 5.80478 4.19542C5.9298 4.32045 6.00004 4.49002 6.00004 4.66683V6.00016H7.33337V4.66683C7.33337 4.49002 7.40361 4.32045 7.52864 4.19542C7.65366 4.0704 7.82323 4.00016 8.00004 4.00016C8.17685 4.00016 8.34642 4.0704 8.47144 4.19542C8.59647 4.32045 8.66671 4.49002 8.66671 4.66683V6.00016H10V4.66683C10 4.49002 10.0703 4.32045 10.1953 4.19542C10.3203 4.0704 10.4899 4.00016 10.6667 4.00016ZM11.8047 10.4715C11.6553 10.6209 11.4778 10.7395 11.2826 10.8204C11.0873 10.9013 10.8781 10.9429 10.6667 10.9429C10.4554 10.9429 10.2461 10.9013 10.0508 10.8204C9.85556 10.7395 9.67815 10.6209 9.52871 10.4715C9.50307 10.4458 9.47262 10.4254 9.43911 10.4115C9.40559 10.3976 9.36966 10.3905 9.33337 10.3905C9.29709 10.3905 9.26116 10.3976 9.22764 10.4115C9.19412 10.4254 9.16368 10.4458 9.13804 10.4715C8.9886 10.6209 8.81118 10.7395 8.61593 10.8204C8.42067 10.9013 8.21139 10.9429 8.00004 10.9429C7.78869 10.9429 7.57941 10.9013 7.38416 10.8204C7.1889 10.7395 7.01148 10.6209 6.86204 10.4715C6.83641 10.4458 6.80596 10.4254 6.77244 10.4115C6.73892 10.3976 6.70299 10.3905 6.66671 10.3905C6.63042 10.3905 6.59449 10.3976 6.56097 10.4115C6.52746 10.4254 6.49701 10.4458 6.47137 10.4715C6.32193 10.6209 6.14452 10.7395 5.94926 10.8204C5.754 10.9013 5.54472 10.9429 5.33337 10.9429C5.12203 10.9429 4.91275 10.9013 4.71749 10.8204C4.52223 10.7395 4.34482 10.6209 4.19537 10.4715C4.16974 10.4458 4.13929 10.4254 4.10577 10.4115C4.07226 10.3976 4.03633 10.3905 4.00004 10.3905C3.96375 10.3905 3.92783 10.3976 3.89431 10.4115C3.86079 10.4254 3.83034 10.4458 3.80471 10.4715L3.33337 10.9428V13.3335H12.6667V10.9428L12.1954 10.4715C12.1697 10.4458 12.1393 10.4254 12.1058 10.4115C12.0723 10.3976 12.0363 10.3905 12 10.3905C11.9638 10.3905 11.9278 10.3976 11.8943 10.4115C11.8608 10.4254 11.8303 10.4458 11.8047 10.4715ZM12 7.3335H4.00004C3.83675 7.33352 3.67915 7.39347 3.55713 7.50197C3.4351 7.61048 3.35715 7.76 3.33804 7.92216L3.33337 8.00016V9.2015C3.63168 9.0658 3.96429 9.02438 4.28677 9.08275C4.60924 9.14112 4.90623 9.29651 5.13804 9.52816C5.16368 9.55384 5.19412 9.57422 5.22764 9.58812C5.26116 9.60202 5.29709 9.60917 5.33337 9.60917C5.36966 9.60917 5.40559 9.60202 5.43911 9.58812C5.47262 9.57422 5.50307 9.55384 5.52871 9.52816C5.67815 9.37871 5.85556 9.26016 6.05082 9.17928C6.24608 9.0984 6.45536 9.05677 6.66671 9.05677C6.87805 9.05677 7.08733 9.0984 7.28259 9.17928C7.47785 9.26016 7.65527 9.37871 7.80471 9.52816C7.83034 9.55384 7.86079 9.57422 7.89431 9.58812C7.92782 9.60202 7.96375 9.60917 8.00004 9.60917C8.03633 9.60917 8.07226 9.60202 8.10577 9.58812C8.13929 9.57422 8.16974 9.55384 8.19537 9.52816C8.34482 9.37871 8.52223 9.26016 8.71749 9.17928C8.91275 9.0984 9.12203 9.05677 9.33337 9.05677C9.54472 9.05677 9.754 9.0984 9.94926 9.17928C10.1445 9.26016 10.3219 9.37871 10.4714 9.52816C10.497 9.55384 10.5275 9.57422 10.561 9.58812C10.5945 9.60202 10.6304 9.60917 10.6667 9.60917C10.703 9.60917 10.7389 9.60202 10.7724 9.58812C10.806 9.57422 10.8364 9.55384 10.862 9.52816C11.0794 9.31144 11.354 9.1612 11.6537 9.09508C11.9534 9.02895 12.2657 9.04968 12.554 9.15483L12.6667 9.2015V8.00016C12.6667 7.83687 12.6067 7.67927 12.4982 7.55725C12.3897 7.43522 12.2402 7.35727 12.078 7.33816L12 7.3335ZM8.33337 1.3335C8.16671 1.6675 8.25004 1.90883 8.37604 2.1135L8.44671 2.2215L8.48337 2.2735C8.57937 2.40883 8.66671 2.5335 8.66671 2.66683C8.66671 2.84364 8.59647 3.01321 8.47144 3.13823C8.34642 3.26326 8.17685 3.3335 8.00004 3.3335C7.82323 3.3335 7.65366 3.26326 7.52864 3.13823C7.40361 3.01321 7.33337 2.84364 7.33337 2.66683C7.33337 2.29883 7.66671 1.66683 8.33337 1.3335ZM5.66671 1.3335C5.50004 1.6675 5.58337 1.90883 5.70937 2.1135L5.78004 2.2215L5.81671 2.2735C5.91271 2.40883 6.00004 2.5335 6.00004 2.66683C6.00004 2.84364 5.9298 3.01321 5.80478 3.13823C5.67975 3.26326 5.51018 3.3335 5.33337 3.3335C5.15656 3.3335 4.98699 3.26326 4.86197 3.13823C4.73695 3.01321 4.66671 2.84364 4.66671 2.66683C4.66671 2.29883 5.00004 1.66683 5.66671 1.3335ZM11 1.3335C10.8334 1.6675 10.9167 1.90883 11.0427 2.1135L11.1134 2.2215L11.15 2.2735C11.246 2.40883 11.3334 2.5335 11.3334 2.66683C11.3334 2.84364 11.2631 3.01321 11.1381 3.13823C11.0131 3.26326 10.8435 3.3335 10.6667 3.3335C10.4899 3.3335 10.3203 3.26326 10.1953 3.13823C10.0703 3.01321 10 2.84364 10 2.66683C10 2.29883 10.3334 1.66683 11 1.3335Z" fill="#FFFDFD"/>
</svg>
