<svg width="25" height="24" viewBox="0 0 25 24" fill="none" xmlns="http://www.w3.org/2000/svg">
<g clip-path="url(#clip0_121_2063)">
<path d="M12.6638 24C19.2912 24 24.6638 21.0152 24.6638 17.3333C24.6638 13.6514 19.2912 10.6666 12.6638 10.6666C6.0364 10.6666 0.663818 13.6514 0.663818 17.3333C0.663818 21.0152 6.0364 24 12.6638 24Z" fill="#8899A6"/>
<path d="M12.6638 22.8333C19.2912 22.8333 24.6638 19.8486 24.6638 16.1667C24.6638 12.4848 19.2912 9.5 12.6638 9.5C6.0364 9.5 0.663818 12.4848 0.663818 16.1667C0.663818 19.8486 6.0364 22.8333 12.6638 22.8333Z" fill="#CCD6DD"/>
<path d="M22.4472 15.79C22.4472 18.63 18.0672 20.9313 12.6638 20.9313C7.26049 20.9313 2.88049 18.63 2.88049 15.79C2.88049 12.9513 7.26049 10.6493 12.6638 10.6493C18.0665 10.6493 22.4472 12.9513 22.4472 15.79Z" fill="#DD2E44"/>
<path d="M22.1525 15.0287C22.1525 21.598 3.17517 21.598 3.17517 15.0287V9.18933H22.1525V15.0287Z" fill="#F4ABBA"/>
<path d="M12.6532 12.1106C6.66382 12.1106 3.17449 9.35596 3.17449 9.35596C3.17449 9.35596 3.16382 9.97196 3.16382 10.4793C3.16382 10.4793 3.18515 13.7446 4.87849 13.7446C6.51782 13.7446 6.39849 15.31 7.43449 15.472C8.46182 15.6326 8.57582 14.8466 9.85115 14.8466C11.1265 14.8466 11.3512 16.2506 12.6532 16.2506C14.1792 16.2506 14.3045 14.8466 15.5792 14.8466C16.8538 14.8466 17.0005 15.6626 17.8365 15.4366C18.8412 15.1646 18.3792 13.7453 20.4278 13.7453C22.1212 13.7453 22.1632 10.6466 22.1632 10.6466C22.1632 10.14 22.1518 9.35662 22.1518 9.35662C22.1518 9.35662 18.6432 12.1106 12.6532 12.1106Z" fill="#DD2E44"/>
<path d="M22.4472 8.49131C22.4472 11.3306 18.0672 13.6326 12.6638 13.6326C7.26049 13.6326 2.88049 11.3306 2.88049 8.49131C2.88049 5.65198 7.26049 3.34998 12.6638 3.34998C18.0665 3.34998 22.4472 5.65198 22.4472 8.49131Z" fill="#EA596E"/>
<path d="M17.7732 9.18933C17.3698 9.18933 17.0432 8.86266 17.0432 8.45933V3.35C17.0432 3.15639 17.1201 2.97071 17.257 2.83381C17.3939 2.69691 17.5795 2.62 17.7732 2.62C17.9668 2.62 18.1524 2.69691 18.2893 2.83381C18.4262 2.97071 18.5032 3.15639 18.5032 3.35V8.45933C18.5032 8.86266 18.1765 9.18933 17.7732 9.18933Z" fill="#FFF8E8"/>
<path d="M17.7732 4.44468C16.9985 4.44468 16.3892 4.09001 16.1432 3.49601C15.9298 2.98068 15.8238 1.86268 17.5152 0.172014C17.549 0.138109 17.5892 0.111212 17.6335 0.0928604C17.6778 0.0745091 17.7252 0.0650635 17.7732 0.0650635C17.8211 0.0650635 17.8685 0.0745091 17.9128 0.0928604C17.9571 0.111212 17.9973 0.138109 18.0312 0.172014C19.7225 1.86335 19.6165 2.98068 19.4032 3.49601C19.1572 4.09001 18.5478 4.44468 17.7732 4.44468Z" fill="#FAAA35"/>
<path d="M12.6638 11.3787C12.2605 11.3787 11.9338 11.0521 11.9338 10.6487V5.54006C11.9338 5.44419 11.9527 5.34927 11.9894 5.2607C12.0261 5.17213 12.0799 5.09166 12.1476 5.02387C12.2154 4.95608 12.2959 4.90231 12.3845 4.86563C12.473 4.82894 12.568 4.81006 12.6638 4.81006C12.7597 4.81006 12.8546 4.82894 12.9432 4.86563C13.0318 4.90231 13.1122 4.95608 13.18 5.02387C13.2478 5.09166 13.3016 5.17213 13.3383 5.2607C13.375 5.34927 13.3938 5.44419 13.3938 5.54006V10.6494C13.3938 11.0521 13.0672 11.3787 12.6638 11.3787Z" fill="#FFF8E8"/>
<path d="M12.6638 6.63462C11.8892 6.63462 11.2798 6.27995 11.0338 5.68595C10.8198 5.17062 10.7145 4.05262 12.4058 2.36196C12.4397 2.32805 12.4799 2.30115 12.5242 2.2828C12.5685 2.26445 12.6159 2.255 12.6638 2.255C12.7118 2.255 12.7592 2.26445 12.8035 2.2828C12.8477 2.30115 12.888 2.32805 12.9218 2.36196C14.6132 4.05329 14.5072 5.17062 14.2938 5.68595C14.0478 6.27995 13.4385 6.63462 12.6638 6.63462Z" fill="#FAAA35"/>
<path d="M7.55446 9.18933C7.15113 9.18933 6.82446 8.86266 6.82446 8.45933V3.35C6.82446 3.25413 6.84335 3.1592 6.88003 3.07064C6.91672 2.98207 6.97049 2.90159 7.03827 2.83381C7.10606 2.76602 7.18654 2.71225 7.2751 2.67556C7.36367 2.63888 7.4586 2.62 7.55446 2.62C7.65033 2.62 7.74525 2.63888 7.83382 2.67556C7.92239 2.71225 8.00286 2.76602 8.07065 2.83381C8.13844 2.90159 8.19221 2.98207 8.22889 3.07064C8.26558 3.1592 8.28446 3.25413 8.28446 3.35V8.45933C8.28446 8.86266 7.9578 9.18933 7.55446 9.18933Z" fill="#FFF8E8"/>
<path d="M7.55446 4.44468C6.77979 4.44468 6.17046 4.09001 5.92446 3.49601C5.71046 2.98068 5.60513 1.86268 7.29646 0.172014C7.33033 0.138109 7.37054 0.111212 7.41481 0.0928604C7.45908 0.0745091 7.50654 0.0650635 7.55446 0.0650635C7.60238 0.0650635 7.64983 0.0745091 7.6941 0.0928604C7.73837 0.111212 7.77859 0.138109 7.81246 0.172014C9.50379 1.86335 9.39779 2.98068 9.18446 3.49601C8.93846 4.09001 8.32913 4.44468 7.55446 4.44468Z" fill="#FAAA35"/>
</g>
<defs>
<clipPath id="clip0_121_2063">
<rect width="24" height="24" fill="white" transform="translate(0.663818)"/>
</clipPath>
</defs>
</svg>
