<?xml version="1.0" encoding="UTF-8"?>
<!DOCTYPE svg PUBLIC "-//W3C//DTD SVG 1.1//EN" "http://www.w3.org/Graphics/SVG/1.1/DTD/svg11.dtd">
<svg xmlns="http://www.w3.org/2000/svg" version="1.1" width="22px" height="22px" style="shape-rendering:geometricPrecision; text-rendering:geometricPrecision; image-rendering:optimizeQuality; fill-rule:evenodd; clip-rule:evenodd" xmlns:xlink="http://www.w3.org/1999/xlink">
<g><path style="opacity:0.875" fill="#f5ca41" d="M 9.5,-0.5 C 10.1667,-0.5 10.8333,-0.5 11.5,-0.5C 11.7214,0.734849 12.3881,1.73485 13.5,2.5C 11.565,3.21297 11.2317,4.21297 12.5,5.5C 11.1667,5.5 9.83333,5.5 8.5,5.5C 9.7683,4.21297 9.43497,3.21297 7.5,2.5C 8.61191,1.73485 9.27858,0.734849 9.5,-0.5 Z"/></g>
<g><path style="opacity:1" fill="#b42520" d="M 8.5,5.5 C 9.83333,5.5 11.1667,5.5 12.5,5.5C 13.7079,6.23411 15.0413,6.56745 16.5,6.5C 16.5,7.5 16.5,8.5 16.5,9.5C 16.1667,9.5 15.8333,9.5 15.5,9.5C 14.063,8.27451 12.3964,7.27451 10.5,6.5C 8.47344,7.51328 6.47344,8.51328 4.5,9.5C 4.83333,7.16667 6.16667,5.83333 8.5,5.5 Z"/></g>
<g><path style="opacity:1" fill="#dfe6eb" d="M 15.5,9.5 C 14.8333,9.5 14.1667,9.5 13.5,9.5C 7.52936,7.50807 6.19602,9.50807 9.5,15.5C 8.56552,16.5676 8.23219,17.901 8.5,19.5C 7.5,19.5 6.5,19.5 5.5,19.5C 5.5,17.1667 5.5,14.8333 5.5,12.5C 5.67158,11.5084 5.33825,10.8417 4.5,10.5C 4.5,10.1667 4.5,9.83333 4.5,9.5C 6.47344,8.51328 8.47344,7.51328 10.5,6.5C 12.3964,7.27451 14.063,8.27451 15.5,9.5 Z"/></g>
<g><path style="opacity:1" fill="#e5ecf2" d="M 13.5,9.5 C 14.1667,9.5 14.8333,9.5 15.5,9.5C 15.8333,9.5 16.1667,9.5 16.5,9.5C 16.5,9.83333 16.5,10.1667 16.5,10.5C 15.6618,10.8417 15.3284,11.5084 15.5,12.5C 15.5,14.8333 15.5,17.1667 15.5,19.5C 14.5,19.5 13.5,19.5 12.5,19.5C 12.7678,17.901 12.4345,16.5676 11.5,15.5C 12.6298,13.6854 13.2964,11.6854 13.5,9.5 Z"/></g>
<g><path style="opacity:1" fill="#7d5c44" d="M 13.5,9.5 C 13.2964,11.6854 12.6298,13.6854 11.5,15.5C 10.8333,15.5 10.1667,15.5 9.5,15.5C 6.19602,9.50807 7.52936,7.50807 13.5,9.5 Z"/></g>
<g><path style="opacity:0.996" fill="#bc3b32" d="M 4.5,10.5 C 5.33825,10.8417 5.67158,11.5084 5.5,12.5C 3.83333,13.1667 2.16667,13.8333 0.5,14.5C 0.166667,14.5 -0.166667,14.5 -0.5,14.5C -0.5,13.8333 -0.5,13.1667 -0.5,12.5C 1.3057,11.9759 2.97237,11.3092 4.5,10.5 Z"/></g>
<g><path style="opacity:1" fill="#c04136" d="M 16.5,10.5 C 18.1667,11.1667 19.8333,11.8333 21.5,12.5C 21.5,13.1667 21.5,13.8333 21.5,14.5C 19.4214,14.0293 17.4214,13.3627 15.5,12.5C 15.3284,11.5084 15.6618,10.8417 16.5,10.5 Z"/></g>
<g><path style="opacity:1" fill="#afafbc" d="M 5.5,12.5 C 5.5,14.8333 5.5,17.1667 5.5,19.5C 5.16667,19.5 4.83333,19.5 4.5,19.5C 4.5,19.1667 4.5,18.8333 4.5,18.5C 4.5,17.5 4.5,16.5 4.5,15.5C 3.5,15.5 2.5,15.5 1.5,15.5C 0.833333,15.5 0.5,15.1667 0.5,14.5C 2.16667,13.8333 3.83333,13.1667 5.5,12.5 Z"/></g>
<g><path style="opacity:1" fill="#91704f" d="M 9.5,15.5 C 10.1667,15.5 10.8333,15.5 11.5,15.5C 12.4345,16.5676 12.7678,17.901 12.5,19.5C 11.1667,19.5 9.83333,19.5 8.5,19.5C 8.23219,17.901 8.56552,16.5676 9.5,15.5 Z"/></g>
<g><path style="opacity:1" fill="#69503c" d="M 1.5,15.5 C 2.5,15.5 3.5,15.5 4.5,15.5C 4.5,16.5 4.5,17.5 4.5,18.5C 3.5,18.5 2.5,18.5 1.5,18.5C 1.5,17.5 1.5,16.5 1.5,15.5 Z"/></g>
<g><path style="opacity:1" fill="#c5c9d9" d="M -0.5,14.5 C -0.166667,14.5 0.166667,14.5 0.5,14.5C 0.5,15.1667 0.833333,15.5 1.5,15.5C 1.5,16.5 1.5,17.5 1.5,18.5C 2.5,18.5 3.5,18.5 4.5,18.5C 4.5,18.8333 4.5,19.1667 4.5,19.5C 2.83333,19.5 1.16667,19.5 -0.5,19.5C -0.5,17.8333 -0.5,16.1667 -0.5,14.5 Z"/></g>
<g><path style="opacity:1" fill="#b9bccb" d="M 15.5,12.5 C 17.4214,13.3627 19.4214,14.0293 21.5,14.5C 21.5,16.1667 21.5,17.8333 21.5,19.5C 19.5,19.5 17.5,19.5 15.5,19.5C 15.5,17.1667 15.5,14.8333 15.5,12.5 Z"/></g>
<g><path style="opacity:1" fill="#6e533c" d="M 16.5,15.5 C 17.5,15.5 18.5,15.5 19.5,15.5C 19.5,16.5 19.5,17.5 19.5,18.5C 18.5,18.5 17.5,18.5 16.5,18.5C 16.5,17.5 16.5,16.5 16.5,15.5 Z"/></g>
<g><path style="opacity:1" fill="#514d4d" d="M -0.5,19.5 C 1.16667,19.5 2.83333,19.5 4.5,19.5C 4.83333,19.5 5.16667,19.5 5.5,19.5C 6.5,19.5 7.5,19.5 8.5,19.5C 9.83333,19.5 11.1667,19.5 12.5,19.5C 13.5,19.5 14.5,19.5 15.5,19.5C 17.5,19.5 19.5,19.5 21.5,19.5C 21.5,20.1667 21.5,20.8333 21.5,21.5C 14.1667,21.5 6.83333,21.5 -0.5,21.5C -0.5,20.8333 -0.5,20.1667 -0.5,19.5 Z"/></g>
</svg>
