<?xml version="1.0" encoding="UTF-8"?>
<!DOCTYPE svg PUBLIC "-//W3C//DTD SVG 1.1//EN" "http://www.w3.org/Graphics/SVG/1.1/DTD/svg11.dtd">
<svg xmlns="http://www.w3.org/2000/svg" version="1.1" width="25px" height="24px" style="shape-rendering:geometricPrecision; text-rendering:geometricPrecision; image-rendering:optimizeQuality; fill-rule:evenodd; clip-rule:evenodd" xmlns:xlink="http://www.w3.org/1999/xlink">
<g><path style="opacity:1" fill="#efbb48" d="M 5.5,5.5 C 5.12892,9.00339 6.12892,12.0034 8.5,14.5C 6.28542,15.2679 3.95209,15.9346 1.5,16.5C 1.5,13.1667 1.5,9.83333 1.5,6.5C 2.95875,6.56745 4.29208,6.23411 5.5,5.5 Z"/></g>
<g><path style="opacity:1" fill="#5c68b4" d="M 20.5,5.5 C 20.1667,5.5 19.8333,5.5 19.5,5.5C 18.8333,5.5 18.5,5.83333 18.5,6.5C 18.628,8.65472 18.128,10.6547 17,12.5C 15.2927,14.0375 13.7927,15.7041 12.5,17.5C 11.1667,16.5 9.83333,15.5 8.5,14.5C 6.12892,12.0034 5.12892,9.00339 5.5,5.5C 5.64251,1.69531 7.64251,0.0286417 11.5,0.5C 15.5948,0.37686 18.5948,2.04353 20.5,5.5 Z"/></g>
<g><path style="opacity:1" fill="#f7f7fb" d="M 9.5,2.5 C 15.0001,1.83142 17.1667,4.16475 16,9.5C 13.3333,13.5 10.6667,13.5 8,9.5C 7.16681,6.829 7.66681,4.49566 9.5,2.5 Z"/></g>
<g><path style="opacity:1" fill="#5561b7" d="M 11.5,3.5 C 12.4805,5.39604 13.4805,7.39604 14.5,9.5C 13.3687,10.6039 12.5354,10.2705 12,8.5C 11.4646,10.2705 10.6313,10.6039 9.5,9.5C 10.7472,7.67702 11.4139,5.67702 11.5,3.5 Z"/></g>
<g><path style="opacity:1" fill="#e7b447" d="M 8.5,14.5 C 9.83333,15.5 11.1667,16.5 12.5,17.5C 12.5674,18.9587 12.2341,20.2921 11.5,21.5C 9.10163,21.2594 7.10163,21.9261 5.5,23.5C 5.16667,23.5 4.83333,23.5 4.5,23.5C 4.16667,22.1667 3.83333,22.1667 3.5,23.5C 2.83333,23.5 2.16667,23.5 1.5,23.5C 1.47581,21.1304 1.47581,18.797 1.5,16.5C 3.95209,15.9346 6.28542,15.2679 8.5,14.5 Z"/></g>
<g><path style="opacity:1" fill="#dead45" d="M 19.5,5.5 C 19.8333,5.5 20.1667,5.5 20.5,5.5C 21.5,5.5 22.5,5.5 23.5,5.5C 22.2683,8.94701 22.2683,12.1137 23.5,15C 21.879,17.9779 20.879,20.8113 20.5,23.5C 20.1667,23.5 19.8333,23.5 19.5,23.5C 19.1667,22.1667 18.8333,22.1667 18.5,23.5C 17.5,23.5 16.5,23.5 15.5,23.5C 14.3285,22.6554 12.9952,21.9887 11.5,21.5C 12.2341,20.2921 12.5674,18.9587 12.5,17.5C 13.7927,15.7041 15.2927,14.0375 17,12.5C 18.128,10.6547 18.628,8.65472 18.5,6.5C 19.1667,6.5 19.5,6.16667 19.5,5.5 Z"/></g>
</svg>
