<svg width="16" height="16" viewBox="0 0 16 16" fill="none" xmlns="http://www.w3.org/2000/svg">
<path d="M9 8C10.6497 8 12.1072 6.44656 12.25 4.53687C12.3209 3.5775 12.02 2.68281 11.4025 2.01813C10.7916 1.36156 9.9375 1 9 1C8.055 1 7.20031 1.35937 6.59375 2.01187C5.98031 2.67156 5.68125 3.56813 5.75 4.53625C5.89031 6.44625 7.3475 8 9 8ZM15.4806 13.7425C15.2169 12.2794 14.3934 11.0503 13.0997 10.1878C11.9506 9.42188 10.4947 9 9 9C7.50531 9 6.04937 9.42188 4.90031 10.1875C3.60656 11.05 2.78313 12.2791 2.51938 13.7422C2.45906 14.0775 2.54094 14.4091 2.74406 14.6519C2.83619 14.7625 2.95187 14.8512 3.08266 14.9114C3.21344 14.9717 3.35603 15.0019 3.5 15H14.5C14.6441 15.0021 14.7867 14.9719 14.9176 14.9117C15.0485 14.8515 15.1643 14.7629 15.2566 14.6522C15.4591 14.4094 15.5409 14.0778 15.4806 13.7425ZM3.25 9V7.75H4.5C4.63261 7.75 4.75979 7.69732 4.85355 7.60355C4.94732 7.50979 5 7.38261 5 7.25C5 7.11739 4.94732 6.99021 4.85355 6.89645C4.75979 6.80268 4.63261 6.75 4.5 6.75H3.25V5.5C3.25 5.36739 3.19732 5.24021 3.10355 5.14645C3.00979 5.05268 2.88261 5 2.75 5C2.61739 5 2.49021 5.05268 2.39645 5.14645C2.30268 5.24021 2.25 5.36739 2.25 5.5V6.75H1C0.867392 6.75 0.740215 6.80268 0.646447 6.89645C0.552678 6.99021 0.5 7.11739 0.5 7.25C0.5 7.38261 0.552678 7.50979 0.646447 7.60355C0.740215 7.69732 0.867392 7.75 1 7.75H2.25V9C2.25 9.13261 2.30268 9.25979 2.39645 9.35355C2.49021 9.44732 2.61739 9.5 2.75 9.5C2.88261 9.5 3.00979 9.44732 3.10355 9.35355C3.19732 9.25979 3.25 9.13261 3.25 9Z" fill="#84FF57"/>
</svg>
