<svg width="18" height="18" viewBox="0 0 18 18" fill="none" xmlns="http://www.w3.org/2000/svg">
<path d="M1 2.77778C1 2.30628 1.16857 1.8541 1.46863 1.5207C1.76869 1.1873 2.17565 1 2.6 1H7.4V17H2.6C2.17565 17 1.76869 16.8127 1.46863 16.4793C1.16857 16.1459 1 15.6937 1 15.2222V2.77778ZM10.6 1H15.4C15.8243 1 16.2313 1.1873 16.5314 1.5207C16.8314 1.8541 17 2.30628 17 2.77778V7.22222H10.6V1ZM10.6 10.7778H17V15.2222C17 15.6937 16.8314 16.1459 16.5314 16.4793C16.2313 16.8127 15.8243 17 15.4 17H10.6V10.7778Z" stroke="white" stroke-width="2" stroke-linecap="round" stroke-linejoin="round"/>
</svg>
