<svg width="19" height="19" viewBox="0 0 19 19" fill="none" xmlns="http://www.w3.org/2000/svg">
<path d="M6.7861 7.78419C6.75562 7.34686 6.47029 7.00667 6.03638 6.94267C5.64362 6.88476 5.04667 6.83333 4.16667 6.83333C3.28667 6.83333 2.68971 6.88476 2.29695 6.94267C1.86267 7.00667 1.57771 7.34648 1.54724 7.78419C1.52171 8.15295 1.5 8.7019 1.5 9.5C1.5 10.2981 1.52171 10.847 1.54724 11.2158C1.57771 11.6531 1.86305 11.9933 2.29695 12.0573C2.68971 12.1152 3.28667 12.1667 4.16667 12.1667C5.04667 12.1667 5.64362 12.1152 6.03638 12.0573C6.47067 11.9933 6.75562 11.6535 6.7861 11.2158C6.81162 10.847 6.83333 10.2981 6.83333 9.5C6.83333 8.7019 6.81162 8.15295 6.7861 7.78419ZM12.2139 2.45086C12.2444 2.01314 12.5297 1.67333 12.9636 1.60933C13.3564 1.55143 13.9533 1.5 14.8333 1.5C15.7133 1.5 16.3103 1.55143 16.703 1.60933C17.1373 1.67333 17.4223 2.01314 17.4528 2.45086C17.4783 2.81962 17.5 3.36857 17.5 4.16667C17.5 4.96476 17.4783 5.51371 17.4528 5.88248C17.4223 6.32019 17.137 6.66 16.703 6.724C16.3103 6.7819 15.7133 6.83333 14.8333 6.83333C13.9533 6.83333 13.3564 6.7819 12.9636 6.724C12.5293 6.66 12.2444 6.32019 12.2139 5.88248C12.1884 5.51371 12.1667 4.96476 12.1667 4.16667C12.1667 3.36857 12.1884 2.81962 12.2139 2.45086ZM12.2139 16.5491C12.2444 16.9869 12.5297 17.3267 12.9636 17.3907C13.3564 17.4486 13.9533 17.5 14.8333 17.5C15.7133 17.5 16.3103 17.4486 16.703 17.3907C17.1373 17.3267 17.4223 16.9869 17.4528 16.5491C17.4783 16.1804 17.5 15.6314 17.5 14.8333C17.5 14.0352 17.4783 13.4863 17.4528 13.1175C17.4223 12.6798 17.137 12.34 16.703 12.276C16.3103 12.2181 15.7133 12.1667 14.8333 12.1667C13.9533 12.1667 13.3564 12.2181 12.9636 12.276C12.5293 12.34 12.2444 12.6798 12.2139 13.1175C12.1884 13.4863 12.1667 14.0352 12.1667 14.8333C12.1667 15.6314 12.1884 16.1804 12.2139 16.5491Z" fill="#8FBFFA"/>
<path d="M12.1918 13.5126L6.80819 10.8208M12.1918 5.48743L6.80819 8.17924M6.7861 7.78419C6.75562 7.34686 6.47029 7.00667 6.03638 6.94267C5.64362 6.88476 5.04667 6.83333 4.16667 6.83333C3.28667 6.83333 2.68971 6.88476 2.29695 6.94267C1.86267 7.00667 1.57771 7.34648 1.54724 7.78419C1.52171 8.15295 1.5 8.7019 1.5 9.5C1.5 10.2981 1.52171 10.847 1.54724 11.2158C1.57771 11.6531 1.86305 11.9933 2.29695 12.0573C2.68971 12.1152 3.28667 12.1667 4.16667 12.1667C5.04667 12.1667 5.64362 12.1152 6.03638 12.0573C6.47067 11.9933 6.75562 11.6535 6.7861 11.2158C6.81162 10.847 6.83333 10.2981 6.83333 9.5C6.83333 8.7019 6.81162 8.15295 6.7861 7.78419ZM12.2139 2.45086C12.2444 2.01314 12.5297 1.67333 12.9636 1.60933C13.3564 1.55143 13.9533 1.5 14.8333 1.5C15.7133 1.5 16.3103 1.55143 16.703 1.60933C17.1373 1.67333 17.4223 2.01314 17.4528 2.45086C17.4783 2.81962 17.5 3.36857 17.5 4.16667C17.5 4.96476 17.4783 5.51371 17.4528 5.88248C17.4223 6.32019 17.137 6.66 16.703 6.724C16.3103 6.7819 15.7133 6.83333 14.8333 6.83333C13.9533 6.83333 13.3564 6.7819 12.9636 6.724C12.5293 6.66 12.2444 6.32019 12.2139 5.88248C12.1884 5.51371 12.1667 4.96476 12.1667 4.16667C12.1667 3.36857 12.1884 2.81962 12.2139 2.45086ZM12.2139 16.5491C12.2444 16.9869 12.5297 17.3267 12.9636 17.3907C13.3564 17.4486 13.9533 17.5 14.8333 17.5C15.7133 17.5 16.3103 17.4486 16.703 17.3907C17.1373 17.3267 17.4223 16.9869 17.4528 16.5491C17.4783 16.1804 17.5 15.6314 17.5 14.8333C17.5 14.0352 17.4783 13.4863 17.4528 13.1175C17.4223 12.6798 17.137 12.34 16.703 12.276C16.3103 12.2181 15.7133 12.1667 14.8333 12.1667C13.9533 12.1667 13.3564 12.2181 12.9636 12.276C12.5293 12.34 12.2444 12.6798 12.2139 13.1175C12.1884 13.4863 12.1667 14.0352 12.1667 14.8333C12.1667 15.6314 12.1884 16.1804 12.2139 16.5491Z" stroke="#2859C5" stroke-width="1.5" stroke-linecap="round" stroke-linejoin="round"/>
</svg>
