<svg width="14" height="14" viewBox="0 0 14 14" fill="none" xmlns="http://www.w3.org/2000/svg">
<path d="M10.5 14C11.4283 14 12.3185 13.6313 12.9749 12.9749C13.6313 12.3185 14 11.4283 14 10.5C14 9.57174 13.6313 8.6815 12.9749 8.02513C12.3185 7.36875 11.4283 7 10.5 7C9.57174 7 8.6815 7.36875 8.02513 8.02513C7.36875 8.6815 7 9.57174 7 10.5C7 11.4283 7.36875 12.3185 8.02513 12.9749C8.6815 13.6313 9.57174 14 10.5 14ZM9 10H12C12.1326 10 12.2598 10.0527 12.3536 10.1464C12.4473 10.2402 12.5 10.3674 12.5 10.5C12.5 10.6326 12.4473 10.7598 12.3536 10.8536C12.2598 10.9473 12.1326 11 12 11H9C8.86739 11 8.74021 10.9473 8.64645 10.8536C8.55268 10.7598 8.5 10.6326 8.5 10.5C8.5 10.3674 8.55268 10.2402 8.64645 10.1464C8.74021 10.0527 8.86739 10 9 10ZM9 3C9 3.79565 8.68393 4.55871 8.12132 5.12132C7.55871 5.68393 6.79565 6 6 6C5.20435 6 4.44129 5.68393 3.87868 5.12132C3.31607 4.55871 3 3.79565 3 3C3 2.20435 3.31607 1.44129 3.87868 0.87868C4.44129 0.316071 5.20435 0 6 0C6.79565 0 7.55871 0.316071 8.12132 0.87868C8.68393 1.44129 9 2.20435 9 3ZM6 5C6.53043 5 7.03914 4.78929 7.41421 4.41421C7.78929 4.03914 8 3.53043 8 3C8 2.46957 7.78929 1.96086 7.41421 1.58579C7.03914 1.21071 6.53043 1 6 1C5.46957 1 4.96086 1.21071 4.58579 1.58579C4.21071 1.96086 4 2.46957 4 3C4 3.53043 4.21071 4.03914 4.58579 4.41421C4.96086 4.78929 5.46957 5 6 5Z" fill="#FF0000"/>
<path d="M6.256 12C6.1415 11.6752 6.06466 11.3383 6.027 10.996H1C1.001 10.75 1.154 10.01 1.832 9.332C2.484 8.68 3.711 8 6 8C6.26 8 6.50667 8.00833 6.74 8.025C6.966 7.684 7.236 7.375 7.544 7.107C7.07733 7.037 6.56267 7.00133 6 7C1 7 0 10 0 11C0 12 1 12 1 12H6.256Z" fill="#FF0000"/>
</svg>
