<svg width="18" height="18" viewBox="0 0 18 18" fill="none" xmlns="http://www.w3.org/2000/svg">
<g clip-path="url(#clip0_442_1411)">
<path d="M8.19995 7.7002H9.79995V10.3002H8.19995V7.7002Z" fill="white"/>
<path d="M10.5 10.5C10.5 10.6326 10.4473 10.7598 10.3536 10.8536C10.2598 10.9473 10.1326 11 10 11H8C7.86739 11 7.74021 10.9473 7.64645 10.8536C7.55268 10.7598 7.5 10.6326 7.5 10.5V9.5H1V14C1 14.2652 1.10536 14.5196 1.29289 14.7071C1.48043 14.8946 1.73478 15 2 15H16C16.2652 15 16.5196 14.8946 16.7071 14.7071C16.8946 14.5196 17 14.2652 17 14V9.5H10.5V10.5Z" fill="white"/>
<path d="M16.855 6.19L14.81 4.145C14.7169 4.05263 14.5912 4.00055 14.46 4H11.96V3.025C11.9668 2.76228 11.8699 2.50745 11.6902 2.31563C11.5106 2.12381 11.2626 2.01043 11 2H6.92001C6.79168 2.00505 6.66567 2.0358 6.54944 2.09042C6.4332 2.14505 6.32911 2.22244 6.24333 2.31801C6.15754 2.41359 6.09181 2.52541 6.05001 2.64685C6.00822 2.76828 5.99121 2.89687 6.00001 3.025V4H3.54001C3.4742 3.99962 3.40897 4.01223 3.34806 4.03711C3.28714 4.062 3.23173 4.09866 3.18501 4.145L1.14501 6.19C1.09867 6.23672 1.06201 6.29213 1.03712 6.35305C1.01224 6.41397 0.999628 6.4792 1.00001 6.545V8.5H7.50001V7.5C7.50001 7.36739 7.55269 7.24021 7.64646 7.14645C7.74022 7.05268 7.8674 7 8.00001 7H10C10.1326 7 10.2598 7.05268 10.3536 7.14645C10.4473 7.24021 10.5 7.36739 10.5 7.5V8.5H17V6.54C16.9995 6.40883 16.9474 6.28313 16.855 6.19ZM11 4H7.00001V3H11V4Z" fill="white"/>
</g>
<defs>
<clipPath id="clip0_442_1411">
<rect width="18" height="18" fill="white"/>
</clipPath>
</defs>
</svg>
