<svg width="16" height="16" viewBox="0 0 16 16" fill="none" xmlns="http://www.w3.org/2000/svg">
<g clip-path="url(#clip0_448_1387)">
<path d="M1.13967 13.3148C1.209 14.1652 1.86933 14.8048 2.72033 14.8638C3.7 14.9318 5.21233 14.9998 7.33333 14.9998C9.45433 14.9998 10.9667 14.9318 11.9463 14.8638C12.7973 14.8052 13.4577 14.1652 13.527 13.3148C13.5987 12.4365 13.6667 11.1288 13.6667 9.33317C13.6667 7.5375 13.5987 6.22984 13.527 5.3515C13.4577 4.50117 12.7973 3.8615 11.9463 3.8025C10.9663 3.7345 9.45433 3.6665 7.33333 3.6665C5.21233 3.6665 3.7 3.7345 2.72 3.8025C1.86933 3.86117 1.209 4.50117 1.13967 5.3515C1.068 6.2295 1 7.5375 1 9.33317C1 11.1288 1.068 12.4365 1.13967 13.3148Z" fill="#8FBFFA"/>
<path d="M2.38672 3.85734C4.38172 2.81667 6.93005 1.85567 9.30605 1.27067C9.99705 1.10067 10.7111 1.35667 11.0704 1.97067C11.3281 2.41067 11.6427 3.01467 11.9751 3.80467L11.9464 3.80267C10.9664 3.73467 9.45439 3.66667 7.33305 3.66667C5.21239 3.66667 3.70005 3.73467 2.72039 3.80267C2.60781 3.81041 2.49587 3.82871 2.38672 3.85734ZM9.68805 10.3743C9.71972 11.0843 10.2671 11.6133 10.9767 11.6417C11.3384 11.6563 11.7881 11.6667 12.3334 11.6667C12.8787 11.6667 13.3284 11.6563 13.6901 11.6417C14.4001 11.6133 14.9471 11.0843 14.9787 10.3743C14.9914 10.0853 15.0001 9.73967 15.0001 9.33334C15.0001 8.92701 14.9914 8.58134 14.9787 8.29234C14.9471 7.58234 14.3997 7.05334 13.6901 7.02501C13.238 7.00765 12.7857 6.99931 12.3334 7.00001C11.7881 7.00001 11.3384 7.01034 10.9767 7.02501C10.2667 7.05334 9.71972 7.58234 9.68805 8.29234C9.67331 8.63914 9.6662 8.98622 9.66672 9.33334C9.66672 9.74001 9.67539 10.0853 9.68805 10.3743Z" fill="white"/>
<path d="M2.4231 3.83837C4.41276 2.80504 6.94443 1.85171 9.30643 1.27071C9.99743 1.10071 10.7114 1.35637 11.0708 1.97037C11.3274 2.40904 11.6408 3.01037 11.9721 3.79637M9.6881 10.3744C9.71976 11.0844 10.2671 11.6134 10.9768 11.6417C11.3384 11.6564 11.7881 11.6667 12.3334 11.6667C12.8788 11.6667 13.3284 11.6564 13.6901 11.6417C14.4001 11.6134 14.9471 11.0844 14.9788 10.3744C14.9914 10.0854 15.0001 9.73971 15.0001 9.33337C15.0001 8.92704 14.9914 8.58137 14.9788 8.29237C14.9471 7.58237 14.3998 7.05337 13.6901 7.02504C13.2381 7.00768 12.7858 6.99935 12.3334 7.00004C11.7881 7.00004 11.3384 7.01037 10.9768 7.02504C10.2668 7.05337 9.71976 7.58237 9.6881 8.29237C9.67335 8.63918 9.66624 8.98626 9.66676 9.33337C9.66676 9.74004 9.67543 10.0854 9.6881 10.3744Z" stroke="#2859C5" stroke-width="1.5" stroke-linecap="round" stroke-linejoin="round"/>
<path d="M13.6247 7.02217C13.6039 6.46466 13.5713 5.90764 13.527 5.3515C13.4577 4.50117 12.7973 3.8615 11.9463 3.8025C10.9663 3.7345 9.45433 3.6665 7.33333 3.6665C5.21233 3.6665 3.7 3.7345 2.72 3.8025C1.86933 3.86117 1.209 4.50117 1.13967 5.3515C1.068 6.2295 1 7.5375 1 9.33317C1 11.1288 1.068 12.4365 1.13967 13.3148C1.209 14.1652 1.86933 14.8048 2.72033 14.8638C3.7 14.9318 5.21233 14.9998 7.33333 14.9998C9.45433 14.9998 10.9667 14.9318 11.9463 14.8638C12.7973 14.8052 13.4577 14.1652 13.527 13.3148C13.5633 12.8705 13.5987 12.3162 13.6247 11.6442M12 8.99984V9.6665" stroke="#2859C5" stroke-width="1.5" stroke-linecap="round" stroke-linejoin="round"/>
</g>
<defs>
<clipPath id="clip0_448_1387">
<rect width="16" height="16" fill="white"/>
</clipPath>
</defs>
</svg>
