<svg width="16" height="16" viewBox="0 0 16 16" fill="none" xmlns="http://www.w3.org/2000/svg">
<path d="M4.21053 8.18897V4.61942C4.21053 4.26947 4.33347 3.97214 4.57937 3.72745C4.82526 3.48276 5.12337 3.36014 5.47368 3.35958C5.824 3.35902 6.12238 3.48164 6.36884 3.72745C6.6153 3.97326 6.73796 4.27059 6.73684 4.61942V8.18897C6.73684 8.53893 6.61417 8.83653 6.36884 9.08178C6.12351 9.32703 5.82512 9.44937 5.47368 9.44881C5.12224 9.44825 4.82414 9.32591 4.57937 9.08178C4.3346 8.83765 4.21165 8.54005 4.21053 8.18897ZM8.42105 8V1.25984C8.42105 0.909888 8.544 0.612565 8.78989 0.367876C9.03579 0.123186 9.33389 0.000561838 9.68421 1.90885e-06C10.0345 -0.000558021 10.3329 0.122067 10.5794 0.367876C10.8258 0.613685 10.9485 0.911007 10.9474 1.25984V8C10.9474 8.41994 10.8177 8.7349 10.5583 8.94488C10.2989 9.15485 10.0076 9.25984 9.68421 9.25984C9.36084 9.25984 9.06975 9.15485 8.81095 8.94488C8.55214 8.7349 8.42217 8.41994 8.42105 8ZM0 10.8976V7.979C0 7.62904 0.122947 7.33172 0.368842 7.08703C0.614737 6.84234 0.912842 6.71972 1.26316 6.71916C1.61347 6.7186 1.91186 6.84122 2.15832 7.08703C2.40477 7.33284 2.52744 7.63016 2.52632 7.979V10.8976C2.52632 11.3176 2.39663 11.6325 2.13726 11.8425C1.87789 12.0525 1.58653 12.1575 1.26316 12.1575C0.939789 12.1575 0.648702 12.0525 0.389895 11.8425C0.131088 11.6325 0.00112281 11.3176 0 10.8976ZM2.02105 16C1.65614 16 1.39986 15.8287 1.25221 15.486C1.10456 15.1433 1.16435 14.8387 1.43158 14.5722L4.88421 11.1286C5.0386 10.9746 5.2247 10.8906 5.44253 10.8766C5.66035 10.8626 5.85319 10.9326 6.02105 11.0866L8.42105 13.1443L13.1368 8.44094H12.6316C12.393 8.44094 12.1931 8.36031 12.032 8.19905C11.8709 8.03779 11.79 7.83846 11.7895 7.60105C11.7889 7.36364 11.8698 7.1643 12.032 7.00304C12.1942 6.84178 12.3941 6.76115 12.6316 6.76115H15.1579C15.3965 6.76115 15.5966 6.84178 15.7583 7.00304C15.92 7.1643 16.0006 7.36364 16 7.60105V10.1207C16 10.3587 15.9192 10.5583 15.7575 10.7196C15.5958 10.8808 15.3959 10.9612 15.1579 10.9606C14.9199 10.9601 14.72 10.8794 14.5583 10.7187C14.3966 10.558 14.3158 10.3587 14.3158 10.1207V9.61679L9.05263 14.8661C8.89824 15.0201 8.71214 15.1041 8.49431 15.1181C8.27649 15.1321 8.08365 15.0621 7.91579 14.9081L5.51579 12.8504L2.61053 15.748C2.54035 15.818 2.45277 15.8776 2.34779 15.9269C2.24281 15.9762 2.13389 16.0006 2.02105 16Z" fill="white"/>
</svg>
