<svg width="16" height="16" viewBox="0 0 16 16" fill="none" xmlns="http://www.w3.org/2000/svg">
<g clip-path="url(#clip0_297_1449)">
<path d="M0.474976 7.9998C0.474976 11.2748 2.57498 14.0498 5.47498 15.0748V0.924805C2.57498 1.9498 0.474976 4.7248 0.474976 7.9998Z" fill="#428BC1"/>
<path d="M15.475 7.9998C15.475 4.7248 13.4 1.9498 10.475 0.924805V15.0748C13.4 14.0498 15.475 11.2748 15.475 7.9998Z" fill="#ED4C5C"/>
<path d="M5.47498 15.075C6.24998 15.35 7.09998 15.5 7.97498 15.5C8.84998 15.5 9.69998 15.35 10.475 15.075V0.925C9.69998 0.65 8.87498 0.5 7.97498 0.5C7.07498 0.5 6.24998 0.65 5.47498 0.925V15.075Z" fill="white"/>
</g>
<defs>
<clipPath id="clip0_297_1449">
<rect width="16" height="16" fill="white"/>
</clipPath>
</defs>
</svg>
