<svg width="16" height="16" viewBox="0 0 16 16" fill="none" xmlns="http://www.w3.org/2000/svg">
<g clip-path="url(#clip0_458_1368)">
<path d="M1.39635 7.39094C1.36248 7.0014 1.66953 6.6665 2.06051 6.6665H3.33336C3.70156 6.6665 4.00003 6.96497 4.00003 7.33317V13.6665C4.00003 14.0347 3.70156 14.3332 3.33336 14.3332H2.61124C2.26544 14.3332 1.97703 14.0688 1.94708 13.7243L1.39635 7.39094Z" fill="#2F88FF" stroke="black" stroke-width="2" stroke-linecap="round" stroke-linejoin="round"/>
<path d="M6 7.12467C6 6.8461 6.17313 6.59677 6.4251 6.478C6.9746 6.21897 7.91097 5.69777 8.33333 4.99334C8.8777 4.08547 8.98037 2.44515 8.99707 2.06943C8.9994 2.01683 8.9979 1.96417 9.00513 1.91202C9.09537 1.26132 10.3514 2.02148 10.8333 2.82521C11.0949 3.26141 11.1284 3.8345 11.1009 4.28194C11.0715 4.76067 10.9311 5.22314 10.7934 5.6826L10.5 6.66134H14.119C14.5611 6.66134 14.8807 7.08377 14.7605 7.5092L12.9704 13.8477C12.8893 14.1349 12.6273 14.3332 12.3289 14.3332H6.66667C6.29847 14.3332 6 14.0347 6 13.6665V7.12467Z" fill="#2F88FF" stroke="black" stroke-width="2" stroke-linecap="round" stroke-linejoin="round"/>
</g>
<defs>
<clipPath id="clip0_458_1368">
<rect width="16" height="16" fill="white"/>
</clipPath>
</defs>
</svg>
