<svg width="16" height="16" viewBox="0 0 16 16" fill="none" xmlns="http://www.w3.org/2000/svg">
<path fill-rule="evenodd" clip-rule="evenodd" d="M7.33337 1.3335C6.44932 1.3335 5.60147 1.68469 4.97635 2.30981C4.35123 2.93493 4.00004 3.78277 4.00004 4.66683C4.00004 5.55088 4.35123 6.39873 4.97635 7.02385C5.60147 7.64897 6.44932 8.00016 7.33337 8.00016C8.21743 8.00016 9.06528 7.64897 9.6904 7.02385C10.3155 6.39873 10.6667 5.55088 10.6667 4.66683C10.6667 3.78277 10.3155 2.93493 9.6904 2.30981C9.06528 1.68469 8.21743 1.3335 7.33337 1.3335ZM7.33337 8.66683C5.73671 8.66683 4.28337 9.1295 3.21471 9.7815C2.68137 10.1068 2.22537 10.4908 1.89604 10.9082C1.57204 11.3175 1.33337 11.8088 1.33337 12.3335C1.33337 12.8968 1.60737 13.3408 2.00204 13.6575C2.37537 13.9575 2.86804 14.1562 3.39137 14.2948C4.44337 14.5728 5.84737 14.6668 7.33337 14.6668C7.48715 14.6668 7.63937 14.6657 7.79004 14.6635C7.90169 14.662 8.01117 14.6324 8.10843 14.5775C8.20568 14.5227 8.2876 14.4443 8.34666 14.3495C8.40572 14.2547 8.44004 14.1467 8.44645 14.0352C8.45287 13.9237 8.43118 13.8124 8.38337 13.7115C8.13058 13.1764 7.99965 12.5919 8.00004 12.0002C8.00004 11.1655 8.25537 10.3922 8.69137 9.7515C8.75618 9.65629 8.79522 9.54592 8.80468 9.43114C8.81414 9.31635 8.79371 9.20108 8.74537 9.09654C8.69703 8.99201 8.62243 8.90178 8.52885 8.83465C8.43527 8.76752 8.32589 8.72578 8.21137 8.7135C7.92426 8.68238 7.6316 8.66683 7.33337 8.66683ZM11.0574 10.1148C10.9316 9.99339 10.7632 9.92619 10.5884 9.92771C10.4136 9.92923 10.2464 9.99934 10.1228 10.1229C9.99922 10.2466 9.92911 10.4138 9.92759 10.5886C9.92607 10.7634 9.99327 10.9318 10.1147 11.0575L11.0574 12.0002L10.1147 12.9428C10.051 13.0043 10.0002 13.0779 9.96531 13.1592C9.93037 13.2406 9.91198 13.328 9.91121 13.4166C9.91044 13.5051 9.92731 13.5929 9.96083 13.6748C9.99435 13.7567 10.0438 13.8312 10.1064 13.8938C10.169 13.9564 10.2435 14.0059 10.3254 14.0394C10.4073 14.0729 10.4951 14.0898 10.5836 14.089C10.6722 14.0882 10.7596 14.0698 10.841 14.0349C10.9223 14 10.9959 13.9492 11.0574 13.8855L12 12.9428L12.9427 13.8855C13.0042 13.9492 13.0778 14 13.1591 14.0349C13.2404 14.0698 13.3279 14.0882 13.4164 14.089C13.505 14.0898 13.5927 14.0729 13.6747 14.0394C13.7566 14.0059 13.831 13.9564 13.8936 13.8938C13.9562 13.8312 14.0057 13.7567 14.0393 13.6748C14.0728 13.5929 14.0896 13.5051 14.0889 13.4166C14.0881 13.328 14.0697 13.2406 14.0348 13.1592C13.9998 13.0779 13.949 13.0043 13.8854 12.9428L12.9427 12.0002L13.8854 11.0575C14.0068 10.9318 14.074 10.7634 14.0725 10.5886C14.071 10.4138 14.0009 10.2466 13.8773 10.1229C13.7536 9.99934 13.5864 9.92923 13.4116 9.92771C13.2368 9.92619 13.0684 9.99339 12.9427 10.1148L12 11.0575L11.0574 10.1148Z" fill="#FF4040"/>
</svg>
