<svg width="27" height="26" viewBox="0 0 27 26" fill="none" xmlns="http://www.w3.org/2000/svg">
<g style="mix-blend-mode:darken">
<rect x="0.288574" width="26" height="26" fill="#D9D9D9"/>
</g>
<path d="M13.1346 13C16.1685 13 18.628 10.5748 18.628 7.58329C18.628 4.59175 16.1685 2.16663 13.1346 2.16663C10.1006 2.16663 7.64111 4.59175 7.64111 7.58329C7.64111 10.5748 10.1006 13 13.1346 13Z" stroke="#20AEF3" stroke-width="1.5"/>
<path d="M23.7886 14.5L18.2886 20.5M18.2886 14.5L24.2886 20.5M18.6285 23.8333H5.73643C5.42482 23.8333 5.11677 23.768 4.8327 23.6417C4.54864 23.5154 4.29506 23.331 4.08881 23.1007C3.88256 22.8704 3.72834 22.5994 3.6364 22.3059C3.54446 22.0123 3.51689 21.7028 3.55553 21.3979L3.98402 18.0136C4.08367 17.2273 4.4712 16.504 5.07374 15.9798C5.67628 15.4555 6.45231 15.1663 7.25592 15.1666H7.64156L18.6285 23.8333Z" stroke="#20AEF3" stroke-width="1.5" stroke-linecap="round" stroke-linejoin="round"/>
</svg>
