<svg width="16" height="16" viewBox="0 0 16 16" fill="none" xmlns="http://www.w3.org/2000/svg">
<path d="M3.93537 0.942047C4.88087 0.635047 7.56237 1.7233 7.90587 2.1148C8.24712 2.5043 6.01937 2.6653 4.80987 2.84455C3.56187 3.0323 2.31712 3.25655 1.97687 2.8638C1.63687 2.47655 2.99112 1.25105 3.93537 0.942047Z" fill="#F79423"/>
<path d="M10.4429 0.259348C11.5234 -0.0561518 14.4209 1.24135 14.7709 1.68335C15.1174 2.13085 12.6259 2.24235 11.2659 2.4066C9.8582 2.5751 8.4482 2.7866 8.10145 2.3411C7.75245 1.8991 9.3662 0.571598 10.4437 0.259348" fill="#F79423"/>
<path d="M4.10087 2.05152C4.75012 1.62452 7.54437 2.06127 8.01537 2.32952C8.49087 2.59552 6.68912 3.13427 5.75287 3.50227C4.79012 3.88302 3.84687 4.30052 3.37262 4.02802C2.89537 3.76302 3.45437 2.48277 4.10137 2.05152" fill="#F79423"/>
<path d="M6.72042 0.0224162C7.66567 0.107166 8.66042 1.76067 8.56817 2.15242C8.47917 2.54192 6.73117 1.93992 5.70192 1.67717C4.64192 1.40767 3.54842 1.16942 3.64292 0.779916C3.73417 0.386166 5.77292 -0.0613338 6.72042 0.0224162Z" fill="#F79423"/>
<path d="M9.95796 1.87121C10.9067 1.95271 11.9005 3.60746 11.808 3.99796C11.7157 4.38971 9.96871 3.78646 8.93946 3.52471C7.88246 3.25646 6.78571 3.01496 6.88021 2.62446C6.96971 2.23396 9.01271 1.78871 9.95796 1.87196" fill="#F79423"/>
<path d="M1.17798 12.9089C1.17798 15.2666 4.54748 15.9534 8.15198 15.9534C11.7562 15.9534 15.127 15.2666 15.127 12.9089C15.127 10.5556 11.7565 3.52588 8.15198 3.52588C4.54748 3.52588 1.17798 10.5559 1.17798 12.9089Z" fill="#F79423"/>
<path d="M10.3153 3.8156C10.3153 3.93285 10.2922 4.04895 10.2474 4.15728C10.2025 4.26561 10.1368 4.36404 10.0539 4.44694C9.97096 4.52985 9.87253 4.59561 9.7642 4.64046C9.65588 4.68532 9.53977 4.70838 9.42252 4.70835H6.88128C6.6445 4.70835 6.41743 4.61429 6.25001 4.44687C6.08258 4.27945 5.98853 4.05237 5.98853 3.8156C5.98853 3.57883 6.08258 3.35176 6.25001 3.18433C6.41743 3.01691 6.6445 2.92285 6.88128 2.92285H9.42228C9.53954 2.92279 9.65567 2.94583 9.76403 2.99067C9.87239 3.03551 9.97085 3.10126 10.0538 3.18417C10.1367 3.26708 10.2025 3.36552 10.2474 3.47386C10.2922 3.58221 10.3153 3.69833 10.3153 3.8156Z" fill="#845939"/>
<path d="M9.79711 10.2415C9.52036 9.94623 9.13836 9.74873 8.77561 9.58473C8.39786 9.41273 7.85061 9.27248 7.61011 8.90223C7.40836 8.59223 7.68636 8.26698 7.96961 8.17248C8.42561 8.01923 8.98811 8.20373 9.38836 8.42898C9.58786 8.54048 9.79836 8.43123 9.87436 8.23148C9.95836 8.01031 10.0417 7.78931 10.1244 7.56848C10.1749 7.43423 10.0934 7.26248 9.97336 7.19498C9.60961 6.99323 9.23061 6.88273 8.83036 6.83023V6.15423C8.83036 5.97398 8.68011 5.82373 8.49986 5.82373H7.87636C7.69711 5.82373 7.54586 5.97398 7.54586 6.15423V6.90923C6.92886 7.08723 6.36661 7.48448 6.14761 8.11548C5.90411 8.81398 6.05211 9.53723 6.57036 10.0662C6.84836 10.3507 7.22386 10.5375 7.58036 10.6992C7.98261 10.8807 8.47736 11.0115 8.73711 11.399C9.01511 11.8132 8.65561 12.222 8.26711 12.3392C7.74561 12.4957 7.11361 12.261 6.67561 11.9882C6.48361 11.8682 6.26036 11.9915 6.19061 12.1857L5.94911 12.8585C5.89761 13.0022 5.98336 13.1547 6.10136 13.2317C6.51461 13.5022 6.98886 13.6362 7.47486 13.6922V14.4037C7.47486 14.5005 7.51036 14.5745 7.56286 14.627C7.5662 14.6303 7.56903 14.6336 7.57136 14.6367C7.57436 14.6398 7.57762 14.6427 7.58111 14.6452C7.63361 14.699 7.70761 14.7342 7.80436 14.7342H8.43861C8.52593 14.7334 8.60943 14.6983 8.67109 14.6365C8.73274 14.5747 8.76759 14.4911 8.76811 14.4037V13.6182C9.45386 13.4207 9.98386 12.9777 10.2511 12.2897C10.5251 11.588 10.2921 10.7712 9.79536 10.2412" fill="#25333A"/>
<path d="M9.79711 9.78515C9.52036 9.49115 9.13836 9.29365 8.77561 9.12965C8.39786 8.95765 7.85061 8.8174 7.61011 8.44615C7.40836 8.13815 7.68636 7.8119 7.96961 7.7164C8.42561 7.56415 8.98811 7.74765 9.38836 7.9729C9.58786 8.08565 9.79836 7.9749 9.87436 7.7754C9.95836 7.55474 10.0417 7.33407 10.1244 7.1134C10.1749 6.97815 10.0934 6.8064 9.97336 6.7399C9.60961 6.53715 9.23061 6.42765 8.83036 6.37415V5.69815C8.83036 5.5189 8.68011 5.36865 8.49986 5.36865H7.87636C7.69711 5.36865 7.54586 5.5189 7.54586 5.69815V6.45315C6.92886 6.6314 6.36661 7.0294 6.14761 7.6604C5.90411 8.3589 6.05211 9.08215 6.57036 9.61015C6.84836 9.89465 7.22386 10.0824 7.58036 10.2432C7.98261 10.4247 8.47736 10.5554 8.73711 10.9429C9.01511 11.3569 8.65561 11.7659 8.26711 11.8839C7.74561 12.0407 7.11361 11.8059 6.67561 11.5322C6.48361 11.4129 6.26036 11.5364 6.19061 11.7297L5.94911 12.4034C5.89761 12.5459 5.98336 12.6997 6.10136 12.7767C6.51461 13.0462 6.98886 13.1812 7.47486 13.2372V13.9487C7.47486 14.0442 7.51036 14.1184 7.56286 14.1719C7.5662 14.1752 7.56903 14.1785 7.57136 14.1817C7.57485 14.1842 7.57811 14.187 7.58111 14.1902C7.63361 14.2427 7.70761 14.2782 7.80436 14.2782H8.43861C8.52572 14.2774 8.60903 14.2424 8.67065 14.1809C8.73227 14.1193 8.76726 14.036 8.76811 13.9489V13.1624C9.45386 12.9652 9.98386 12.5229 10.2511 11.8342C10.5251 11.1327 10.2921 10.3149 9.79536 9.7849" fill="#25333A"/>
</svg>
