<svg width="16" height="16" viewBox="0 0 16 16" fill="none" xmlns="http://www.w3.org/2000/svg">
<g clip-path="url(#clip0_286_1372)">
<path fill-rule="evenodd" clip-rule="evenodd" d="M7.42857 0.571289C6.97392 0.571289 6.53788 0.751901 6.21639 1.07339C5.8949 1.39488 5.71429 1.83092 5.71429 2.28557V3.42843C5.71402 3.83374 5.85738 4.22604 6.1189 4.53569C6.38043 4.84534 6.74321 5.05231 7.14286 5.11986V7.14272H3.42857C2.89814 7.14272 2.38943 7.35343 2.01436 7.7285C1.63929 8.10358 1.42857 8.61228 1.42857 9.14272V10.8799C1.02893 10.9474 0.666145 11.1544 0.404617 11.464C0.14309 11.7737 -0.000264438 12.166 3.66205e-07 12.5713V13.7141C3.66205e-07 14.1688 0.180612 14.6048 0.502103 14.9263C0.823594 15.2478 1.25963 15.4284 1.71429 15.4284H2.85714C3.3118 15.4284 3.74784 15.2478 4.06933 14.9263C4.39082 14.6048 4.57143 14.1688 4.57143 13.7141V12.5713C4.57169 12.166 4.42834 11.7737 4.16681 11.464C3.90528 11.1544 3.5425 10.9474 3.14286 10.8799V9.14272C3.14286 9.06694 3.17296 8.99427 3.22654 8.94069C3.28012 8.8871 3.3528 8.857 3.42857 8.857H7.14286V10.8799C6.74321 10.9474 6.38043 11.1544 6.1189 11.464C5.85738 11.7737 5.71402 12.166 5.71429 12.5713V13.7141C5.71429 14.1688 5.8949 14.6048 6.21639 14.9263C6.53788 15.2478 6.97392 15.4284 7.42857 15.4284H8.57143C9.02609 15.4284 9.46212 15.2478 9.78361 14.9263C10.1051 14.6048 10.2857 14.1688 10.2857 13.7141V12.5713C10.286 12.166 10.1426 11.7737 9.8811 11.464C9.61957 11.1544 9.25679 10.9474 8.85714 10.8799V8.857H12.5714C12.6472 8.857 12.7199 8.8871 12.7735 8.94069C12.827 8.99427 12.8571 9.06694 12.8571 9.14272V10.8799C12.4575 10.9474 12.0947 11.1544 11.8332 11.464C11.5717 11.7737 11.4283 12.166 11.4286 12.5713V13.7141C11.4286 14.1688 11.6092 14.6048 11.9307 14.9263C12.2522 15.2478 12.6882 15.4284 13.1429 15.4284H14.2857C14.7404 15.4284 15.1764 15.2478 15.4979 14.9263C15.8194 14.6048 16 14.1688 16 13.7141V12.5713C16.0003 12.166 15.8569 11.7737 15.5954 11.464C15.3339 11.1544 14.9711 10.9474 14.5714 10.8799V9.14272C14.5714 8.61228 14.3607 8.10358 13.9856 7.7285C13.6106 7.35343 13.1019 7.14272 12.5714 7.14272H8.85714V5.11986C9.25679 5.05231 9.61957 4.84534 9.8811 4.53569C10.1426 4.22604 10.286 3.83374 10.2857 3.42843V2.28557C10.2857 1.83092 10.1051 1.39488 9.78361 1.07339C9.46212 0.751901 9.02609 0.571289 8.57143 0.571289H7.42857Z" fill="white"/>
</g>
<defs>
<clipPath id="clip0_286_1372">
<rect width="16" height="16" fill="white"/>
</clipPath>
</defs>
</svg>
