<svg width="16" height="16" viewBox="0 0 16 16" fill="none" xmlns="http://www.w3.org/2000/svg">
<path fill-rule="evenodd" clip-rule="evenodd" d="M5.37466 5.29216L5.99999 3.41816L4.10532 1.52483C4.49199 1.4015 4.90532 1.3335 5.33332 1.3335C5.9581 1.33331 6.57424 1.47949 7.13235 1.76031C7.69047 2.04112 8.17504 2.44878 8.54724 2.95059C8.91944 3.45241 9.16891 4.03443 9.27567 4.65003C9.38242 5.26562 9.34349 5.89766 9.16199 6.4955L13.3333 10.6668C13.5084 10.8419 13.6473 11.0498 13.7421 11.2786C13.8368 11.5073 13.8856 11.7525 13.8856 12.0002C13.8856 12.2478 13.8368 12.493 13.7421 12.7218C13.6473 12.9505 13.5084 13.1584 13.3333 13.3335C13.1582 13.5086 12.9504 13.6475 12.7216 13.7422C12.4928 13.837 12.2476 13.8858 12 13.8858C11.7524 13.8858 11.5072 13.837 11.2784 13.7422C11.0496 13.6475 10.8418 13.5086 10.6667 13.3335L6.49532 9.16216C5.79676 9.3746 5.05337 9.39177 4.34574 9.21183C3.63811 9.03188 2.99323 8.66168 2.481 8.14134C1.96878 7.62101 1.60874 6.9704 1.43993 6.26004C1.27111 5.54967 1.29995 4.80664 1.52332 4.1115L3.41599 6.00016L5.29132 5.3755L5.37466 5.29216Z" fill="#FFFAFA"/>
</svg>
