<svg width="16" height="16" viewBox="0 0 16 16" fill="none" xmlns="http://www.w3.org/2000/svg">
<path d="M4.8 6.26087C5.56382 6.26087 6.29636 5.93106 6.83647 5.34399C7.37657 4.75692 7.68 3.96068 7.68 3.13043C7.68 2.30019 7.37657 1.50395 6.83647 0.916883C6.29636 0.329813 5.56382 0 4.8 0C4.03618 0 3.30364 0.329813 2.76353 0.916883C2.22343 1.50395 1.92 2.30019 1.92 3.13043C1.92 3.96068 2.22343 4.75692 2.76353 5.34399C3.30364 5.93106 4.03618 6.26087 4.8 6.26087ZM13.76 3.82609C13.76 4.14583 13.7021 4.46244 13.5895 4.75784C13.4769 5.05324 13.3119 5.32165 13.1039 5.54774C12.8959 5.77383 12.649 5.95317 12.3772 6.07553C12.1054 6.19789 11.8142 6.26087 11.52 6.26087C11.2258 6.26087 10.9346 6.19789 10.6628 6.07553C10.391 5.95317 10.1441 5.77383 9.93608 5.54774C9.72808 5.32165 9.56308 5.05324 9.45051 4.75784C9.33794 4.46244 9.28 4.14583 9.28 3.82609C9.28 3.18034 9.516 2.56105 9.93608 2.10444C10.3562 1.64783 10.9259 1.3913 11.52 1.3913C12.1141 1.3913 12.6838 1.64783 13.1039 2.10444C13.524 2.56105 13.76 3.18034 13.76 3.82609ZM0 9.21739C0 8.80227 0.151714 8.40415 0.421766 8.11062C0.691819 7.81708 1.05809 7.65217 1.44 7.65217H8.16C8.28715 7.65264 8.40939 7.6698 8.52672 7.70365C8.05632 8.19031 7.68194 8.77591 7.42635 9.42482C7.17076 10.0737 7.03931 10.7724 7.04 11.4783C7.04 11.9409 7.09504 12.3889 7.19936 12.8153C6.57536 13.0623 5.78944 13.2174 4.8 13.2174C0 13.2174 0 9.56522 0 9.56522V9.21739ZM16 11.4783C16 12.6775 15.5617 13.8276 14.7816 14.6756C14.0014 15.5236 12.9433 16 11.84 16C10.7367 16 9.67859 15.5236 8.89844 14.6756C8.11828 13.8276 7.68 12.6775 7.68 11.4783C7.68 10.279 8.11828 9.1289 8.89844 8.28091C9.67859 7.43292 10.7367 6.95652 11.84 6.95652C12.9433 6.95652 14.0014 7.43292 14.7816 8.28091C15.5617 9.1289 16 10.279 16 11.4783ZM12.16 8.69565C12.16 8.6034 12.1263 8.51493 12.0663 8.4497C12.0063 8.38447 11.9249 8.34783 11.84 8.34783C11.7551 8.34783 11.6737 8.38447 11.6137 8.4497C11.5537 8.51493 11.52 8.6034 11.52 8.69565V11.1304H9.28C9.19513 11.1304 9.11374 11.1671 9.05373 11.2323C8.99371 11.2975 8.96 11.386 8.96 11.4783C8.96 11.5705 8.99371 11.659 9.05373 11.7242C9.11374 11.7894 9.19513 11.8261 9.28 11.8261H11.52V14.2609C11.52 14.3531 11.5537 14.4416 11.6137 14.5068C11.6737 14.5721 11.7551 14.6087 11.84 14.6087C11.9249 14.6087 12.0063 14.5721 12.0663 14.5068C12.1263 14.4416 12.16 14.3531 12.16 14.2609V11.8261H14.4C14.4849 11.8261 14.5663 11.7894 14.6263 11.7242C14.6863 11.659 14.72 11.5705 14.72 11.4783C14.72 11.386 14.6863 11.2975 14.6263 11.2323C14.5663 11.1671 14.4849 11.1304 14.4 11.1304H12.16V8.69565Z" fill="white"/>
</svg>
