<svg width="16" height="16" viewBox="0 0 16 16" fill="none" xmlns="http://www.w3.org/2000/svg">
<path fill-rule="evenodd" clip-rule="evenodd" d="M0.04741 0.254C0.0790763 0.176953 0.125047 0.112844 0.180628 0.0682187C0.236209 0.0235938 0.299408 5.26834e-05 0.363771 0H13.4546C14.1297 0 14.7771 0.368749 15.2545 1.02513C15.7318 1.6815 16 2.57174 16 3.5V12.5C16 13.4283 15.7318 14.3185 15.2545 14.9749C14.7771 15.6313 14.1297 16 13.4546 16H4.72737C4.05228 16 3.40484 15.6313 2.92748 14.9749C2.45012 14.3185 2.18194 13.4283 2.18194 12.5V5.638L0.0517735 0.758C0.0186505 0.682049 0.000792461 0.595365 2.57716e-05 0.506811C-0.000740918 0.418258 0.0156113 0.331014 0.04741 0.254ZM4.72737 3.25C4.58271 3.25 4.44397 3.32902 4.34168 3.46967C4.23939 3.61032 4.18192 3.80109 4.18192 4C4.18192 4.19891 4.23939 4.38968 4.34168 4.53033C4.44397 4.67098 4.58271 4.75 4.72737 4.75H13.4546C13.5992 4.75 13.738 4.67098 13.8403 4.53033C13.9426 4.38968 14 4.19891 14 4C14 3.80109 13.9426 3.61032 13.8403 3.46967C13.738 3.32902 13.5992 3.25 13.4546 3.25H4.72737ZM4.72737 6.75C4.58271 6.75 4.44397 6.82902 4.34168 6.96967C4.23939 7.11032 4.18192 7.30109 4.18192 7.5C4.18192 7.69891 4.23939 7.88968 4.34168 8.03033C4.44397 8.17098 4.58271 8.25 4.72737 8.25H13.4546C13.5992 8.25 13.738 8.17098 13.8403 8.03033C13.9426 7.88968 14 7.69891 14 7.5C14 7.30109 13.9426 7.11032 13.8403 6.96967C13.738 6.82902 13.5992 6.75 13.4546 6.75H4.72737ZM4.18192 11C4.18192 10.8011 4.23939 10.6103 4.34168 10.4697C4.44397 10.329 4.58271 10.25 4.72737 10.25H10.9091C11.0538 10.25 11.1925 10.329 11.2948 10.4697C11.3971 10.6103 11.4546 10.8011 11.4546 11C11.4546 11.1989 11.3971 11.3897 11.2948 11.5303C11.1925 11.671 11.0538 11.75 10.9091 11.75H4.72737C4.58271 11.75 4.44397 11.671 4.34168 11.5303C4.23939 11.3897 4.18192 11.1989 4.18192 11Z" fill="white"/>
</svg>
