<svg width="16" height="16" viewBox="0 0 16 16" fill="none" xmlns="http://www.w3.org/2000/svg">
<path d="M8 0C5.87827 0 3.84344 0.758569 2.34315 2.10883C0.842855 3.45909 0 5.29044 0 7.2C0 10.536 2.52444 13.336 5.94667 14.152L8 16L10.0533 14.152C13.4756 13.336 16 10.536 16 7.2C16 5.29044 15.1571 3.45909 13.6569 2.10883C12.1566 0.758569 10.1217 0 8 0ZM8 1.6C9.47556 1.6 10.6667 2.672 10.6667 4C10.6667 5.328 9.47556 6.4 8 6.4C6.52444 6.4 5.33333 5.328 5.33333 4C5.33333 2.672 6.52444 1.6 8 1.6ZM8 13.04C6.94388 13.04 5.90416 12.8048 4.97358 12.3553C4.043 11.9058 3.25047 11.2561 2.66667 10.464C2.69333 8.872 6.22222 8 8 8C9.76889 8 13.3067 8.872 13.3333 10.464C12.7495 11.2561 11.957 11.9058 11.0264 12.3553C10.0958 12.8048 9.05612 13.04 8 13.04Z" fill="#0022FF"/>
</svg>
