<svg width="16" height="16" viewBox="0 0 16 16" fill="none" xmlns="http://www.w3.org/2000/svg">
<path d="M12.3636 7H10.9091C10.703 7 10.5304 6.904 10.3913 6.712C10.2521 6.52 10.1823 6.28267 10.1818 6C10.1813 5.71733 10.2512 5.48 10.3913 5.288C10.5314 5.096 10.704 5 10.9091 5H12.3636V3C12.3636 2.71667 12.4335 2.47933 12.5731 2.288C12.7127 2.09667 12.8853 2.00067 13.0909 2C13.2965 1.99933 13.4693 2.09533 13.6095 2.288C13.7496 2.48067 13.8191 2.718 13.8182 3V5H15.2727C15.4788 5 15.6516 5.096 15.7913 5.288C15.9309 5.48 16.0005 5.71733 16 6C15.9995 6.28267 15.9297 6.52033 15.7905 6.713C15.6514 6.90567 15.4788 7.00133 15.2727 7H13.8182V9C13.8182 9.28333 13.7484 9.521 13.6087 9.713C13.4691 9.905 13.2965 10.0007 13.0909 10C12.8853 9.99933 12.7127 9.90333 12.5731 9.712C12.4335 9.52067 12.3636 9.28333 12.3636 9V7ZM5.81818 8C5.01818 8 4.33333 7.60833 3.76364 6.825C3.19394 6.04167 2.90909 5.1 2.90909 4C2.90909 2.9 3.19394 1.95833 3.76364 1.175C4.33333 0.391667 5.01818 0 5.81818 0C6.61818 0 7.30303 0.391667 7.87273 1.175C8.44242 1.95833 8.72727 2.9 8.72727 4C8.72727 5.1 8.44242 6.04167 7.87273 6.825C7.30303 7.60833 6.61818 8 5.81818 8ZM0 14V13.2C0 12.6333 0.106182 12.1127 0.318545 11.638C0.530909 11.1633 0.812606 10.8007 1.16364 10.55C1.91515 10.0333 2.67879 9.646 3.45454 9.388C4.2303 9.13 5.01818 9.00067 5.81818 9C6.61818 8.99933 7.40606 9.12867 8.18182 9.388C8.95757 9.64733 9.72121 10.0347 10.4727 10.55C10.8242 10.8 11.1062 11.1627 11.3185 11.638C11.5309 12.1133 11.6368 12.634 11.6364 13.2V14C11.6364 14.55 11.4941 15.021 11.2095 15.413C10.9248 15.805 10.5823 16.0007 10.1818 16H1.45455C1.05455 16 0.712242 15.8043 0.427636 15.413C0.14303 15.0217 0.000484848 14.5507 0 14Z" fill="#85EB4E"/>
</svg>
