<?xml version="1.0" encoding="UTF-8"?>
<!DOCTYPE svg PUBLIC "-//W3C//DTD SVG 1.1//EN" "http://www.w3.org/Graphics/SVG/1.1/DTD/svg11.dtd">
<svg xmlns="http://www.w3.org/2000/svg" version="1.1" width="23px" height="25px" style="shape-rendering:geometricPrecision; text-rendering:geometricPrecision; image-rendering:optimizeQuality; fill-rule:evenodd; clip-rule:evenodd" xmlns:xlink="http://www.w3.org/1999/xlink">
<g><path style="opacity:0.361" fill="#638784" d="M 1.5,-0.5 C 5.16667,-0.5 8.83333,-0.5 12.5,-0.5C 12.5,-0.166667 12.5,0.166667 12.5,0.5C 11.8333,0.5 11.1667,0.5 10.5,0.5C 7.39147,0.264145 4.39147,0.597478 1.5,1.5C 0.493667,1.06233 0.493667,0.395666 1.5,-0.5 Z"/></g>
<g><path style="opacity:1" fill="#99ddd9" d="M 10.5,0.5 C 9.43795,2.23411 9.43795,3.90078 10.5,5.5C 9.83333,8.16667 9.16667,10.8333 8.5,13.5C 7.73209,12.7375 7.23209,11.7375 7,10.5C 6.24956,11.1258 5.41623,11.6258 4.5,12C 7.05964,15.074 9.72631,17.9073 12.5,20.5C 8.91357,20.5535 5.2469,20.5535 1.5,20.5C 0.401698,14.0871 0.401698,7.75376 1.5,1.5C 4.39147,0.597478 7.39147,0.264145 10.5,0.5 Z"/></g>
<g><path style="opacity:1" fill="#9aded9" d="M 15.5,-0.5 C 15.8333,-0.5 16.1667,-0.5 16.5,-0.5C 16.8333,0.833333 17.1667,0.833333 17.5,-0.5C 18.5,-0.5 19.5,-0.5 20.5,-0.5C 20.8441,4.53233 20.8441,9.53233 20.5,14.5C 20.5,13.5 20.5,12.5 20.5,11.5C 19.1266,11.3433 17.7932,11.51 16.5,12C 16.6192,13.2812 16.1192,14.4479 15,15.5C 14.7216,14.5842 14.2216,13.9175 13.5,13.5C 13.0198,10.5568 12.0198,7.89016 10.5,5.5C 9.43795,3.90078 9.43795,2.23411 10.5,0.5C 11.1667,0.5 11.8333,0.5 12.5,0.5C 13.791,0.737305 14.791,0.403972 15.5,-0.5 Z"/></g>
<g><path style="opacity:1" fill="#555454" d="M 10.5,5.5 C 12.0198,7.89016 13.0198,10.5568 13.5,13.5C 12.2502,13.4226 11.4169,12.756 11,11.5C 10.5831,12.756 9.74975,13.4226 8.5,13.5C 9.16667,10.8333 9.83333,8.16667 10.5,5.5 Z"/></g>
<g><path style="opacity:1" fill="#a2e9e4" d="M 8.5,13.5 C 9.74975,13.4226 10.5831,12.756 11,11.5C 11.4169,12.756 12.2502,13.4226 13.5,13.5C 14.2216,13.9175 14.7216,14.5842 15,15.5C 16.1192,14.4479 16.6192,13.2812 16.5,12C 17.7932,11.51 19.1266,11.3433 20.5,11.5C 20.5,12.5 20.5,13.5 20.5,14.5C 21.2186,16.7638 21.552,19.0971 21.5,21.5C 18.4552,21.4921 15.4552,21.1587 12.5,20.5C 9.72631,17.9073 7.05964,15.074 4.5,12C 5.41623,11.6258 6.24956,11.1258 7,10.5C 7.23209,11.7375 7.73209,12.7375 8.5,13.5 Z"/></g>
<g><path style="opacity:0.004" fill="#000000" d="M 1.5,20.5 C 0.833333,21.1667 0.833333,21.1667 1.5,20.5 Z"/></g>
</svg>
