<?xml version="1.0" encoding="UTF-8"?>
<!DOCTYPE svg PUBLIC "-//W3C//DTD SVG 1.1//EN" "http://www.w3.org/Graphics/SVG/1.1/DTD/svg11.dtd">
<svg xmlns="http://www.w3.org/2000/svg" version="1.1" width="30px" height="29px" style="shape-rendering:geometricPrecision; text-rendering:geometricPrecision; image-rendering:optimizeQuality; fill-rule:evenodd; clip-rule:evenodd" xmlns:xlink="http://www.w3.org/1999/xlink">
<g><path style="opacity:1" fill="#fdc406" d="M 18.5,2.5 C 18.5,4.83333 18.5,7.16667 18.5,9.5C 17.5,9.5 16.5,9.5 15.5,9.5C 14.8333,9.5 14.1667,9.5 13.5,9.5C 12.8333,9.5 12.1667,9.5 11.5,9.5C 11.5,7.16667 11.5,4.83333 11.5,2.5C 13.8333,2.5 16.1667,2.5 18.5,2.5 Z"/></g>
<g><path style="opacity:0.424" fill="#856509" d="M 18.5,2.5 C 16.1667,2.5 13.8333,2.5 11.5,2.5C 11.5,4.83333 11.5,7.16667 11.5,9.5C 10.493,7.63912 10.1596,4.97246 10.5,1.5C 13.3854,1.1936 16.0521,1.52693 18.5,2.5 Z"/></g>
<g><path style="opacity:0.985" fill="#384a53" d="M 13.5,9.5 C 14.1667,9.5 14.8333,9.5 15.5,9.5C 15.5,10.5 15.5,11.5 15.5,12.5C 19.5138,12.3345 23.5138,12.5012 27.5,13C 26.5939,14.6995 26.2606,16.5328 26.5,18.5C 25.8333,18.5 25.1667,18.5 24.5,18.5C 24.5,17.5 24.5,16.5 24.5,15.5C 21.5,15.5 18.5,15.5 15.5,15.5C 15.5,16.5 15.5,17.5 15.5,18.5C 14.8333,18.5 14.1667,18.5 13.5,18.5C 13.5,17.5 13.5,16.5 13.5,15.5C 10.8333,15.5 8.16667,15.5 5.5,15.5C 5.5,16.5 5.5,17.5 5.5,18.5C 4.5,18.5 3.5,18.5 2.5,18.5C 2.5,16.5 2.5,14.5 2.5,12.5C 6.16667,12.5 9.83333,12.5 13.5,12.5C 13.5,11.5 13.5,10.5 13.5,9.5 Z"/></g>
<g><path style="opacity:1" fill="#449c48" d="M 24.5,18.5 C 25.1667,18.5 25.8333,18.5 26.5,18.5C 27.609,18.4431 28.609,18.1098 29.5,17.5C 29.5,20.5 29.5,23.5 29.5,26.5C 26.8333,26.5 24.1667,26.5 21.5,26.5C 21.3354,23.4816 21.502,20.4816 22,17.5C 22.6708,18.2524 23.5041,18.5858 24.5,18.5 Z"/></g>
<g><path style="opacity:1" fill="#45a149" d="M -0.5,18.5 C 0.5,18.5 1.5,18.5 2.5,18.5C 3.5,18.5 4.5,18.5 5.5,18.5C 6.55198,18.3505 7.55198,18.5172 8.5,19C 7.565,21.3806 7.23166,23.8806 7.5,26.5C 4.72116,26.7214 2.05449,26.388 -0.5,25.5C -0.5,23.1667 -0.5,20.8333 -0.5,18.5 Z"/></g>
<g><path style="opacity:1" fill="#439b46" d="M 13.5,18.5 C 14.1667,18.5 14.8333,18.5 15.5,18.5C 16.5,18.5 17.5,18.5 18.5,18.5C 18.5,21.1667 18.5,23.8333 18.5,26.5C 15.8333,26.5 13.1667,26.5 10.5,26.5C 10.3354,23.4816 10.502,20.4816 11,17.5C 11.6708,18.2524 12.5041,18.5858 13.5,18.5 Z"/></g>
</svg>
