<svg width="16" height="16" viewBox="0 0 16 16" fill="none" xmlns="http://www.w3.org/2000/svg">
<path fill-rule="evenodd" clip-rule="evenodd" d="M8.08766 15.5923L8.07731 15.5938L8.01049 15.6195L7.99166 15.6224L7.97849 15.6195L7.91166 15.5938C7.90162 15.5914 7.89409 15.5926 7.88907 15.5975L7.88531 15.6048L7.86931 15.9187L7.87402 15.9334L7.88343 15.9429L7.98131 15.9972L7.99543 16.0001L8.00672 15.9972L8.1046 15.9429L8.1159 15.9312L8.11966 15.9187L8.10366 15.6055C8.10115 15.5977 8.09582 15.5933 8.08766 15.5923ZM8.33707 15.5094L8.32484 15.5109L8.15072 15.5791L8.14131 15.5865L8.13849 15.5945L8.15543 15.9099L8.16013 15.9187L8.16766 15.9239L8.35684 15.9921C8.36876 15.9945 8.37786 15.9926 8.38413 15.9862L8.3879 15.9759L8.3559 15.5256C8.35276 15.5168 8.34649 15.5114 8.33707 15.5094ZM7.66413 15.5109C7.65998 15.509 7.65503 15.5083 7.65029 15.5091C7.64556 15.51 7.64141 15.5122 7.63872 15.5153L7.63307 15.5256L7.60107 15.9759C7.6017 15.9847 7.60704 15.9906 7.61707 15.9935L7.63119 15.9921L7.82037 15.9239L7.82978 15.918L7.83354 15.9099L7.84954 15.5945L7.84672 15.5857L7.83731 15.5784L7.66413 15.5109Z" fill="white"/>
<path fill-rule="evenodd" clip-rule="evenodd" d="M9.41176 0V4.03413C9.41176 4.32593 9.5605 4.60577 9.82526 4.8121C10.09 5.01843 10.4491 5.13435 10.8235 5.13435H16V10.2687C16 10.6578 15.8017 11.0309 15.4487 11.306C15.0957 11.5811 14.6169 11.7357 14.1176 11.7357H12.2353V13.2026C12.2353 13.5917 12.037 13.9648 11.684 14.2399C11.331 14.515 10.8522 14.6696 10.3529 14.6696H1.88235C1.38312 14.6696 0.904338 14.515 0.551328 14.2399C0.198319 13.9648 0 13.5917 0 13.2026V4.40087C0 4.01181 0.198319 3.63868 0.551328 3.36358C0.904338 3.08847 1.38312 2.93391 1.88235 2.93391H3.76471V1.46696C3.76471 1.0779 3.96303 0.704769 4.31603 0.429662C4.66904 0.154554 5.14783 0 5.64706 0H9.41176ZM3.76471 4.40087H1.88235V13.2026H10.3529V11.7357H5.64706C5.14783 11.7357 4.66904 11.5811 4.31603 11.306C3.96303 11.0309 3.76471 10.6578 3.76471 10.2687V4.40087ZM11.2941 0.0315396C11.6507 0.0904785 11.9777 0.228839 12.2353 0.429818L15.4485 2.93391C15.7064 3.13469 15.8839 3.38949 15.9595 3.66739H11.2941V0.0315396Z" fill="white"/>
</svg>
