<svg width="16" height="16" viewBox="0 0 16 16" fill="none" xmlns="http://www.w3.org/2000/svg">
<g clip-path="url(#clip0_297_1442)">
<path d="M8 0.5C3.85 0.5 0.5 3.85 0.5 8H15.5C15.5 3.85 12.15 0.5 8 0.5Z" fill="#42ADE2"/>
<path d="M14.5 11.75H1.5C2.8 14 5.225 15.5 8 15.5C10.775 15.5 13.2 14 14.5 11.75Z" fill="#699635"/>
<path d="M14.5 11.7501C15.15 10.6501 15.5 9.3751 15.5 8.0001H0.5C0.5 9.3751 0.875 10.6501 1.5 11.7501H14.5ZM11.55 4.8751L13.725 4.7501L11.55 4.6251L13.625 3.9251L11.5 4.3751L13.3 3.1751L11.375 4.1501L12.8 2.5251L11.175 3.9751L12.15 2.0251L10.975 3.8501L11.4 1.7251L10.725 3.7751L10.6 1.6001L10.475 3.7751L9.775 1.7251L10.225 3.8501L9.025 2.0251L10 3.9751L8.375 2.5251L9.825 4.1501L7.875 3.1751L9.7 4.3751L7.575 3.9251L9.625 4.6251L7.475 4.7501L9.625 4.8751L7.575 5.5501L9.7 5.1001L7.875 6.3001L9.825 5.3251L8.375 6.9501L10 5.5001L9.025 7.4501L10.225 5.6251L9.775 7.7501L10.475 5.7001L10.6 7.8751L10.725 5.7001L11.4 7.7501L10.975 5.6251L12.15 7.4501L11.175 5.5001L12.8 6.9501L11.375 5.3251L13.3 6.3001L11.5 5.1001L13.625 5.5501L11.55 4.8751Z" fill="#FFE62E"/>
<path d="M10.6 5.6752C11.1109 5.6752 11.525 5.26106 11.525 4.7502C11.525 4.23933 11.1109 3.8252 10.6 3.8252C10.0892 3.8252 9.67505 4.23933 9.67505 4.7502C9.67505 5.26106 10.0892 5.6752 10.6 5.6752Z" fill="#FFE62E"/>
<path d="M10.6 5.7502C10.05 5.7502 9.57495 5.3002 9.57495 4.7252C9.57495 4.1752 10.025 3.7002 10.6 3.7002C11.175 3.7002 11.625 4.1502 11.625 4.7252C11.625 5.3002 11.15 5.7502 10.6 5.7502ZM10.6 3.9002C10.15 3.9002 9.77495 4.2752 9.77495 4.7252C9.77495 5.1752 10.15 5.5502 10.6 5.5502C11.05 5.5502 11.425 5.1752 11.425 4.7252C11.425 4.2752 11.05 3.9002 10.6 3.9002Z" fill="#42ADE2"/>
</g>
<defs>
<clipPath id="clip0_297_1442">
<rect width="16" height="16" fill="white"/>
</clipPath>
</defs>
</svg>
