<svg width="14" height="14" viewBox="0 0 14 14" fill="none" xmlns="http://www.w3.org/2000/svg">
<path d="M6.99989 9.3335C6.38105 9.3335 5.78756 9.08766 5.34998 8.65008C4.91239 8.2125 4.66656 7.619 4.66656 7.00016C4.66656 6.38133 4.91239 5.78783 5.34998 5.35025C5.78756 4.91266 6.38105 4.66683 6.99989 4.66683C7.61873 4.66683 8.21222 4.91266 8.64981 5.35025C9.08739 5.78783 9.33323 6.38133 9.33323 7.00016C9.33323 7.619 9.08739 8.2125 8.64981 8.65008C8.21222 9.08766 7.61873 9.3335 6.99989 9.3335ZM11.9532 7.64683C11.9799 7.4335 11.9999 7.22016 11.9999 7.00016C11.9999 6.78016 11.9799 6.56016 11.9532 6.3335L13.3599 5.24683C13.4866 5.14683 13.5199 4.96683 13.4399 4.82016L12.1066 2.5135C12.0266 2.36683 11.8466 2.30683 11.6999 2.36683L10.0399 3.0335C9.69323 2.7735 9.33323 2.54683 8.91323 2.38016L8.66656 0.613497C8.65302 0.534975 8.61212 0.463782 8.5511 0.412532C8.49009 0.361281 8.41291 0.333283 8.33323 0.333497H5.66656C5.49989 0.333497 5.35989 0.453497 5.33323 0.613497L5.08656 2.38016C4.66656 2.54683 4.30656 2.7735 3.95989 3.0335L2.29989 2.36683C2.15323 2.30683 1.97323 2.36683 1.89323 2.5135L0.559893 4.82016C0.473226 4.96683 0.513226 5.14683 0.639893 5.24683L2.04656 6.3335C2.01989 6.56016 1.99989 6.78016 1.99989 7.00016C1.99989 7.22016 2.01989 7.4335 2.04656 7.64683L0.639893 8.7535C0.513226 8.8535 0.473226 9.0335 0.559893 9.18016L1.89323 11.4868C1.97323 11.6335 2.15323 11.6868 2.29989 11.6335L3.95989 10.9602C4.30656 11.2268 4.66656 11.4535 5.08656 11.6202L5.33323 13.3868C5.35989 13.5468 5.49989 13.6668 5.66656 13.6668H8.33323C8.49989 13.6668 8.63989 13.5468 8.66656 13.3868L8.91323 11.6202C9.33323 11.4468 9.69323 11.2268 10.0399 10.9602L11.6999 11.6335C11.8466 11.6868 12.0266 11.6335 12.1066 11.4868L13.4399 9.18016C13.5199 9.0335 13.4866 8.8535 13.3599 8.7535L11.9532 7.64683Z" fill="white"/>
</svg>
