<svg width="30" height="27" viewBox="0 0 30 27" fill="none" xmlns="http://www.w3.org/2000/svg">
<path d="M9.36382 10.5652C10.7482 10.5652 12.076 10.0087 13.0549 9.01798C14.0339 8.0273 14.5838 6.68364 14.5838 5.28261C14.5838 3.88157 14.0339 2.53792 13.0549 1.54724C12.076 0.556559 10.7482 0 9.36382 0C7.97939 0 6.65166 0.556559 5.67272 1.54724C4.69378 2.53792 4.14382 3.88157 4.14382 5.28261C4.14382 6.68364 4.69378 8.0273 5.67272 9.01798C6.65166 10.0087 7.97939 10.5652 9.36382 10.5652ZM25.6038 6.45652C25.6038 6.99608 25.4988 7.53036 25.2948 8.02885C25.0907 8.52734 24.7917 8.98028 24.4147 9.36181C24.0377 9.74334 23.5901 10.046 23.0975 10.2525C22.6049 10.4589 22.077 10.5652 21.5438 10.5652C21.0107 10.5652 20.4827 10.4589 19.9901 10.2525C19.4975 10.046 19.05 9.74334 18.673 9.36181C18.296 8.98028 17.9969 8.52734 17.7929 8.02885C17.5888 7.53036 17.4838 6.99608 17.4838 6.45652C17.4838 5.36683 17.9116 4.32176 18.673 3.55124C19.4344 2.78071 20.467 2.34783 21.5438 2.34783C22.6206 2.34783 23.6533 2.78071 24.4147 3.55124C25.1761 4.32176 25.6038 5.36683 25.6038 6.45652ZM0.663818 15.5543C0.663818 14.8538 0.9388 14.182 1.42827 13.6867C1.91774 13.1913 2.5816 12.913 3.27382 12.913H15.4538C15.6843 12.9138 15.9058 12.9428 16.1185 12.9999C15.2659 13.8212 14.5873 14.8094 14.1241 15.9044C13.6608 16.9994 13.4226 18.1784 13.4238 19.3696C13.4238 20.1502 13.5236 20.9062 13.7127 21.6258C12.5817 22.0426 11.1572 22.3043 9.36382 22.3043C0.663818 22.3043 0.663818 16.1413 0.663818 16.1413V15.5543ZM29.6638 19.3696C29.6638 21.3933 28.8694 23.3341 27.4554 24.7651C26.0414 26.1961 24.1236 27 22.1238 27C20.1241 27 18.2063 26.1961 16.7922 24.7651C15.3782 23.3341 14.5838 21.3933 14.5838 19.3696C14.5838 17.3458 15.3782 15.405 16.7922 13.974C18.2063 12.543 20.1241 11.7391 22.1238 11.7391C24.1236 11.7391 26.0414 12.543 27.4554 13.974C28.8694 15.405 29.6638 17.3458 29.6638 19.3696ZM22.7038 14.6739C22.7038 14.5182 22.6427 14.3689 22.5339 14.2589C22.4252 14.1488 22.2776 14.087 22.1238 14.087C21.97 14.087 21.8225 14.1488 21.7137 14.2589C21.6049 14.3689 21.5438 14.5182 21.5438 14.6739V18.7826H17.4838C17.33 18.7826 17.1825 18.8444 17.0737 18.9545C16.9649 19.0646 16.9038 19.2139 16.9038 19.3696C16.9038 19.5252 16.9649 19.6745 17.0737 19.7846C17.1825 19.8947 17.33 19.9565 17.4838 19.9565H21.5438V24.0652C21.5438 24.2209 21.6049 24.3702 21.7137 24.4803C21.8225 24.5903 21.97 24.6522 22.1238 24.6522C22.2776 24.6522 22.4252 24.5903 22.5339 24.4803C22.6427 24.3702 22.7038 24.2209 22.7038 24.0652V19.9565H26.7638C26.9176 19.9565 27.0652 19.8947 27.1739 19.7846C27.2827 19.6745 27.3438 19.5252 27.3438 19.3696C27.3438 19.2139 27.2827 19.0646 27.1739 18.9545C27.0652 18.8444 26.9176 18.7826 26.7638 18.7826H22.7038V14.6739Z" fill="#F22323"/>
</svg>
