<svg width="16" height="13" viewBox="0 0 16 13" fill="none" xmlns="http://www.w3.org/2000/svg">
<g clip-path="url(#clip0_388_1377)">
<path d="M0 0.609375C0 0.27168 0.2675 0 0.6 0H15.4C15.7325 0 16 0.27168 16 0.609375C16 0.94707 15.7325 1.21875 15.4 1.21875H0.6C0.2675 1.21875 0 0.94707 0 0.609375ZM0 12.3906C0 12.0529 0.2675 11.7812 0.6 11.7812H15.4C15.7325 11.7812 16 12.0529 16 12.3906C16 12.7283 15.7325 13 15.4 13H0.6C0.2675 13 0 12.7283 0 12.3906ZM2.08 4.0625C2.08 3.8491 2.12139 3.63779 2.20179 3.44064C2.2822 3.24349 2.40006 3.06435 2.54863 2.91345C2.6972 2.76256 2.87359 2.64286 3.06771 2.5612C3.26183 2.47953 3.46988 2.4375 3.68 2.4375C3.89011 2.4375 4.09817 2.47953 4.29229 2.5612C4.48641 2.64286 4.6628 2.76256 4.81137 2.91345C4.95994 3.06435 5.0778 3.24349 5.15821 3.44064C5.23861 3.63779 5.28 3.8491 5.28 4.0625C5.28 4.49348 5.11143 4.9068 4.81137 5.21155C4.51131 5.5163 4.10435 5.6875 3.68 5.6875C3.25565 5.6875 2.84869 5.5163 2.54863 5.21155C2.24857 4.9068 2.08 4.49348 2.08 4.0625ZM0.8 8.125C0.8 7.22871 1.5175 6.5 2.4 6.5H4.8C5.105 6.5 5.3925 6.58633 5.635 6.73867C4.705 7.12207 3.995 7.93711 3.74 8.9375H1.6C1.1575 8.9375 0.8 8.57441 0.8 8.125ZM12.34 8.9375C12.0825 7.91934 11.35 7.09414 10.3975 6.71836C10.6325 6.57871 10.9075 6.5 11.2 6.5H13.6C14.4825 6.5 15.2 7.22871 15.2 8.125C15.2 8.57441 14.8425 8.9375 14.4 8.9375H12.34ZM9.78 7.37344C10.5825 7.56133 11.2325 8.15801 11.5025 8.9375C11.59 9.19141 11.64 9.46563 11.64 9.75C11.64 10.1994 11.2825 10.5625 10.84 10.5625H5.24C4.7975 10.5625 4.44 10.1994 4.44 9.75C4.44 9.46563 4.4875 9.19141 4.5775 8.9375C4.84 8.1834 5.46 7.59688 6.23 7.39121C6.425 7.33789 6.63 7.3125 6.8425 7.3125H9.2425C9.4275 7.3125 9.61 7.33281 9.7825 7.37344H9.78ZM10.88 4.0625C10.88 3.63152 11.0486 3.2182 11.3486 2.91345C11.6487 2.6087 12.0557 2.4375 12.48 2.4375C12.9043 2.4375 13.3113 2.6087 13.6114 2.91345C13.9114 3.2182 14.08 3.63152 14.08 4.0625C14.08 4.49348 13.9114 4.9068 13.6114 5.21155C13.3113 5.5163 12.9043 5.6875 12.48 5.6875C12.0557 5.6875 11.6487 5.5163 11.3486 5.21155C11.0486 4.9068 10.88 4.49348 10.88 4.0625ZM8.04 2.4375C8.57043 2.4375 9.07914 2.65151 9.45421 3.03244C9.82929 3.41337 10.04 3.93003 10.04 4.46875C10.04 5.00747 9.82929 5.52413 9.45421 5.90506C9.07914 6.28599 8.57043 6.5 8.04 6.5C7.50957 6.5 7.00086 6.28599 6.62579 5.90506C6.25071 5.52413 6.04 5.00747 6.04 4.46875C6.04 3.93003 6.25071 3.41337 6.62579 3.03244C7.00086 2.65151 7.50957 2.4375 8.04 2.4375Z" fill="#F6B02D"/>
</g>
<defs>
<clipPath id="clip0_388_1377">
<rect width="16" height="13" fill="white"/>
</clipPath>
</defs>
</svg>
