<svg width="25" height="24" viewBox="0 0 25 24" fill="none" xmlns="http://www.w3.org/2000/svg">
<path fill-rule="evenodd" clip-rule="evenodd" d="M17.5942 13.13C18.9642 14.06 19.9242 15.32 19.9242 17V20H22.9242C23.4742 20 23.9242 19.55 23.9242 19V17C23.9242 14.82 20.3542 13.53 17.5942 13.13Z" fill="#E8BD47"/>
<path d="M9.92432 12C12.1335 12 13.9243 10.2091 13.9243 8C13.9243 5.79086 12.1335 4 9.92432 4C7.71518 4 5.92432 5.79086 5.92432 8C5.92432 10.2091 7.71518 12 9.92432 12Z" fill="#E8BD47"/>
<path fill-rule="evenodd" clip-rule="evenodd" d="M15.9243 12C18.1343 12 19.9243 10.21 19.9243 8C19.9243 5.79 18.1343 4 15.9243 4C15.4543 4 15.0143 4.1 14.5943 4.24C15.4548 5.30422 15.9243 6.6314 15.9243 8C15.9243 9.3686 15.4548 10.6958 14.5943 11.76C15.0143 11.9 15.4543 12 15.9243 12ZM9.92432 13C7.25432 13 1.92432 14.34 1.92432 17V19C1.92432 19.55 2.37432 20 2.92432 20H16.9243C17.4743 20 17.9243 19.55 17.9243 19V17C17.9243 14.34 12.5943 13 9.92432 13Z" fill="#E8BD47"/>
</svg>
