<svg width="16" height="16" viewBox="0 0 16 16" fill="none" xmlns="http://www.w3.org/2000/svg">
<circle cx="8" cy="8" r="8" fill="#F4F4F4"/>
<mask id="mask0_297_1368" style="mask-type:luminance" maskUnits="userSpaceOnUse" x="0" y="0" width="16" height="16">
<circle cx="8" cy="8" r="8" fill="white"/>
</mask>
<g mask="url(#mask0_297_1368)">
<path fill-rule="evenodd" clip-rule="evenodd" d="M6.90001 12.3071H1.26001C1.5418 12.7483 1.86658 13.1604 2.22961 13.5375H13.7688C14.1318 13.1604 14.4566 12.7483 14.7384 12.3071H6.89841H6.90001Z" fill="#FF1612"/>
<path fill-rule="evenodd" clip-rule="evenodd" d="M12.2601 1.23053C9.65595 -0.408224 6.3427 -0.408224 3.73853 1.23053H12.2601V1.23053Z" fill="#FF1612"/>
<path fill-rule="evenodd" clip-rule="evenodd" d="M12.4424 2.46094H2.22961C1.86703 2.83902 1.54229 3.25165 1.26001 3.69294H14.7384C14.4561 3.25165 14.1314 2.83902 13.7688 2.46094L12.4424 2.46094Z" fill="#FF1612"/>
<path fill-rule="evenodd" clip-rule="evenodd" d="M6.90013 4.92285H0.613732C0.447944 5.32156 0.314709 5.73304 0.215332 6.15325H15.7833C15.684 5.73304 15.5507 5.32156 15.3849 4.92285H6.90493L6.90013 4.92285Z" fill="#FF1612"/>
<path fill-rule="evenodd" clip-rule="evenodd" d="M6.90013 9.84619H0.215332C0.314709 10.2664 0.447944 10.6779 0.613732 11.0766H15.3849C15.5507 10.6779 15.684 10.2664 15.7833 9.84619L6.90013 9.84619Z" fill="#FF1612"/>
<path fill-rule="evenodd" clip-rule="evenodd" d="M3.73682 14.7681C5.00761 15.5713 6.47983 15.9985 7.98322 16.0001H8.01522C9.5186 15.9985 10.9908 15.5713 12.2616 14.7681H3.73682Z" fill="#FF1612"/>
<path fill-rule="evenodd" clip-rule="evenodd" d="M6.90007 7.38379H0.0248676C0.0104676 7.58699 -0.000732422 7.79179 -0.000732422 7.99979C-0.000732422 8.20779 0.0104676 8.41099 0.0248676 8.61419H15.9737C15.9881 8.41099 15.9993 8.20619 15.9993 7.99979C15.9993 7.79339 15.9881 7.58699 15.9737 7.38379H6.90007Z" fill="#FF1612"/>
<path fill-rule="evenodd" clip-rule="evenodd" d="M5.04586 0.559818L5.12586 0.53034C5.11466 0.494655 5.10186 0.460521 5.09066 0.426388C5.07626 0.477588 5.06186 0.514824 5.04586 0.559818Z" fill="#F4F4F4"/>
<path fill-rule="evenodd" clip-rule="evenodd" d="M7.42167 8.61442H8.13047V8.01591e-06H7.99927C7.01449 -0.00139778 6.03798 0.179798 5.11927 0.534409L5.14007 0.596809C5.14253 0.605032 5.14553 0.618961 5.14908 0.635473L5.14908 0.635477C5.15935 0.68322 5.17426 0.752555 5.19447 0.768009C5.2142 0.783096 5.28191 0.776297 5.33044 0.771423C5.34881 0.769578 5.36444 0.768009 5.37367 0.768009H5.55287L5.40727 0.873609C5.40017 0.878618 5.38763 0.885914 5.37277 0.89456L5.37276 0.894565C5.33066 0.919058 5.26994 0.954377 5.26167 0.979209C5.2538 1.00281 5.27988 1.06115 5.29942 1.10487L5.29943 1.10488C5.30771 1.12339 5.31481 1.13929 5.31767 1.14881L5.32921 1.18332L5.32922 1.18333C5.34451 1.22896 5.3596 1.27397 5.37367 1.32001L5.22967 1.21441C5.22287 1.20921 5.21256 1.20001 5.20038 1.18913C5.16386 1.1565 5.11047 1.10881 5.08407 1.10881C5.05791 1.10881 5.00612 1.15565 4.97008 1.18825C4.95762 1.19951 4.94705 1.20907 4.94007 1.21441L4.79927 1.31841L4.85527 1.14721C4.85814 1.139 4.86385 1.12595 4.8706 1.11055L4.87061 1.11052C4.89017 1.06586 4.9184 1.0014 4.91127 0.977609C4.90417 0.953948 4.84283 0.918039 4.80035 0.89317C4.78538 0.884405 4.77276 0.877012 4.76567 0.872009L4.62007 0.766409H4.79927C4.8085 0.766409 4.82412 0.767857 4.8425 0.769561C4.89103 0.774059 4.95874 0.780336 4.97847 0.766409C4.99767 0.752855 5.01209 0.68907 5.02284 0.641469L5.02285 0.641456L5.02285 0.641442L5.02285 0.641431L5.02286 0.641394C5.02734 0.621597 5.03118 0.604607 5.03447 0.595209L5.04407 0.563209C3.37582 1.22887 1.97878 2.43439 1.07607 3.98721L1.09047 4.03041C1.09375 4.03979 1.09744 4.05659 1.10175 4.07617C1.11214 4.12342 1.12611 4.18691 1.14647 4.20161C1.16733 4.21668 1.23355 4.20992 1.28123 4.20505L1.28124 4.20504C1.29937 4.20319 1.31481 4.20161 1.32407 4.20161H1.50487L1.36087 4.30721C1.35275 4.31342 1.33752 4.32233 1.31983 4.33267L1.31983 4.33268C1.27824 4.357 1.22313 4.38924 1.21527 4.41281C1.20696 4.43772 1.23559 4.50132 1.25552 4.5456C1.26248 4.56104 1.26837 4.57414 1.27127 4.58241C1.28534 4.62846 1.30043 4.67348 1.31572 4.71912L1.32727 4.75361L1.18167 4.64801C1.17472 4.6427 1.16411 4.63321 1.15161 4.62202L1.1516 4.622C1.11517 4.5894 1.06268 4.54241 1.03767 4.54241C1.01242 4.54241 0.958253 4.5903 0.921348 4.62293L0.921332 4.62295C0.909135 4.63373 0.898824 4.64285 0.892067 4.64801L0.748068 4.75361C0.762136 4.70757 0.777228 4.66255 0.792524 4.61692L0.804068 4.58241C0.806867 4.57308 0.813612 4.55749 0.821486 4.53929L0.821488 4.53929C0.840615 4.49508 0.866401 4.43548 0.858468 4.41281V4.40321C0.489484 5.13221 0.234775 5.91361 0.103268 6.72002C0.107446 6.74418 0.117933 6.76681 0.133668 6.78562C0.153397 6.8007 0.221108 6.7939 0.269637 6.78903H0.269644L0.269653 6.78903C0.288022 6.78719 0.303642 6.78562 0.312868 6.78562H0.492068L0.491992 6.78567C0.444017 6.82085 0.396042 6.85604 0.346468 6.88962C0.332406 6.89914 0.315516 6.90918 0.298312 6.91941L0.298304 6.91941C0.254825 6.94526 0.209346 6.97229 0.202468 6.99522C0.195807 7.01742 0.219958 7.07506 0.238576 7.11949C0.246791 7.1391 0.253929 7.15613 0.256868 7.16642C0.261954 7.18422 0.272432 7.21505 0.283778 7.24844L0.283781 7.24845C0.293846 7.27807 0.304594 7.30969 0.312868 7.33602L0.168868 7.23042C0.130269 7.19554 0.0896664 7.16296 0.0472676 7.13282C0.0161803 7.42085 0.000158496 7.71031 -0.000732422 8.00002C-0.000732422 8.20642 0.0104676 8.41122 0.0248676 8.61442H7.42167ZM6.82804 0.774538C6.83727 0.774538 6.8535 0.775986 6.87259 0.77769C6.92299 0.782188 6.99332 0.788464 7.00724 0.774538C7.02058 0.761196 7.03702 0.699182 7.04956 0.651843C7.05507 0.631058 7.05983 0.613101 7.06324 0.603338L7.11764 0.433737L7.17204 0.603338C7.17533 0.612715 7.17902 0.62951 7.18333 0.649095C7.19372 0.696347 7.20768 0.759833 7.22804 0.774538C7.24893 0.789625 7.31612 0.782826 7.36428 0.777952C7.38251 0.776107 7.39801 0.774538 7.40724 0.774538H7.58644L7.44084 0.880138C7.43375 0.885144 7.42122 0.892433 7.40638 0.90107L7.40635 0.901087L7.40633 0.901095C7.36423 0.925587 7.30352 0.960906 7.29524 0.985738C7.28738 1.00934 7.31345 1.06767 7.333 1.11139L7.333 1.1114C7.34128 1.12992 7.34839 1.14582 7.35124 1.15534L7.40724 1.32654L7.26164 1.22094C7.25469 1.21562 7.24408 1.20612 7.23157 1.19493C7.19515 1.16233 7.14265 1.11534 7.11764 1.11534C7.09239 1.11534 7.03823 1.16323 7.00132 1.19586C6.98912 1.20665 6.9788 1.21577 6.97204 1.22094L6.82804 1.32654L6.87924 1.14734C6.88212 1.13774 6.88917 1.12152 6.89738 1.10266L6.89738 1.10265C6.91653 1.05861 6.94196 1.00014 6.93524 0.977738C6.92814 0.954076 6.86681 0.918167 6.82433 0.893298L6.82432 0.893292L6.82431 0.893285C6.80935 0.884527 6.79673 0.877139 6.78964 0.872138L6.64404 0.766538L6.82804 0.774538ZM6.87267 2.49476C6.85358 2.49291 6.83735 2.49134 6.82813 2.49134H6.64893L6.79453 2.59694C6.80184 2.6021 6.81504 2.60957 6.83063 2.61839L6.83064 2.6184L6.83065 2.61841L6.83066 2.61841L6.83066 2.61841L6.83067 2.61842C6.87308 2.64241 6.93311 2.67638 6.94013 2.70094C6.94688 2.72459 6.92115 2.78389 6.90196 2.82811C6.89389 2.84672 6.88697 2.86266 6.88413 2.87214C6.87453 2.90014 6.86533 2.92854 6.85613 2.95694C6.84693 2.98534 6.83773 3.01374 6.82813 3.04174L6.97213 2.93614C6.97989 2.93066 6.99234 2.91971 7.00696 2.90685L7.00697 2.90685L7.00699 2.90683L7.00699 2.90682C7.04359 2.87464 7.09372 2.83054 7.11773 2.83054C7.14155 2.83054 7.19033 2.874 7.22639 2.90612L7.2264 2.90613L7.2264 2.90613C7.24118 2.9193 7.25382 2.93056 7.26173 2.93614L7.40733 3.04174C7.39776 3.01384 7.38859 2.98553 7.37943 2.95722L7.37942 2.95721L7.37942 2.9572L7.37941 2.95719L7.37941 2.95717L7.3794 2.95716L7.3794 2.95715L7.3794 2.95714L7.37939 2.95713L7.37939 2.95711L7.37938 2.9571L7.37938 2.95709L7.37937 2.95708L7.37937 2.95707L7.37937 2.95705L7.37936 2.95704L7.37936 2.95703L7.37935 2.95702L7.37935 2.957L7.37934 2.95699L7.37934 2.95698L7.37934 2.95697L7.37933 2.95696L7.37933 2.95694L7.37932 2.95693C7.37012 2.92853 7.36092 2.90014 7.35133 2.87214C7.34849 2.86269 7.34146 2.84667 7.33326 2.82797L7.33326 2.82797C7.3137 2.78336 7.28744 2.72349 7.29533 2.70094C7.30352 2.67753 7.36311 2.64298 7.40515 2.6186L7.40517 2.61859L7.40519 2.61858L7.4052 2.61858L7.4052 2.61857L7.40521 2.61857C7.4206 2.60964 7.43364 2.60209 7.44093 2.59694L7.58653 2.49134H7.40733C7.3981 2.49134 7.3826 2.49279 7.36436 2.49449L7.36436 2.49449C7.3162 2.49899 7.24902 2.50527 7.22813 2.49134C7.20771 2.47773 7.19373 2.41429 7.18333 2.3671C7.17906 2.34771 7.17539 2.33106 7.17213 2.32174C7.16334 2.29299 7.15416 2.26463 7.14497 2.23628L7.14495 2.23623L7.14493 2.23615L7.14492 2.23614C7.13573 2.20774 7.12653 2.17934 7.11773 2.15054C7.10894 2.17929 7.09976 2.20765 7.09057 2.236L7.09055 2.23605L7.09053 2.23613L7.09052 2.23614C7.08133 2.26454 7.07213 2.29294 7.06333 2.32174C7.05993 2.33144 7.05522 2.34892 7.04976 2.36916C7.0372 2.41571 7.02071 2.47684 7.00733 2.49134C6.9934 2.50643 6.92307 2.49963 6.87267 2.49476ZM6.87258 4.21289L6.87259 4.21289C6.92299 4.21776 6.99332 4.22456 7.00724 4.20947C7.02057 4.19504 7.03697 4.13361 7.04951 4.08666C7.05504 4.06595 7.05981 4.04807 7.06324 4.03827L7.11764 3.86867L7.17204 4.03827C7.17533 4.04765 7.17902 4.06445 7.18333 4.08403C7.19372 4.13128 7.20768 4.19477 7.22804 4.20947C7.24893 4.22456 7.31612 4.21776 7.36428 4.21289L7.36428 4.21289L7.36436 4.21288C7.38256 4.21104 7.39803 4.20947 7.40724 4.20947H7.58644L7.44084 4.31507C7.43273 4.32128 7.41749 4.33019 7.39981 4.34053C7.35822 4.36486 7.3031 4.3971 7.29524 4.42067C7.28738 4.44427 7.31345 4.50261 7.333 4.54633L7.333 4.54633C7.34128 4.56485 7.34839 4.58075 7.35124 4.59027L7.40724 4.76147L7.26164 4.65587C7.25469 4.65056 7.24408 4.64106 7.23157 4.62986C7.19515 4.59726 7.14265 4.55027 7.11764 4.55027C7.09239 4.55027 7.03823 4.59816 7.00132 4.63079L7.0013 4.63082L7.00127 4.63084L7.00127 4.63084C6.98909 4.64161 6.97879 4.65071 6.97204 4.65587L6.82804 4.76147L6.87924 4.58227C6.88212 4.57268 6.88917 4.55647 6.89737 4.53761L6.89738 4.53759L6.89738 4.53759C6.91653 4.49355 6.94196 4.43508 6.93524 4.41267C6.92851 4.39024 6.87303 4.35758 6.83108 4.33289L6.83108 4.33289L6.83104 4.33287C6.81317 4.32235 6.79777 4.31329 6.78964 4.30707L6.64404 4.20147L6.82804 4.20947C6.83724 4.20947 6.85338 4.21103 6.87238 4.21287L6.87239 4.21287L6.87246 4.21287L6.87249 4.21288L6.87258 4.21289ZM6.87267 5.92969L6.87266 5.92969L6.87257 5.92968L6.87255 5.92968L6.87248 5.92967L6.87246 5.92967C6.85347 5.92783 6.83732 5.92628 6.82813 5.92628L6.64893 5.91988L6.79453 6.03188C6.80184 6.03704 6.81505 6.04451 6.83065 6.05334C6.87306 6.07734 6.93311 6.11131 6.94013 6.13588C6.94671 6.15893 6.92694 6.20457 6.90768 6.24904C6.89886 6.26939 6.89015 6.28949 6.88413 6.30708C6.87453 6.33507 6.86533 6.36347 6.85613 6.39187C6.84693 6.42027 6.83773 6.44867 6.82813 6.47668L6.97213 6.37108C6.97988 6.3656 6.99232 6.35466 7.00693 6.34181L7.00699 6.34176L7.00699 6.34176L7.007 6.34175L7.00701 6.34175C7.0436 6.30956 7.09373 6.26548 7.11773 6.26548C7.14155 6.26548 7.19033 6.30893 7.22639 6.34105L7.2264 6.34106L7.22641 6.34107L7.22642 6.34108L7.22643 6.34109L7.22644 6.3411C7.2412 6.35425 7.25383 6.3655 7.26173 6.37108L7.40733 6.47668C7.38813 6.42068 7.36093 6.33908 7.35133 6.30708C7.34849 6.29764 7.34149 6.28166 7.3333 6.263L7.33329 6.26297L7.33329 6.26296L7.33327 6.26291L7.33326 6.26291L7.33326 6.2629C7.3137 6.2183 7.28744 6.15842 7.29533 6.13588C7.30352 6.11246 7.36311 6.07791 7.40515 6.05354C7.42057 6.0446 7.43363 6.03703 7.44093 6.03188L7.58653 5.92628H7.40733C7.3981 5.92628 7.38259 5.92772 7.36436 5.92943C7.3162 5.93393 7.24902 5.9402 7.22813 5.92628C7.20771 5.91267 7.19373 5.84922 7.18333 5.80203C7.17906 5.78264 7.17539 5.76599 7.17213 5.75668C7.16333 5.7279 7.15414 5.69952 7.14495 5.67114L7.14493 5.67109C7.13573 5.64268 7.12653 5.61428 7.11773 5.58548C7.10893 5.61425 7.09974 5.64263 7.09055 5.67101L7.09053 5.67107C7.08133 5.69947 7.07213 5.72787 7.06333 5.75668C7.05993 5.76637 7.05522 5.78385 7.04976 5.80409L7.04976 5.8041C7.0372 5.85065 7.02071 5.91178 7.00733 5.92628C6.9934 5.94136 6.92307 5.93456 6.87267 5.92969ZM6.87258 7.64826L6.87259 7.64826C6.92299 7.65314 6.99332 7.65994 7.00724 7.64485C7.02057 7.63042 7.03697 7.56898 7.04951 7.52204C7.05504 7.50133 7.05981 7.48344 7.06324 7.47365L7.11764 7.30405L7.17204 7.47365C7.17533 7.48303 7.17902 7.49982 7.18333 7.51941C7.19372 7.56666 7.20768 7.63014 7.22804 7.64485C7.24893 7.65994 7.31612 7.65314 7.36428 7.64826L7.36428 7.64826L7.36436 7.64825C7.38256 7.64641 7.39803 7.64485 7.40724 7.64485H7.58644L7.44084 7.74885C7.43273 7.75506 7.41749 7.76397 7.39981 7.77431C7.35822 7.79864 7.3031 7.83087 7.29524 7.85445C7.28738 7.87805 7.31345 7.93638 7.333 7.9801L7.333 7.98011C7.34128 7.99863 7.34839 8.01453 7.35124 8.02405L7.40724 8.19525L7.26164 8.08965C7.25469 8.08433 7.24408 8.07483 7.23157 8.06364C7.19515 8.03104 7.14265 7.98405 7.11764 7.98405C7.09239 7.98405 7.03823 8.03194 7.00133 8.06457L7.0013 8.06459C6.9891 8.07537 6.9788 8.08449 6.97204 8.08965L6.82804 8.19525L6.87924 8.01765C6.88212 8.00806 6.88917 7.99185 6.89737 7.97298L6.89738 7.97297L6.89738 7.97297C6.91653 7.92893 6.94196 7.87045 6.93524 7.84805C6.92851 7.82562 6.87303 7.79296 6.83108 7.76827L6.83108 7.76827L6.83104 7.76824C6.81317 7.75773 6.79777 7.74866 6.78964 7.74245L6.64404 7.63845L6.82804 7.64485C6.83724 7.64485 6.85338 7.64641 6.87238 7.64824L6.87239 7.64824L6.87246 7.64825L6.87249 7.64825L6.87258 7.64826ZM5.8584 1.62898C5.84016 1.62714 5.82466 1.62557 5.81543 1.62557L5.63623 1.62237L5.78023 1.72797C5.78726 1.73265 5.79886 1.73925 5.81255 1.74702C5.85495 1.77111 5.91736 1.80657 5.92583 1.83197C5.93418 1.85701 5.9052 1.92204 5.88526 1.96679C5.87845 1.98209 5.87268 1.99502 5.86983 2.00317L5.81543 2.17277L5.95943 2.06717C5.9672 2.06169 5.97967 2.05072 5.9943 2.03785C6.03089 2.00566 6.08103 1.96157 6.10503 1.96157C6.12886 1.96157 6.17764 2.00503 6.21369 2.03715C6.22848 2.05032 6.24112 2.06159 6.24903 2.06717L6.39463 2.17277C6.37543 2.11677 6.35623 2.05917 6.33863 2.00317C6.3358 1.9951 6.33023 1.98224 6.32363 1.96701L6.32362 1.967C6.30405 1.92186 6.27545 1.85589 6.28263 1.83197C6.2899 1.80774 6.35311 1.77159 6.39588 1.74713C6.40961 1.73928 6.42123 1.73263 6.42823 1.72797L6.57223 1.62237H6.39303C6.3838 1.62237 6.36818 1.62394 6.3498 1.62578C6.30127 1.63066 6.23356 1.63746 6.21383 1.62237C6.19362 1.60691 6.17871 1.53758 6.16844 1.48983C6.16489 1.47332 6.1619 1.45939 6.15943 1.45117C6.14023 1.39357 6.12263 1.33757 6.10503 1.27997L6.04903 1.45437C6.04655 1.46263 6.04365 1.47665 6.04021 1.49326L6.0402 1.49327L6.0402 1.49328L6.0402 1.49328L6.0402 1.49329C6.03031 1.54102 6.01599 1.61014 5.99463 1.62557C5.97374 1.64066 5.90655 1.63386 5.8584 1.62898ZM5.81543 3.34421C5.82466 3.34421 5.84016 3.34578 5.8584 3.34762C5.90655 3.3525 5.97374 3.3593 5.99463 3.34421C6.01605 3.32874 6.03038 3.26019 6.04028 3.2129L6.04028 3.21289L6.04029 3.21284C6.04369 3.19656 6.04657 3.1828 6.04903 3.17461L6.10503 3.00341C6.12263 3.06101 6.14023 3.11701 6.15943 3.17461C6.16188 3.18277 6.16485 3.19656 6.16837 3.21288L6.16837 3.2129C6.17864 3.26058 6.19357 3.32991 6.21383 3.34421C6.23356 3.35814 6.30127 3.35186 6.3498 3.34736L6.3498 3.34736L6.34984 3.34736L6.34986 3.34736C6.36821 3.34566 6.38381 3.34421 6.39303 3.34421H6.57223L6.42823 3.44821C6.42024 3.45398 6.4062 3.46222 6.38989 3.4718C6.34743 3.49672 6.28957 3.53069 6.28263 3.55381C6.27549 3.5776 6.30372 3.64206 6.32328 3.68672C6.33004 3.70214 6.33576 3.7152 6.33863 3.72341C6.3527 3.76946 6.36779 3.81448 6.38309 3.86012L6.39463 3.89461L6.24903 3.78901C6.24208 3.78369 6.23147 3.77419 6.21896 3.763C6.18254 3.7304 6.13004 3.68341 6.10503 3.68341C6.07978 3.68341 6.02562 3.7313 5.98871 3.76393C5.97651 3.77472 5.96619 3.78384 5.95943 3.78901L5.81543 3.89461C5.82423 3.86581 5.83343 3.83741 5.84263 3.80901L5.84263 3.809L5.84266 3.80892L5.84268 3.80887C5.85186 3.78052 5.86104 3.75216 5.86983 3.72341C5.87271 3.71518 5.87855 3.70219 5.88545 3.68686L5.88549 3.68678L5.88552 3.68672L5.88553 3.68669L5.88554 3.68668L5.88557 3.6866L5.88557 3.68659C5.9055 3.64232 5.93413 3.57872 5.92583 3.55381C5.91774 3.52954 5.86039 3.49608 5.81832 3.47154L5.81831 3.47153C5.80214 3.4621 5.78823 3.45398 5.78023 3.44821L5.63623 3.34421H5.81543ZM5.8584 5.06577C5.84016 5.06406 5.82466 5.06261 5.81543 5.06261H5.63623L5.78023 5.16821C5.78687 5.17264 5.7976 5.17894 5.81032 5.18641L5.81033 5.18642C5.85273 5.21132 5.91721 5.2492 5.92583 5.27381C5.93414 5.29756 5.90546 5.36181 5.88553 5.40646C5.8786 5.422 5.87272 5.43516 5.86983 5.44341C5.86104 5.47219 5.85184 5.50057 5.84265 5.52895L5.84263 5.52901C5.83343 5.55741 5.82423 5.58581 5.81543 5.61461L5.95943 5.50901C5.96618 5.50385 5.97648 5.49475 5.98866 5.48398L5.98866 5.48398L5.98869 5.48396L5.98871 5.48393C6.02562 5.4513 6.07978 5.40341 6.10503 5.40341C6.13004 5.40341 6.18254 5.4504 6.21896 5.483L6.21898 5.48302C6.23148 5.49421 6.24208 5.5037 6.24903 5.50901L6.39463 5.61461L6.38309 5.58013C6.36779 5.53449 6.3527 5.48946 6.33863 5.44341C6.33575 5.43518 6.33001 5.42218 6.32323 5.40684C6.30367 5.36256 6.2755 5.29877 6.28263 5.27381C6.28996 5.24815 6.35426 5.21127 6.39704 5.18673C6.41026 5.17915 6.42143 5.17275 6.42823 5.16821L6.57223 5.06261H6.39303C6.38382 5.06261 6.36824 5.06418 6.34991 5.06602L6.34983 5.06603L6.34982 5.06603H6.34981H6.34981H6.3498C6.30127 5.0709 6.23356 5.0777 6.21383 5.06261C6.19362 5.04716 6.17871 4.97782 6.16844 4.93008C6.16489 4.91357 6.1619 4.89964 6.15943 4.89141C6.14023 4.83381 6.12263 4.77781 6.10503 4.72021L6.04903 4.89141C6.04655 4.89969 6.04364 4.91384 6.04019 4.93062C6.0303 4.97873 6.01598 5.04838 5.99463 5.06261C5.97374 5.07654 5.90655 5.07026 5.8584 5.06577ZM5.85839 6.78256L5.8584 6.78256C5.90655 6.78743 5.97374 6.79423 5.99463 6.77915C6.01605 6.76368 6.03038 6.69513 6.04028 6.64784L6.04028 6.64782L6.04029 6.64778C6.04369 6.6315 6.04657 6.61774 6.04903 6.60955C6.0573 6.58474 6.06527 6.55994 6.0732 6.53526L6.07321 6.53524C6.08369 6.50262 6.0941 6.47022 6.10503 6.43834L6.1176 6.47853L6.11761 6.47855L6.11761 6.47856L6.11762 6.47857L6.11762 6.47858C6.1311 6.52177 6.1448 6.56566 6.15943 6.60955C6.16187 6.61767 6.16482 6.63136 6.16832 6.64759L6.16833 6.64766L6.16835 6.64774L6.16837 6.64782L6.16837 6.64784C6.17864 6.69551 6.19357 6.76484 6.21383 6.77915C6.23356 6.79307 6.30127 6.7868 6.3498 6.7823C6.36818 6.78059 6.3838 6.77915 6.39303 6.77915H6.57223L6.42823 6.88315C6.42024 6.88892 6.40621 6.89715 6.3899 6.90673L6.38989 6.90673L6.38989 6.90674C6.34743 6.93166 6.28957 6.96563 6.28263 6.98875C6.27565 7.012 6.30248 7.07414 6.32196 7.11925L6.32196 7.11926C6.32929 7.13621 6.33557 7.15077 6.33863 7.15995L6.35412 7.20719L6.35414 7.20726L6.35416 7.20733L6.35418 7.20739C6.36646 7.24505 6.38194 7.29254 6.39463 7.32955L6.24903 7.22395C6.24112 7.21836 6.22847 7.2071 6.21369 7.19392C6.17764 7.1618 6.12886 7.11835 6.10503 7.11835C6.08103 7.11835 6.03089 7.16244 5.9943 7.19463L5.99429 7.19463L5.99423 7.19468C5.97963 7.20753 5.96719 7.21847 5.95943 7.22395L5.81543 7.32955L5.86983 7.15995C5.87289 7.15077 5.87929 7.13622 5.88675 7.11927L5.88676 7.11925L5.88679 7.11919L5.88679 7.11918C5.90664 7.07407 5.93397 7.01199 5.92583 6.98875C5.91774 6.96563 5.86037 6.93165 5.81829 6.90673L5.81828 6.90672C5.80212 6.89715 5.78822 6.88892 5.78023 6.88315L5.63623 6.77915H5.81543C5.82464 6.77915 5.84011 6.78071 5.85831 6.78255L5.85839 6.78256ZM1.32006 7.76457L1.32006 7.76457C1.33774 7.75423 1.35298 7.74532 1.36109 7.73911L1.50509 7.63511H1.32589C1.31664 7.63511 1.30119 7.63669 1.28306 7.63854L1.28305 7.63854C1.23537 7.64342 1.16916 7.65018 1.14829 7.63511C1.12793 7.62041 1.11397 7.55692 1.10358 7.50967C1.09927 7.49009 1.09557 7.47329 1.09229 7.46391L1.03789 7.29431C1.02829 7.32231 1.01909 7.35071 1.00989 7.37911C1.00069 7.40751 0.991492 7.43591 0.981892 7.46391C0.979412 7.47218 0.976505 7.48621 0.973061 7.50283C0.963172 7.55057 0.948853 7.61969 0.927492 7.63511C0.906602 7.6502 0.839414 7.6434 0.79126 7.63853H0.791253L0.791245 7.63853L0.791164 7.63852H0.791157L0.79115 7.63852L0.79107 7.63851H0.791066H0.79106H0.791055H0.791048L0.79104 7.63851L0.790959 7.6385H0.790954H0.790949H0.790944L0.790937 7.6385C0.772842 7.63667 0.757466 7.63511 0.748292 7.63511H0.569092L0.714692 7.73911C0.722738 7.74527 0.737646 7.75422 0.754941 7.76461L0.754956 7.76462C0.796122 7.78934 0.850806 7.82218 0.858692 7.84471C0.866625 7.86738 0.84084 7.92698 0.821712 7.97119L0.821711 7.97119C0.813837 7.98939 0.807091 8.00498 0.804292 8.01431L0.792746 8.04882L0.792735 8.04886C0.777443 8.09447 0.762357 8.13948 0.748292 8.18551L0.892292 8.07991C0.899051 8.07474 0.909367 8.06562 0.921571 8.05483C0.958476 8.0222 1.01264 7.97431 1.03789 7.97431C1.0629 7.97431 1.1154 8.0213 1.15182 8.0539L1.15185 8.05393C1.16435 8.06511 1.17495 8.0746 1.18189 8.07991L1.32749 8.18551L1.31594 8.151C1.30065 8.10537 1.28556 8.06035 1.27149 8.01431C1.26859 8.00604 1.2627 7.99294 1.25575 7.97749C1.23582 7.93322 1.20719 7.86962 1.21549 7.84471C1.22335 7.82114 1.27847 7.7889 1.32005 7.76458L1.32006 7.76457ZM1.36109 6.02248C1.35379 6.02763 1.34074 6.0352 1.32532 6.04414C1.28328 6.06852 1.22369 6.10307 1.21549 6.12648C1.20714 6.15035 1.23617 6.21606 1.25612 6.26119L1.25612 6.2612C1.26291 6.27657 1.26865 6.28955 1.27149 6.29768C1.27678 6.31278 1.28526 6.33891 1.29477 6.36819C1.30542 6.40097 1.31735 6.4377 1.32749 6.46728L1.18189 6.36168C1.17398 6.3561 1.16134 6.34483 1.14655 6.33166C1.1105 6.29954 1.06172 6.25608 1.03789 6.25608C1.01389 6.25608 0.963755 6.30017 0.927159 6.33236C0.912528 6.34523 0.90006 6.3562 0.892292 6.36168L0.748292 6.46728C0.765892 6.41128 0.785092 6.35368 0.804292 6.29768C0.81014 6.28062 0.818511 6.26119 0.82701 6.24147C0.846414 6.19642 0.86648 6.14985 0.858692 6.12648C0.850452 6.10176 0.791114 6.06751 0.749494 6.04349C0.734544 6.03486 0.72188 6.02755 0.714692 6.02248L0.569092 5.92008H0.748292C0.757467 5.92008 0.772847 5.92163 0.790944 5.92346H0.790949H0.790954H0.790959L0.79104 5.92347L0.791048 5.92347H0.791055H0.79106H0.791066H0.79107L0.79115 5.92348L0.791157 5.92348H0.791164L0.791245 5.92349L0.791253 5.92349H0.79126C0.839414 5.92837 0.906602 5.93517 0.927492 5.92008C0.948908 5.90461 0.963246 5.83606 0.973138 5.78877C0.976548 5.77246 0.97943 5.75868 0.981892 5.75048L1.03789 5.57928C1.04669 5.60808 1.05589 5.63648 1.06509 5.66488C1.07429 5.69328 1.08349 5.72168 1.09229 5.75048C1.09555 5.7598 1.09922 5.77644 1.1035 5.79584C1.1139 5.84303 1.12788 5.90647 1.14829 5.92008C1.16916 5.93399 1.23537 5.92774 1.28305 5.92325C1.30118 5.92154 1.31664 5.92008 1.32589 5.92008H1.50509L1.36109 6.02248ZM4.84255 2.48812C4.82417 2.48627 4.80855 2.4847 4.79932 2.4847L4.62012 2.4895L4.76572 2.5951C4.77303 2.60026 4.78624 2.60774 4.80184 2.61657C4.84425 2.64056 4.9043 2.67454 4.91132 2.6991C4.91849 2.7242 4.88996 2.78945 4.87039 2.83421C4.86376 2.84939 4.85815 2.8622 4.85532 2.8703C4.84572 2.8983 4.83652 2.9267 4.82732 2.9551C4.81812 2.9835 4.80892 3.0119 4.79932 3.0399L4.94492 2.9295C4.95281 2.92393 4.96527 2.91272 4.97985 2.89959C5.01554 2.86746 5.06392 2.8239 5.08892 2.8239C5.11408 2.8239 5.16379 2.86807 5.20002 2.90026L5.20002 2.90027L5.20003 2.90028C5.21447 2.91311 5.22677 2.92403 5.23452 2.9295L5.37852 3.0351C5.36092 2.9791 5.34172 2.9215 5.32252 2.8655C5.31968 2.85605 5.31266 2.84003 5.30445 2.82133C5.28489 2.77673 5.25863 2.71685 5.26652 2.6943C5.27471 2.67089 5.3343 2.63634 5.37635 2.61196C5.39176 2.60302 5.40482 2.59545 5.41212 2.5903L5.55772 2.4847H5.37852C5.3693 2.4847 5.3537 2.48615 5.33535 2.48785L5.33533 2.48785L5.33529 2.48785L5.33529 2.48785C5.28676 2.49235 5.21905 2.49863 5.19932 2.4847C5.17906 2.4704 5.16412 2.40107 5.15386 2.35339C5.15034 2.33706 5.14737 2.32327 5.14492 2.3151L5.08892 2.1439C5.08012 2.1727 5.07092 2.2011 5.06172 2.2295C5.05252 2.2579 5.04332 2.2863 5.03452 2.3151C5.03124 2.32447 5.02741 2.3411 5.02296 2.36046C5.01219 2.40725 4.99776 2.46999 4.97852 2.4847C4.95879 2.49979 4.89108 2.49299 4.84255 2.48812ZM4.84254 4.20669H4.84255C4.89108 4.21156 4.95879 4.21836 4.97852 4.20328C4.99771 4.1886 5.01212 4.12533 5.02288 4.07811L5.02288 4.0781L5.02289 4.07806C5.02737 4.05838 5.03122 4.04149 5.03452 4.03208L5.08892 3.86248C5.09852 3.89047 5.10772 3.91887 5.11691 3.94727C5.12612 3.97567 5.13532 4.00407 5.14492 4.03208C5.15177 4.05207 5.1572 4.07696 5.16258 4.10164L5.16258 4.10165C5.17228 4.1461 5.18183 4.1899 5.19932 4.20328C5.21905 4.21836 5.28676 4.21156 5.33529 4.20669H5.33529H5.3353H5.33531L5.33532 4.20669L5.33539 4.20668C5.35372 4.20484 5.36931 4.20328 5.37852 4.20328H5.55772L5.41212 4.30888C5.404 4.31508 5.38877 4.32399 5.37109 4.33433L5.37108 4.33434L5.37108 4.33434C5.32949 4.35866 5.27437 4.3909 5.26652 4.41448C5.25865 4.43807 5.28472 4.49639 5.30426 4.5401L5.30426 4.54011L5.30427 4.54012L5.30427 4.54013L5.30427 4.54013L5.30427 4.54014C5.31255 4.55866 5.31966 4.57455 5.32252 4.58408L5.33407 4.6186C5.34936 4.66422 5.36445 4.70924 5.37852 4.75528L5.23452 4.64968C5.22772 4.64448 5.21741 4.63527 5.20523 4.62439C5.16871 4.59177 5.11532 4.54408 5.08892 4.54408C5.06276 4.54408 5.01097 4.59092 4.97493 4.62351L4.97491 4.62353L4.97489 4.62355L4.97488 4.62355C4.96245 4.6348 4.95189 4.64434 4.94492 4.64968L4.79932 4.75528L4.85532 4.58408C4.85819 4.57587 4.8639 4.56282 4.87065 4.54741L4.87066 4.54739L4.87067 4.54738C4.89023 4.50272 4.91845 4.43826 4.91132 4.41448C4.90459 4.39204 4.8491 4.35939 4.80716 4.3347C4.78927 4.32417 4.77385 4.31509 4.76572 4.30888L4.62012 4.20328H4.79932C4.80853 4.20328 4.82411 4.20484 4.84244 4.20668L4.84252 4.20669L4.84253 4.20669H4.84253H4.84254ZM4.84266 5.92349H4.84265H4.84264H4.84263L4.84263 5.92349L4.84255 5.92349C4.82422 5.92164 4.80864 5.92008 4.79943 5.92008H4.62183L4.76583 6.02568C4.77314 6.03084 4.78635 6.03832 4.80195 6.04714L4.80196 6.04715C4.84437 6.07114 4.90441 6.10512 4.91143 6.12968C4.91801 6.15273 4.89824 6.19838 4.87898 6.24285C4.87016 6.2632 4.86145 6.2833 4.85543 6.30088C4.84583 6.32888 4.83662 6.35729 4.82742 6.38569C4.81822 6.41409 4.80902 6.44248 4.79943 6.47048L4.94503 6.36488C4.95291 6.35931 4.96538 6.34809 4.97996 6.33497C5.01565 6.30283 5.06403 6.25928 5.08903 6.25928C5.11419 6.25928 5.1639 6.30344 5.20013 6.33564L5.20013 6.33564C5.21457 6.34848 5.22687 6.35941 5.23463 6.36488L5.37863 6.47048C5.36965 6.44191 5.35775 6.40668 5.34698 6.37477C5.33664 6.34413 5.32733 6.31655 5.32263 6.30088C5.31979 6.29143 5.31277 6.27541 5.30456 6.25671L5.30456 6.25671C5.285 6.2121 5.25873 6.15223 5.26663 6.12968C5.27482 6.10627 5.33441 6.07172 5.37645 6.04734L5.37648 6.04733C5.39188 6.03839 5.40493 6.03083 5.41223 6.02568L5.55783 5.92008H5.37863C5.3694 5.92008 5.35377 5.92153 5.3354 5.92323C5.28687 5.92773 5.21916 5.93401 5.19943 5.92008C5.17917 5.90578 5.16423 5.83645 5.15396 5.78877L5.15396 5.78875L5.15394 5.78867L5.15393 5.7886L5.15391 5.78852L5.1539 5.78845L5.15388 5.78837L5.15387 5.78829L5.15385 5.78822L5.15383 5.78814L5.15382 5.78807L5.1538 5.78799L5.15379 5.78792C5.15034 5.77195 5.14743 5.7585 5.14503 5.75048L5.08903 5.57928C5.08023 5.60808 5.07103 5.63648 5.06183 5.66488C5.05263 5.69328 5.04343 5.72168 5.03463 5.75048C5.03135 5.75984 5.02752 5.77646 5.02307 5.79581L5.02307 5.79583L5.02307 5.79583C5.0123 5.84262 4.99787 5.90537 4.97863 5.92008C4.9589 5.93517 4.89119 5.92837 4.84266 5.92349ZM4.84254 7.64163H4.84255C4.89108 7.6465 4.95879 7.6533 4.97852 7.63821C4.99771 7.62353 5.01212 7.56027 5.02288 7.51304L5.02288 7.51303L5.02289 7.513C5.02737 7.49331 5.03122 7.47642 5.03452 7.46701L5.08892 7.29741C5.09852 7.32541 5.10771 7.3538 5.11691 7.3822C5.12611 7.4106 5.13532 7.43901 5.14492 7.46701C5.14738 7.47523 5.15038 7.48916 5.15393 7.50567L5.15393 7.50568C5.1642 7.55342 5.17911 7.62276 5.19932 7.63821C5.21905 7.6533 5.28676 7.6465 5.33529 7.64163H5.33529H5.3353H5.33531L5.33532 7.64162L5.33539 7.64162C5.35372 7.63978 5.36931 7.63821 5.37852 7.63821H5.55772L5.41212 7.74221C5.404 7.74842 5.38877 7.75733 5.37109 7.76767L5.37108 7.76767L5.37108 7.76767C5.32949 7.792 5.27437 7.82424 5.26652 7.84781C5.25865 7.87141 5.28473 7.92975 5.30427 7.97347L5.30428 7.97348C5.31255 7.99199 5.31966 8.00789 5.32252 8.01741L5.33406 8.05191C5.34936 8.09755 5.36445 8.14257 5.37852 8.18861L5.23452 8.08301C5.22772 8.07781 5.21741 8.06861 5.20523 8.05773L5.20523 8.05772C5.1687 8.0251 5.11531 7.97741 5.08892 7.97741C5.06276 7.97741 5.011 8.02423 4.97496 8.05682L4.97495 8.05683L4.97494 8.05683L4.97493 8.05684L4.97493 8.05685C4.96247 8.06811 4.9519 8.07767 4.94492 8.08301L4.79932 8.18861L4.85532 8.01741C4.85819 8.0092 4.86391 7.99614 4.87066 7.98072C4.89022 7.93606 4.91845 7.8716 4.91132 7.84781C4.90459 7.82538 4.8491 7.79272 4.80716 7.76803C4.78927 7.75751 4.77385 7.74843 4.76572 7.74221C4.73852 7.72141 4.66972 7.67181 4.62012 7.63821H4.79932C4.80853 7.63821 4.82411 7.63978 4.84244 7.64162L4.84252 7.64162L4.84253 7.64163H4.84253H4.84254ZM3.83132 1.62898L3.83131 1.62898L3.83129 1.62898L3.83129 1.62898L3.83127 1.62898L3.83126 1.62898C3.81291 1.62713 3.79731 1.62557 3.78809 1.62557L3.60889 1.62237L3.75449 1.72797C3.76167 1.73304 3.77433 1.74035 3.78928 1.74897L3.78928 1.74898L3.78929 1.74898C3.83091 1.773 3.89025 1.80725 3.89849 1.83197C3.90646 1.85588 3.88039 1.91628 3.86123 1.96064C3.85348 1.97861 3.84685 1.99395 3.84409 2.00317C3.82489 2.05917 3.80569 2.11677 3.78809 2.17277L3.93209 2.06717C3.93986 2.06169 3.95232 2.05072 3.96695 2.03785C4.00355 2.00566 4.05368 1.96157 4.07769 1.96157C4.10152 1.96157 4.15029 2.00502 4.18635 2.03715L4.18636 2.03715L4.18637 2.03716L4.18637 2.03717C4.20114 2.05033 4.21378 2.06159 4.22169 2.06717L4.36729 2.17277C4.35769 2.14477 4.34849 2.11637 4.33929 2.08797C4.33009 2.05957 4.32089 2.03117 4.31129 2.00317C4.30844 1.99504 4.30271 1.98206 4.29592 1.96669L4.29591 1.96668C4.27597 1.92155 4.24693 1.85584 4.25529 1.83197C4.26348 1.80855 4.32307 1.774 4.36512 1.74963L4.36512 1.74963L4.36515 1.74961C4.38055 1.74068 4.39359 1.73312 4.40089 1.72797L4.54649 1.62237H4.36729C4.35806 1.62237 4.34255 1.62394 4.32432 1.62578C4.27617 1.63066 4.20898 1.63746 4.18809 1.62237C4.16773 1.60766 4.15376 1.54418 4.14337 1.49693C4.13906 1.47734 4.13537 1.46054 4.13209 1.45117C4.12329 1.42237 4.11409 1.39397 4.10489 1.36557C4.09569 1.33717 4.08649 1.30877 4.07769 1.27997L4.02169 1.45437C4.01922 1.46259 4.01622 1.47652 4.01267 1.49303C4.00241 1.54078 3.9875 1.61011 3.96729 1.62557C3.94756 1.64066 3.87985 1.63386 3.83132 1.62898ZM3.78809 3.34421C3.79732 3.34421 3.81294 3.34578 3.83132 3.34762C3.87985 3.3525 3.94756 3.3593 3.96729 3.34421C3.98756 3.32871 4.00249 3.2599 4.01276 3.2126L4.01277 3.21257C4.01628 3.19641 4.01924 3.18276 4.02169 3.17461L4.07769 3.00341C4.08649 3.03221 4.09569 3.06061 4.10489 3.08901C4.11409 3.11741 4.12329 3.14581 4.13209 3.17461C4.13535 3.18393 4.13902 3.20058 4.14329 3.21996C4.15369 3.26716 4.16767 3.3306 4.18809 3.34421C4.20898 3.35814 4.27617 3.35186 4.32432 3.34736L4.32432 3.34736C4.34256 3.34566 4.35806 3.34421 4.36729 3.34421H4.54649L4.40089 3.44821C4.39273 3.45445 4.37738 3.46356 4.35959 3.47413C4.31803 3.4988 4.26313 3.5314 4.25529 3.55381C4.24698 3.57755 4.27566 3.6418 4.29559 3.68645L4.29559 3.68646C4.30252 3.70199 4.3084 3.71515 4.31129 3.72341L4.36729 3.89461L4.22169 3.78901C4.21474 3.78369 4.20413 3.7742 4.19162 3.76301L4.19161 3.763C4.15519 3.7304 4.1027 3.68341 4.07769 3.68341C4.05244 3.68341 3.99829 3.73128 3.96139 3.76391L3.96138 3.76392L3.96138 3.76392L3.96137 3.76392L3.96137 3.76393L3.96137 3.76393C3.94916 3.77472 3.93885 3.78384 3.93209 3.78901L3.78809 3.89461C3.80215 3.84857 3.81724 3.80356 3.83254 3.75793L3.84409 3.72341C3.84688 3.71409 3.85361 3.69867 3.86147 3.68067C3.8806 3.63682 3.90643 3.57763 3.89849 3.55381C3.89059 3.53011 3.83573 3.49766 3.79454 3.47329C3.77733 3.46311 3.7625 3.45434 3.75449 3.44821C3.74036 3.43741 3.7146 3.41928 3.68637 3.39941L3.68635 3.3994L3.6863 3.39937C3.66017 3.38098 3.63195 3.36112 3.60889 3.34421H3.78809ZM3.83132 5.06577C3.81294 5.06406 3.79732 5.06261 3.78809 5.06261H3.60889L3.75449 5.16821C3.76142 5.17311 3.77344 5.18028 3.78769 5.18879C3.82937 5.21368 3.89014 5.24997 3.89849 5.27381C3.90642 5.29648 3.88063 5.35608 3.86151 5.40029C3.85363 5.41849 3.84689 5.43408 3.84409 5.44341L3.83254 5.47793C3.81724 5.52356 3.80215 5.56858 3.78809 5.61461L3.93209 5.50901C3.93885 5.50385 3.94916 5.49472 3.96137 5.48393C3.99827 5.4513 4.05244 5.40341 4.07769 5.40341C4.1027 5.40341 4.15519 5.4504 4.19161 5.483C4.20412 5.4942 4.21473 5.5037 4.22169 5.50901L4.36729 5.61461L4.31129 5.44341C4.30839 5.43514 4.3025 5.42204 4.29554 5.4066C4.27561 5.36232 4.24698 5.29872 4.25529 5.27381C4.26356 5.24898 4.32428 5.21366 4.36638 5.18917C4.38124 5.18052 4.39379 5.17322 4.40089 5.16821L4.54649 5.06261H4.36729C4.35807 5.06261 4.3426 5.06418 4.32441 5.06602L4.32433 5.06603L4.32432 5.06603C4.27617 5.0709 4.20898 5.0777 4.18809 5.06261C4.16773 5.04791 4.15376 4.98442 4.14337 4.93717C4.13906 4.91759 4.13537 4.90079 4.13209 4.89141C4.12329 4.86261 4.11409 4.83421 4.10489 4.80581L4.10488 4.80579C4.09568 4.7774 4.08648 4.749 4.07769 4.72021L4.02169 4.89141C4.01922 4.89964 4.01622 4.91369 4.01267 4.93035L4.01266 4.93036L4.01266 4.93037C4.0024 4.97849 3.98749 5.04835 3.96729 5.06261C3.94756 5.07654 3.87985 5.07026 3.83132 5.06577ZM3.83131 6.78256H3.83132C3.87985 6.78743 3.94756 6.79423 3.96729 6.77915C3.98755 6.76365 4.00249 6.69484 4.01276 6.64754L4.01276 6.64754C4.01627 6.63136 4.01924 6.6177 4.02169 6.60955C4.02996 6.58473 4.03793 6.55991 4.04587 6.53522C4.05635 6.50261 4.06676 6.47022 4.07769 6.43834C4.08479 6.46095 4.09216 6.48381 4.09957 6.50684L4.09959 6.5069C4.11054 6.54089 4.1216 6.57522 4.13209 6.60955C4.13535 6.61886 4.13902 6.63551 4.14329 6.6549C4.15369 6.70209 4.16767 6.76554 4.18809 6.77915C4.20898 6.79307 4.27617 6.7868 4.32432 6.7823C4.34255 6.78059 4.35806 6.77915 4.36729 6.77915H4.54649L4.40089 6.88315C4.39273 6.88938 4.37738 6.8985 4.35959 6.90906C4.31803 6.93374 4.26313 6.96634 4.25529 6.98875C4.24715 7.01199 4.27447 7.07407 4.29432 7.11917C4.3018 7.13617 4.30822 7.15075 4.31129 7.15995L4.32678 7.2072C4.33906 7.24488 4.35458 7.29247 4.36729 7.32955L4.22169 7.22395C4.21378 7.21836 4.20113 7.2071 4.18635 7.19392C4.15029 7.1618 4.10152 7.11835 4.07769 7.11835C4.05368 7.11835 4.00355 7.16244 3.96695 7.19463L3.96695 7.19463L3.96692 7.19466L3.96689 7.19469L3.96687 7.1947C3.95228 7.20754 3.93984 7.21847 3.93209 7.22395L3.78809 7.32955C3.80569 7.27355 3.82489 7.21595 3.84409 7.15995C3.84992 7.14294 3.85826 7.12343 3.86673 7.1036C3.88615 7.05814 3.90629 7.01103 3.89849 6.98875C3.8906 6.96621 3.83592 6.93337 3.79475 6.90865L3.79474 6.90864L3.79468 6.90861C3.77741 6.89823 3.76253 6.88929 3.75449 6.88315C3.74037 6.87235 3.7146 6.85422 3.68637 6.83435C3.66022 6.81596 3.63197 6.79607 3.60889 6.77915H3.78809C3.79731 6.77915 3.81293 6.78071 3.8313 6.78256L3.83131 6.78256ZM2.81831 2.48812C2.80007 2.48627 2.78457 2.4847 2.77534 2.4847L2.60254 2.4895L2.74654 2.5951C2.75385 2.60026 2.76693 2.60773 2.78238 2.61655C2.82442 2.64055 2.88395 2.67453 2.89214 2.6991C2.90049 2.72414 2.87151 2.78917 2.85157 2.83392L2.85157 2.83393L2.85157 2.83393L2.85156 2.83394C2.84475 2.84923 2.83899 2.86215 2.83614 2.8703C2.81854 2.9263 2.79934 2.9839 2.78014 3.0399L2.92574 2.9343C2.93363 2.92874 2.94608 2.91752 2.96066 2.9044L2.96067 2.90439L2.96067 2.90439C2.99637 2.87226 3.04475 2.8287 3.06974 2.8287C3.09491 2.8287 3.14461 2.87287 3.18084 2.90507L3.18085 2.90507L3.18085 2.90507C3.19529 2.9179 3.20759 2.92883 3.21534 2.9343L3.35934 3.0399L3.29854 2.8655C3.29571 2.85743 3.29014 2.84456 3.28353 2.82933C3.26396 2.78419 3.23536 2.71823 3.24254 2.6943C3.24981 2.67008 3.31301 2.63393 3.35579 2.60946C3.36952 2.60161 3.38114 2.59497 3.38814 2.5903L3.53214 2.4847H3.35294C3.34373 2.4847 3.32814 2.48615 3.30981 2.48784H3.3098L3.30976 2.48785L3.30976 2.48785L3.30971 2.48785L3.30971 2.48785C3.26118 2.49235 3.19347 2.49863 3.17374 2.4847C3.15348 2.4704 3.13855 2.40107 3.12828 2.35339L3.12828 2.35339L3.12827 2.35338L3.12827 2.35335C3.12475 2.33703 3.12179 2.32326 3.11934 2.3151L3.06334 2.1439C3.05454 2.1727 3.04534 2.2011 3.03614 2.2295C3.02694 2.2579 3.01774 2.2863 3.00894 2.3151C3.00648 2.3233 3.0036 2.33708 3.00019 2.35338L3.00018 2.35339C2.99029 2.40069 2.97596 2.46924 2.95454 2.4847C2.93365 2.49979 2.86646 2.49299 2.81831 2.48812ZM2.81835 4.20669H2.81836C2.86651 4.21156 2.9337 4.21836 2.95459 4.20328C2.97595 4.18785 2.99027 4.11873 3.00016 4.071C3.0036 4.05437 3.00651 4.04034 3.00899 4.03208L3.06339 3.86248C3.07299 3.89048 3.08219 3.91888 3.09139 3.94728L3.0914 3.94729L3.0914 3.94731C3.1006 3.9757 3.1098 4.00409 3.11939 4.03208C3.12625 4.05207 3.13167 4.07696 3.13706 4.10165C3.14675 4.1461 3.1563 4.1899 3.17379 4.20328C3.19352 4.21836 3.26123 4.21156 3.30976 4.20669H3.30977L3.30978 4.20669C3.32815 4.20484 3.34377 4.20328 3.35299 4.20328H3.53219L3.38819 4.30888C3.38019 4.31465 3.36615 4.32277 3.34982 4.33221L3.34982 4.33222L3.34981 4.33222C3.30736 4.35676 3.24952 4.39021 3.24259 4.41448C3.23546 4.43943 3.26363 4.50322 3.28319 4.5475C3.28997 4.56284 3.29571 4.57584 3.29859 4.58408C3.30739 4.61287 3.31659 4.64126 3.32579 4.66966L3.32579 4.66968C3.33499 4.69808 3.34419 4.72648 3.35299 4.75528L3.20899 4.64968C3.20219 4.64448 3.19189 4.63527 3.17971 4.62439C3.14318 4.59177 3.08979 4.54408 3.06339 4.54408C3.03723 4.54408 2.98544 4.59092 2.9494 4.62351C2.93695 4.63478 2.92638 4.64434 2.91939 4.64968L2.77379 4.75528L2.78534 4.72076C2.80063 4.67513 2.81572 4.63012 2.82979 4.58408C2.83268 4.57583 2.83855 4.56268 2.84547 4.54717L2.84549 4.54713L2.84549 4.54713L2.84549 4.54712C2.86542 4.50247 2.8941 4.43822 2.88579 4.41448C2.87795 4.39207 2.82305 4.35947 2.78149 4.33479L2.78148 4.33479C2.76369 4.32422 2.74835 4.31511 2.74019 4.30888L2.59619 4.20328H2.77539C2.78462 4.20328 2.80012 4.20484 2.81834 4.20669L2.81835 4.20669ZM2.81831 5.92349L2.8183 5.92349L2.81822 5.92348H2.81822H2.81821C2.80002 5.92164 2.78455 5.92008 2.77534 5.92008H2.60254L2.74654 6.02568C2.75385 6.03084 2.76693 6.03831 2.78238 6.04713C2.82442 6.07112 2.88395 6.10511 2.89214 6.12968C2.89949 6.15175 2.88062 6.19452 2.86182 6.23715C2.85199 6.25942 2.84218 6.28166 2.83614 6.30088C2.81854 6.35688 2.79934 6.41448 2.78014 6.47048L2.92574 6.36488C2.93363 6.35931 2.94609 6.34809 2.96067 6.33497C2.99636 6.30283 3.04475 6.25928 3.06974 6.25928C3.09491 6.25928 3.14461 6.30345 3.18084 6.33564L3.18085 6.33565C3.19529 6.34848 3.20759 6.35941 3.21534 6.36488L3.35934 6.47048L3.29854 6.30088C3.29571 6.2928 3.29014 6.27994 3.28353 6.26471C3.26396 6.21957 3.23536 6.1536 3.24254 6.12968C3.24981 6.10545 3.31301 6.06931 3.35579 6.04484C3.36952 6.03699 3.38114 6.03034 3.38814 6.02568L3.53214 5.92008H3.35294C3.34371 5.92008 3.32808 5.92153 3.30971 5.92323C3.26118 5.92773 3.19347 5.93401 3.17374 5.92008C3.15348 5.90578 3.13855 5.83645 3.12828 5.78877C3.12476 5.77244 3.12179 5.75865 3.11934 5.75048L3.06334 5.57928C3.05454 5.60808 3.04534 5.63648 3.03614 5.66488C3.02694 5.69328 3.01774 5.72168 3.00894 5.75048C3.00648 5.75868 3.0036 5.77246 3.00019 5.78876L3.00018 5.78877C2.99029 5.83606 2.97596 5.90461 2.95454 5.92008C2.93365 5.93517 2.86646 5.92837 2.81831 5.92349ZM2.3325 6.90596L2.33249 6.90596C2.29093 6.93064 2.23603 6.96324 2.22819 6.98565C2.22046 7.00771 2.24545 7.06476 2.26486 7.10908C2.2736 7.12904 2.28121 7.14641 2.28419 7.15685C2.29379 7.19045 2.32099 7.27045 2.34019 7.32645L2.19619 7.22085C2.18724 7.21489 2.17321 7.20244 2.15706 7.18812L2.15705 7.18811C2.12118 7.15631 2.07485 7.11525 2.05059 7.11525C2.02559 7.11525 1.97721 7.1588 1.94152 7.19094C1.92694 7.20406 1.91447 7.21528 1.90659 7.22085L1.76099 7.32645C1.77059 7.29845 1.77979 7.27004 1.78899 7.24164C1.79819 7.21324 1.80739 7.18485 1.81699 7.15685C1.823 7.1393 1.83169 7.11909 1.84048 7.09862L1.84048 7.09862L1.84048 7.09861C1.85976 7.05374 1.87958 7.00762 1.87299 6.98565C1.86633 6.96346 1.81429 6.93281 1.77234 6.9081C1.75378 6.89717 1.7372 6.88741 1.72739 6.88005L1.58179 6.77605H1.75939C1.7686 6.77605 1.78479 6.77761 1.80383 6.77945L1.80384 6.77945L1.80392 6.77946L1.80393 6.77946C1.85433 6.78433 1.92466 6.79113 1.93859 6.77605C1.95197 6.76155 1.96846 6.70043 1.98101 6.65388L1.98102 6.65387L1.98102 6.65386L1.98102 6.65386C1.98648 6.63362 1.99119 6.61614 1.99459 6.60645C2.00507 6.57213 2.01613 6.53781 2.02707 6.50382L2.02708 6.5038C2.0345 6.48076 2.04188 6.45787 2.04899 6.43525C2.0561 6.45788 2.06347 6.48077 2.0709 6.50381L2.07091 6.50387L2.07092 6.50388L2.07092 6.50389C2.08186 6.53785 2.09291 6.57215 2.10339 6.60645C2.10665 6.61576 2.11032 6.6324 2.11459 6.65179L2.11459 6.6518C2.12499 6.69899 2.13897 6.76244 2.15939 6.77605C2.18028 6.78997 2.24747 6.7837 2.29562 6.7792C2.31385 6.77749 2.32936 6.77605 2.33859 6.77605H2.51779L2.37379 6.88005C2.36563 6.88628 2.35029 6.89539 2.3325 6.90596ZM2.33928 5.18403C2.35414 5.17538 2.36669 5.16808 2.37379 5.16307L2.51779 5.05907H2.33859C2.32936 5.05907 2.31386 5.06064 2.29563 5.06249L2.29563 5.06249H2.29562C2.24747 5.06736 2.18028 5.07416 2.15939 5.05907C2.13903 5.04437 2.12506 4.98088 2.11467 4.93363C2.11036 4.91405 2.10667 4.89725 2.10339 4.88787C2.09459 4.85907 2.08539 4.83068 2.07619 4.80228C2.06699 4.77388 2.05779 4.74547 2.04899 4.71667C2.04019 4.74547 2.03099 4.77387 2.02179 4.80227C2.01259 4.83067 2.00339 4.85907 1.99459 4.88787C1.99117 4.89763 1.98642 4.91557 1.98091 4.93634L1.98091 4.93637L1.9809 4.93638C1.96836 4.98372 1.95193 5.04573 1.93859 5.05907C1.92466 5.073 1.85433 5.06672 1.80393 5.06222C1.78484 5.06052 1.76862 5.05907 1.75939 5.05907H1.58179L1.72739 5.16467C1.73447 5.16968 1.7471 5.17707 1.76207 5.18583C1.80455 5.2107 1.86589 5.24661 1.87299 5.27027C1.87971 5.29268 1.85428 5.35115 1.83513 5.39519C1.82692 5.41406 1.81987 5.43028 1.81699 5.43987L1.76099 5.60947C1.78167 5.59431 1.80652 5.57646 1.83027 5.5594L1.83032 5.55937C1.86167 5.53685 1.89112 5.5157 1.90659 5.50387C1.91357 5.49853 1.92414 5.48897 1.93659 5.47771C1.97263 5.44512 2.02443 5.39827 2.05059 5.39827C2.07588 5.39827 2.12512 5.44205 2.16153 5.47442C2.17579 5.48709 2.18808 5.49802 2.19619 5.50387L2.34019 5.60947L2.28419 5.43827C2.28133 5.42875 2.27422 5.41285 2.26594 5.39433C2.2464 5.35061 2.22032 5.29228 2.22819 5.26867C2.23646 5.24384 2.29718 5.20852 2.33928 5.18403ZM2.37379 3.44467C2.36563 3.45091 2.35028 3.46002 2.33249 3.47059C2.29093 3.49526 2.23603 3.52786 2.22819 3.55027C2.22033 3.57273 2.24635 3.63143 2.26589 3.6755C2.27419 3.69424 2.28132 3.71033 2.28419 3.71987L2.34019 3.89107L2.19619 3.78547C2.18808 3.77961 2.17579 3.76869 2.16153 3.75601L2.16153 3.75601L2.16153 3.75601C2.12512 3.72365 2.07588 3.67987 2.05059 3.67987C2.02443 3.67987 1.97264 3.72671 1.9366 3.7593L1.93659 3.75931C1.92414 3.77057 1.91357 3.78013 1.90659 3.78547L1.76099 3.89107L1.81699 3.71987C1.81986 3.7103 1.82688 3.69428 1.83506 3.67563C1.85422 3.63194 1.87972 3.57382 1.87299 3.55027C1.86624 3.52667 1.81055 3.49438 1.76858 3.47005L1.76858 3.47005C1.7508 3.45974 1.73548 3.45086 1.72739 3.44467L1.58179 3.34067H1.75939C1.76862 3.34067 1.78484 3.34224 1.80393 3.34408C1.85433 3.34896 1.92466 3.35576 1.93859 3.34067C1.95197 3.32617 1.96846 3.26504 1.98102 3.21848C1.98648 3.19825 1.99119 3.18077 1.99459 3.17107C2.00339 3.14227 2.01259 3.11387 2.02179 3.08547C2.03099 3.05707 2.04019 3.02867 2.04899 2.99987C2.05779 3.02867 2.06699 3.05707 2.07619 3.08547C2.08539 3.11387 2.09459 3.14227 2.10339 3.17107C2.10665 3.18039 2.11032 3.19703 2.11459 3.21642C2.12499 3.26362 2.13897 3.32706 2.15939 3.34067C2.18028 3.3546 2.24747 3.34832 2.29562 3.34382L2.29562 3.34382C2.31386 3.34212 2.32936 3.34067 2.33859 3.34067H2.51779L2.37379 3.44467ZM2.59619 7.63511L2.74019 7.73911V7.74231C2.74868 7.7488 2.76496 7.7581 2.78368 7.76879C2.82495 7.79235 2.87809 7.8227 2.88579 7.84471C2.8941 7.86845 2.86542 7.93271 2.84549 7.97736C2.83856 7.99289 2.83268 8.00605 2.82979 8.01431C2.81572 8.06035 2.80063 8.10537 2.78534 8.151C2.7815 8.16246 2.77764 8.17395 2.77379 8.18551L2.91939 8.07991C2.92638 8.07457 2.93695 8.06501 2.9494 8.05375C2.98544 8.02116 3.03723 7.97431 3.06339 7.97431C3.08979 7.97431 3.14318 8.02201 3.17971 8.05463C3.19189 8.06551 3.20219 8.07471 3.20899 8.07991L3.35299 8.18551C3.34419 8.15671 3.33499 8.12832 3.32579 8.09992C3.31659 8.07152 3.30739 8.04311 3.29859 8.01431C3.29571 8.00608 3.28997 7.99308 3.28319 7.97774C3.26363 7.93345 3.23546 7.86967 3.24259 7.84471C3.24953 7.82044 3.30737 7.78699 3.34982 7.76245C3.36615 7.75301 3.38019 7.74489 3.38819 7.73911L3.53219 7.63511H3.35299C3.34376 7.63511 3.32814 7.63668 3.30976 7.63853C3.26123 7.6434 3.19352 7.6502 3.17379 7.63511C3.15358 7.61966 3.13867 7.55032 3.1284 7.50258C3.12485 7.48607 3.12186 7.47214 3.11939 7.46391C3.10979 7.43591 3.10059 7.40751 3.09139 7.37911C3.08219 7.35071 3.07299 7.32231 3.06339 7.29431L3.00899 7.46391C3.00651 7.47218 3.0036 7.48621 3.00016 7.50283C2.99027 7.55057 2.97595 7.61969 2.95459 7.63511C2.9337 7.6502 2.86651 7.6434 2.81836 7.63853C2.80013 7.63668 2.78462 7.63511 2.77539 7.63511H2.59619Z" fill="#0437A0"/>
<path fill-rule="evenodd" clip-rule="evenodd" d="M0.858447 4.41242C0.869647 4.44442 0.813647 4.55002 0.804047 4.58202C0.784847 4.63962 0.765647 4.69562 0.748047 4.75322L0.892047 4.64762C0.919247 4.62682 1.00245 4.54202 1.03765 4.54202C1.07285 4.54202 1.15445 4.62682 1.18165 4.64762L1.32725 4.75322C1.30805 4.69562 1.28885 4.63962 1.27125 4.58202C1.26005 4.55002 1.20405 4.44442 1.21525 4.41242C1.22645 4.38042 1.33365 4.32762 1.36085 4.30682L1.50485 4.20122H1.32565C1.29205 4.20122 1.17525 4.22202 1.14805 4.20122C1.12085 4.18042 1.10325 4.06202 1.09205 4.03002L1.07765 3.98682C0.999247 4.12282 0.917647 4.26202 0.853647 4.40122C0.855247 4.40602 0.858447 4.40922 0.858447 4.41242Z" fill="#F4F4F4"/>
<path fill-rule="evenodd" clip-rule="evenodd" d="M5.03623 0.59658C5.02503 0.62858 5.00903 0.74698 4.98023 0.76778C4.95143 0.78858 4.83463 0.76778 4.80103 0.76778H4.62183L4.76743 0.87338C4.79463 0.89258 4.90183 0.94538 4.91303 0.97898C4.92423 1.01258 4.86823 1.11658 4.85703 1.14858L4.79943 1.31818L4.94503 1.21258C4.97223 1.19178 5.05543 1.10698 5.08903 1.10698C5.12263 1.10698 5.20743 1.19178 5.23463 1.21258L5.37863 1.31818C5.36103 1.26058 5.34183 1.20458 5.32263 1.14698C5.31303 1.11498 5.25703 1.00938 5.26663 0.97738C5.27623 0.94538 5.38503 0.89098 5.41223 0.87178L5.55783 0.76618H5.38023C5.34663 0.76618 5.22023 0.78538 5.20103 0.76618C5.18183 0.74698 5.15623 0.62698 5.14663 0.59498L5.11943 0.53418L5.03943 0.56458L5.03623 0.59658Z" fill="#F4F4F4"/>
<path fill-rule="evenodd" clip-rule="evenodd" d="M0.168963 7.20845L0.312963 7.31085C0.295363 7.25655 0.276163 7.2007 0.256963 7.14639C0.237763 7.09209 0.191363 7.01141 0.202563 6.98038C0.213763 6.94935 0.319363 6.89815 0.346563 6.87798C0.373763 6.85781 0.444163 6.81127 0.492163 6.77713H0.319363C0.285763 6.77713 0.167363 6.7973 0.140163 6.77713C0.123074 6.76133 0.110411 6.74158 0.103363 6.71973C0.0809633 6.8454 0.0633633 6.97883 0.0473633 7.11381C0.0897621 7.14304 0.130365 7.17464 0.168963 7.20845Z" fill="#F4F4F4"/>
<path fill-rule="evenodd" clip-rule="evenodd" d="M6.94013 6.12901C6.94973 6.16261 6.89373 6.26821 6.88413 6.30021C6.87453 6.33221 6.84733 6.41381 6.82813 6.46981L6.97213 6.36421C6.99933 6.34501 7.08413 6.25861 7.11773 6.25861C7.15133 6.25861 7.23453 6.34501 7.26173 6.36421L7.40733 6.46981C7.38813 6.41381 7.37053 6.35621 7.35133 6.30021C7.33213 6.24421 7.28573 6.16261 7.29533 6.12901C7.30493 6.09541 7.41373 6.04421 7.44093 6.02501L7.58653 5.91941H7.40733C7.37373 5.91941 7.25533 5.94021 7.22813 5.91941C7.20093 5.89861 7.18333 5.78181 7.17213 5.74981C7.15453 5.69221 7.13533 5.63621 7.11773 5.57861C7.10013 5.63621 7.08093 5.69221 7.06333 5.74981C7.05213 5.78181 7.03453 5.90021 7.00733 5.91941C6.98013 5.93861 6.86173 5.91941 6.82813 5.91941H6.64893L6.79453 6.02501C6.82173 6.04421 6.92893 6.09701 6.94013 6.12901Z" fill="#F4F4F4"/>
<path fill-rule="evenodd" clip-rule="evenodd" d="M3.89849 5.28C3.90969 5.312 3.85369 5.4176 3.84409 5.4496C3.82489 5.5072 3.80569 5.5632 3.78809 5.6208L3.93209 5.5152C3.95929 5.4944 4.04249 5.4096 4.07769 5.4096C4.11289 5.4096 4.19449 5.4944 4.22169 5.5152L4.36729 5.6208L4.31929 5.44C4.30809 5.408 4.25209 5.3024 4.26329 5.2704C4.27449 5.2384 4.38169 5.184 4.40889 5.1648L4.55449 5.0592H4.36729C4.33369 5.0592 4.21529 5.0784 4.18809 5.0592C4.16089 5.04 4.14329 4.92 4.13209 4.888C4.11449 4.8304 4.09529 4.7744 4.07769 4.7168L4.02169 4.888C4.01209 4.92 3.99449 5.0384 3.96729 5.0592C3.94009 5.08 3.82169 5.0592 3.78809 5.0592H3.60889L3.75449 5.1648C3.78169 5.1856 3.88889 5.2384 3.89849 5.28Z" fill="#F4F4F4"/>
<path fill-rule="evenodd" clip-rule="evenodd" d="M3.89849 6.98888C3.90969 7.02088 3.85369 7.12648 3.84409 7.16008C3.83449 7.19368 3.80569 7.27368 3.78809 7.32968L3.93209 7.22408C3.95929 7.20488 4.04249 7.11848 4.07769 7.11848C4.11289 7.11848 4.19449 7.20488 4.22169 7.22408L4.36729 7.32968C4.34809 7.27368 4.33049 7.21608 4.31129 7.16008C4.29209 7.10408 4.24409 7.02088 4.25529 6.98888C4.26649 6.95688 4.37369 6.90408 4.40089 6.88328L4.54649 6.77928H4.36729C4.33369 6.77928 4.21529 6.80008 4.18809 6.77928C4.16089 6.75848 4.14329 6.64168 4.13209 6.60968C4.11449 6.55208 4.09529 6.49448 4.07769 6.43848C4.05849 6.49448 4.04089 6.55208 4.02169 6.60968C4.01209 6.64168 3.99449 6.76008 3.96729 6.77928C3.94009 6.79848 3.82169 6.77928 3.78809 6.77928H3.60889C3.65689 6.81448 3.70489 6.84968 3.75449 6.88328C3.80409 6.91688 3.88889 6.95688 3.89849 6.98888Z" fill="#F4F4F4"/>
<path fill-rule="evenodd" clip-rule="evenodd" d="M4.91303 7.84776C4.92263 7.87976 4.86823 7.98536 4.85703 8.01736L4.79943 8.18856L4.94503 8.08296C4.97223 8.06216 5.05543 7.97736 5.08903 7.97736C5.12263 7.97736 5.20743 8.06216 5.23463 8.08296L5.37863 8.18856C5.36103 8.13096 5.34183 8.07496 5.32263 8.01736C5.31303 7.98536 5.25703 7.87976 5.26663 7.84776C5.27623 7.81576 5.38503 7.76296 5.41223 7.74216L5.55783 7.63816H5.38023C5.34663 7.63816 5.22023 7.65896 5.20103 7.63816C5.18183 7.61736 5.15623 7.49896 5.14663 7.46696C5.12743 7.41096 5.10983 7.35336 5.09063 7.29736L5.03623 7.46696C5.02503 7.49896 5.00903 7.61736 4.98023 7.63816C4.95143 7.65896 4.83463 7.63816 4.80103 7.63816H4.62183C4.67143 7.67176 4.71943 7.70696 4.76743 7.74216C4.81543 7.77736 4.90183 7.81416 4.91303 7.84776Z" fill="#F4F4F4"/>
<path fill-rule="evenodd" clip-rule="evenodd" d="M3.89849 3.55333C3.90969 3.58693 3.85369 3.69093 3.84409 3.72293C3.82489 3.78053 3.80569 3.83653 3.78809 3.89413L3.93209 3.78853C3.95929 3.76773 4.04249 3.68293 4.07769 3.68293C4.11289 3.68293 4.19449 3.76773 4.22169 3.78853L4.36729 3.89413L4.31929 3.72293C4.30809 3.69093 4.25209 3.58693 4.26329 3.55333C4.27449 3.51973 4.38169 3.46853 4.40889 3.44773L4.55449 3.34373H4.36729C4.33369 3.34373 4.21529 3.36453 4.18809 3.34373C4.16089 3.32293 4.14329 3.20613 4.13209 3.17413C4.11449 3.11653 4.09529 3.06053 4.07769 3.00293L4.02169 3.17413C4.01209 3.20613 3.99449 3.32453 3.96729 3.34373C3.94009 3.36293 3.82169 3.34373 3.78809 3.34373H3.60889C3.65689 3.37893 3.70489 3.41413 3.75449 3.44773C3.80409 3.48133 3.88889 3.51973 3.89849 3.55333Z" fill="#F4F4F4"/>
<path fill-rule="evenodd" clip-rule="evenodd" d="M3.89849 1.8352C3.90969 1.8688 3.85369 1.9744 3.84409 2.0064C3.82489 2.0624 3.80569 2.12 3.78809 2.176L3.93209 2.0704C3.95929 2.0512 4.04249 1.9648 4.07769 1.9648C4.11289 1.9648 4.19449 2.0512 4.22169 2.0704L4.36729 2.176C4.34809 2.12 4.33049 2.0624 4.31129 2.0064C4.30009 1.9744 4.24409 1.8688 4.25529 1.8352C4.26649 1.8016 4.37369 1.7504 4.40089 1.7312L4.54649 1.6256H4.36729C4.33369 1.6256 4.21529 1.6464 4.18809 1.6256C4.16089 1.6048 4.14329 1.4864 4.13209 1.4544C4.11449 1.3968 4.09529 1.3408 4.07769 1.2832L4.02169 1.456C4.01209 1.488 3.99449 1.6064 3.96729 1.6272C3.94009 1.648 3.82169 1.6272 3.78809 1.6272H3.60889L3.75449 1.7328C3.78169 1.7504 3.88889 1.8032 3.89849 1.8352Z" fill="#F4F4F4"/>
<path fill-rule="evenodd" clip-rule="evenodd" d="M2.87939 4.41284C2.89059 4.44484 2.83459 4.55044 2.82339 4.58244C2.80579 4.64004 2.78659 4.69604 2.76739 4.75364L2.91299 4.64804C2.94019 4.62724 3.02339 4.54244 3.05699 4.54244C3.09059 4.54244 3.17539 4.62724 3.20259 4.64804L3.34659 4.75364C3.32899 4.69604 3.30979 4.64004 3.29219 4.58244C3.28099 4.55044 3.22499 4.44484 3.23619 4.41284C3.24739 4.38084 3.35299 4.32804 3.38179 4.30724L3.52579 4.20164H3.35939C3.32579 4.20164 3.20899 4.22244 3.18019 4.20164C3.15139 4.18084 3.13539 4.06244 3.12579 4.03044C3.11619 3.99844 3.08899 3.91684 3.06979 3.86084L3.01539 4.03044C3.00579 4.06244 2.98819 4.18084 2.96099 4.20164C2.93379 4.22244 2.81539 4.20164 2.78179 4.20164H2.59619L2.74019 4.30724C2.76739 4.32804 2.87939 4.37924 2.87939 4.41284Z" fill="#F4F4F4"/>
<path fill-rule="evenodd" clip-rule="evenodd" d="M2.87939 2.69453C2.89059 2.72813 2.83459 2.83373 2.82339 2.86573C2.80579 2.92173 2.78659 2.97933 2.76739 3.03533L2.91299 2.92973C2.94019 2.91053 3.02339 2.82413 3.05699 2.82413C3.09059 2.82413 3.17539 2.91053 3.20259 2.92973L3.35939 3.04013L3.30499 2.87053C3.29379 2.83853 3.23779 2.73293 3.24899 2.69933C3.26019 2.66573 3.36579 2.61453 3.39459 2.59533L3.53859 2.48973H3.35939C3.32579 2.48973 3.20899 2.51053 3.18019 2.48973C3.15139 2.46893 3.13539 2.35213 3.12579 2.32013L3.06979 2.14893C3.05219 2.20653 3.03299 2.26253 3.01539 2.32013C3.00579 2.35213 2.98819 2.47053 2.96099 2.48973C2.93379 2.50893 2.81539 2.48973 2.78179 2.48973H2.59619L2.74019 2.59533C2.76739 2.60973 2.87939 2.66253 2.87939 2.69453Z" fill="#F4F4F4"/>
<path fill-rule="evenodd" clip-rule="evenodd" d="M2.77379 8.18856L2.91939 8.08296C2.94659 8.06216 3.02979 7.97736 3.06339 7.97736C3.09699 7.97736 3.18179 8.06216 3.20899 8.08296L3.35299 8.18856C3.33539 8.13096 3.31619 8.07496 3.29859 8.01736C3.28739 7.98536 3.23139 7.87976 3.24259 7.84776C3.25379 7.81576 3.35939 7.76296 3.38819 7.74216L3.53219 7.63816H3.35939C3.32579 7.63816 3.20899 7.65896 3.18019 7.63816C3.15139 7.61736 3.13539 7.49896 3.12579 7.46696C3.10659 7.41096 3.08899 7.35336 3.06979 7.29736L3.01539 7.46696C3.00579 7.49896 2.98819 7.61736 2.96099 7.63816C2.93379 7.65896 2.81539 7.63816 2.78179 7.63816H2.59619L2.74019 7.74216C2.76739 7.76296 2.87459 7.81416 2.88579 7.84776C2.89699 7.88136 2.84099 7.98536 2.82979 8.01736C2.81219 8.07496 2.79299 8.13096 2.77379 8.18856Z" fill="#F4F4F4"/>
<path fill-rule="evenodd" clip-rule="evenodd" d="M2.16099 3.34373C2.13219 3.32453 2.11619 3.20613 2.10499 3.17413C2.08739 3.11653 2.06819 3.06053 2.05059 3.00293C2.03299 3.06053 2.01379 3.11653 1.99619 3.17413C1.98499 3.20613 1.96899 3.32453 1.94019 3.34373C1.91139 3.36293 1.79459 3.34373 1.76099 3.34373H1.58179L1.72739 3.44773C1.75459 3.46853 1.86179 3.52133 1.87299 3.55333C1.88419 3.58533 1.82659 3.69093 1.81699 3.72293L1.75939 3.89413L1.90499 3.78853C1.93219 3.76773 2.01379 3.68293 2.04899 3.68293C2.08419 3.68293 2.16579 3.76773 2.19459 3.78853L2.33859 3.89413L2.28259 3.72293C2.27299 3.69093 2.21699 3.58693 2.22659 3.55333C2.23619 3.51973 2.34499 3.46853 2.37219 3.44773L2.51779 3.34373H2.34019C2.30659 3.34373 2.18819 3.35973 2.16099 3.34373Z" fill="#F4F4F4"/>
<path fill-rule="evenodd" clip-rule="evenodd" d="M2.16099 6.77928C2.13219 6.76008 2.11619 6.64168 2.10499 6.60968C2.08739 6.55208 2.06819 6.49448 2.05059 6.43848C2.03299 6.49448 2.01379 6.55208 1.99619 6.60968C1.98499 6.64168 1.96899 6.76008 1.94019 6.77928C1.91139 6.79848 1.79459 6.77928 1.76099 6.77928H1.58179L1.72739 6.88328C1.75459 6.90408 1.86179 6.95688 1.87299 6.98888C1.88419 7.02088 1.82659 7.12648 1.81699 7.16008C1.80739 7.19368 1.78019 7.27368 1.76099 7.32968L1.90659 7.22408C1.93379 7.20488 2.01539 7.11848 2.05059 7.11848C2.08579 7.11848 2.16739 7.20488 2.19619 7.22408L2.34019 7.32968C2.32099 7.27368 2.30339 7.21608 2.28419 7.16008C2.26499 7.10408 2.21859 7.02088 2.22819 6.98888C2.23779 6.95688 2.34659 6.90408 2.37379 6.88328L2.51939 6.77928H2.34019C2.30659 6.77928 2.18819 6.80008 2.16099 6.77928Z" fill="#F4F4F4"/>
<path fill-rule="evenodd" clip-rule="evenodd" d="M2.87939 6.12901C2.89059 6.16261 2.83459 6.26821 2.82339 6.30021C2.81219 6.33221 2.78659 6.41381 2.76739 6.46981L2.91299 6.36421C2.94019 6.34501 3.02339 6.25861 3.05699 6.25861C3.09059 6.25861 3.17539 6.34501 3.20259 6.36421L3.34659 6.46981L3.29219 6.30021C3.28099 6.26821 3.22499 6.16261 3.23619 6.12901C3.24739 6.09541 3.35299 6.04421 3.38179 6.02501L3.52579 5.91941H3.35939C3.32579 5.91941 3.20899 5.94021 3.18019 5.91941C3.15139 5.89861 3.13539 5.78181 3.12579 5.74981L3.06979 5.57861C3.05219 5.63621 3.03299 5.69221 3.01539 5.74981C3.00579 5.78181 2.98819 5.90021 2.96099 5.91941C2.93379 5.93861 2.81539 5.91941 2.78179 5.91941H2.59619L2.74019 6.02501C2.76739 6.04421 2.87939 6.09701 2.87939 6.12901Z" fill="#F4F4F4"/>
<path fill-rule="evenodd" clip-rule="evenodd" d="M2.16099 5.06213C2.13219 5.04133 2.11619 4.92293 2.10499 4.89093C2.08739 4.83333 2.06819 4.77733 2.05059 4.71973C2.03299 4.77733 2.01379 4.83333 1.99619 4.89093C1.98499 4.92293 1.96899 5.04133 1.94019 5.06213C1.91139 5.08293 1.79459 5.06213 1.76099 5.06213H1.58179L1.72739 5.16773C1.75459 5.18693 1.86179 5.23973 1.87299 5.27333C1.88419 5.30693 1.82659 5.41093 1.81699 5.44293L1.75939 5.61253C1.80739 5.57733 1.85539 5.54053 1.90499 5.50693C1.95459 5.47333 2.01379 5.40133 2.04899 5.40133C2.08419 5.40133 2.16579 5.48613 2.19459 5.50693L2.33859 5.61253L2.28419 5.43973C2.27459 5.40773 2.21859 5.30213 2.22819 5.27013C2.23779 5.23813 2.34659 5.18373 2.37379 5.16453L2.51939 5.05893H2.34019C2.30659 5.06213 2.18819 5.08133 2.16099 5.06213Z" fill="#F4F4F4"/>
<path fill-rule="evenodd" clip-rule="evenodd" d="M1.14829 7.63816C1.11949 7.61736 1.10349 7.49896 1.09229 7.46696L1.03789 7.29736C1.01869 7.35336 1.00109 7.41096 0.981892 7.46696C0.972292 7.49896 0.954692 7.61736 0.927492 7.63816C0.900292 7.65896 0.781892 7.63816 0.748292 7.63816H0.569092L0.714692 7.74216C0.741892 7.76296 0.849092 7.81416 0.858692 7.84776C0.868292 7.88136 0.813892 7.98536 0.804292 8.01736C0.785092 8.07496 0.765892 8.13096 0.748292 8.18856L0.892292 8.08296C0.919492 8.06216 1.00269 7.97736 1.03789 7.97736C1.07309 7.97736 1.15469 8.06216 1.18189 8.08296L1.32749 8.18856C1.30829 8.13096 1.28909 8.07496 1.27149 8.01736C1.26029 7.98536 1.20429 7.87976 1.21549 7.84776C1.22669 7.81576 1.33389 7.76296 1.36109 7.74216L1.50509 7.63816H1.32589C1.29229 7.63816 1.17549 7.65896 1.14829 7.63816Z" fill="#F4F4F4"/>
<path fill-rule="evenodd" clip-rule="evenodd" d="M5.91943 1.8352C5.93063 1.8688 5.87463 1.9744 5.86343 2.0064L5.80903 2.176L5.95303 2.0704C5.98023 2.0512 6.06343 1.9648 6.09863 1.9648C6.13383 1.9648 6.21543 2.0512 6.24263 2.0704L6.38823 2.176C6.36903 2.12 6.34983 2.0624 6.33223 2.0064C6.32103 1.9744 6.26503 1.8688 6.27623 1.8352C6.28743 1.8016 6.39303 1.7504 6.42183 1.7312L6.56583 1.6256H6.39943C6.36583 1.6256 6.24903 1.6464 6.22023 1.6256C6.19143 1.6048 6.17543 1.4864 6.16583 1.4544C6.14663 1.3968 6.12903 1.3408 6.11143 1.2832L6.04903 1.456C6.03943 1.488 6.02183 1.6064 5.99463 1.6272C5.96743 1.648 5.84903 1.6272 5.81543 1.6272H5.63623L5.78023 1.7328C5.80903 1.7504 5.91943 1.8032 5.91943 1.8352Z" fill="#F4F4F4"/>
<path fill-rule="evenodd" clip-rule="evenodd" d="M6.94013 7.84776C6.94973 7.87976 6.89373 7.98536 6.88413 8.01736L6.82813 8.18856L6.97213 8.08296C6.99933 8.06216 7.08413 7.97736 7.11773 7.97736C7.15133 7.97736 7.23453 8.06216 7.26173 8.08296L7.40733 8.18856L7.35933 8.01736C7.34973 7.98536 7.29373 7.87976 7.30333 7.84776C7.31293 7.81576 7.42173 7.76296 7.44893 7.74216L7.59453 7.63816H7.40733C7.37373 7.63816 7.25533 7.65896 7.22813 7.63816C7.20093 7.61736 7.18333 7.49896 7.17213 7.46696L7.11773 7.29736L7.06333 7.46696C7.05213 7.49896 7.03453 7.61736 7.00733 7.63816C6.98013 7.65896 6.86173 7.63816 6.82813 7.63816H6.64893L6.79453 7.74216C6.82173 7.76296 6.92893 7.81416 6.94013 7.84776Z" fill="#F4F4F4"/>
<path fill-rule="evenodd" clip-rule="evenodd" d="M5.91943 3.55333C5.93063 3.58693 5.87463 3.69093 5.86343 3.72293C5.84583 3.78053 5.82663 3.83653 5.80903 3.89413L5.95303 3.78853C5.98023 3.76773 6.06343 3.68293 6.09863 3.68293C6.13383 3.68293 6.21543 3.76773 6.24263 3.78853L6.38823 3.89413C6.36903 3.83653 6.34983 3.78053 6.33223 3.72293C6.32103 3.69093 6.26503 3.58693 6.27623 3.55333C6.28743 3.51973 6.39303 3.46853 6.42183 3.44773L6.56583 3.34373H6.39943C6.36583 3.34373 6.24903 3.36453 6.22023 3.34373C6.19143 3.32293 6.17543 3.20613 6.16583 3.17413C6.14663 3.11653 6.12903 3.06053 6.11143 3.00293L6.05543 3.17413C6.04583 3.20613 6.02823 3.32453 6.00103 3.34373C5.97383 3.36293 5.85543 3.34373 5.82183 3.34373H5.63623L5.78023 3.44773C5.80903 3.46853 5.91943 3.51973 5.91943 3.55333Z" fill="#F4F4F4"/>
<path fill-rule="evenodd" clip-rule="evenodd" d="M6.94013 4.41284C6.94973 4.44484 6.89373 4.55044 6.88413 4.58244L6.82813 4.75364L6.97213 4.64804C6.99933 4.62724 7.08413 4.54244 7.11773 4.54244C7.15133 4.54244 7.23453 4.62724 7.26173 4.64804L7.40733 4.75364L7.35933 4.58244C7.34973 4.55044 7.29373 4.44484 7.30333 4.41284C7.31293 4.38084 7.42173 4.32804 7.44893 4.30724L7.59453 4.20164H7.40733C7.37373 4.20164 7.25533 4.22244 7.22813 4.20164C7.20093 4.18084 7.18333 4.06244 7.17213 4.03044L7.11773 3.86084L7.06333 4.03044C7.05213 4.06244 7.03453 4.18084 7.00733 4.20164C6.98013 4.22244 6.86173 4.20164 6.82813 4.20164H6.64893L6.79453 4.30724C6.82173 4.32804 6.92893 4.37924 6.94013 4.41284Z" fill="#F4F4F4"/>
<path fill-rule="evenodd" clip-rule="evenodd" d="M6.94013 2.69444C6.94973 2.72804 6.89373 2.83364 6.88413 2.86564C6.86493 2.92164 6.84733 2.97924 6.82813 3.03524L6.97213 2.92964C6.99933 2.91044 7.08413 2.82404 7.11773 2.82404C7.15133 2.82404 7.23453 2.91044 7.26173 2.92964L7.40733 3.03524C7.38813 2.97924 7.37053 2.92164 7.35133 2.86564C7.34173 2.83364 7.28573 2.72804 7.29533 2.69444C7.30493 2.66084 7.41373 2.60964 7.44093 2.59044L7.58653 2.48484H7.40733C7.37373 2.48484 7.25533 2.50564 7.22813 2.48484C7.20093 2.46404 7.18333 2.34724 7.17213 2.31524C7.15453 2.25764 7.13533 2.20164 7.11773 2.14404C7.10013 2.20164 7.08093 2.25764 7.06333 2.31524C7.05213 2.34724 7.03453 2.46564 7.00733 2.48484C6.98013 2.50404 6.86173 2.48484 6.82813 2.48484H6.64893L6.79453 2.59044C6.82173 2.60964 6.92893 2.66244 6.94013 2.69444Z" fill="#F4F4F4"/>
<path fill-rule="evenodd" clip-rule="evenodd" d="M5.91943 5.28016C5.93063 5.31216 5.87463 5.41776 5.86343 5.44976C5.84583 5.50736 5.82663 5.56336 5.80903 5.62096L5.95303 5.51536C5.98023 5.49456 6.06343 5.40976 6.09863 5.40976C6.13383 5.40976 6.21543 5.49456 6.24263 5.51536L6.38823 5.62096C6.36903 5.56336 6.34983 5.50736 6.33223 5.44976C6.32103 5.41776 6.26503 5.31216 6.27623 5.28016C6.28743 5.24816 6.39303 5.19376 6.42183 5.17456L6.56583 5.06896H6.39943C6.36583 5.06896 6.24903 5.08816 6.22023 5.06896C6.19143 5.04976 6.17543 4.92976 6.16583 4.89776C6.14663 4.84016 6.12903 4.78416 6.11143 4.72656L6.05543 4.89776C6.04583 4.92976 6.02823 5.04816 6.00103 5.06896C5.97383 5.08976 5.85543 5.06896 5.82183 5.06896H5.63623L5.78023 5.17456C5.80903 5.18576 5.91943 5.23856 5.91943 5.28016Z" fill="#F4F4F4"/>
<path fill-rule="evenodd" clip-rule="evenodd" d="M4.91303 2.69444C4.92263 2.72804 4.86823 2.83364 4.85703 2.86564C4.83783 2.92164 4.82023 2.97924 4.80103 3.03524L4.94663 2.92964C4.97383 2.91044 5.05703 2.82404 5.09063 2.82404C5.12423 2.82404 5.20903 2.91044 5.23623 2.92964L5.38023 3.03524C5.36263 2.97924 5.34343 2.92164 5.32423 2.86564C5.31463 2.83364 5.25863 2.72804 5.26823 2.69444C5.27783 2.66084 5.38663 2.60964 5.41383 2.59044L5.55943 2.48484H5.38023C5.34663 2.48484 5.22023 2.50564 5.20103 2.48484C5.18183 2.46404 5.15623 2.34724 5.14663 2.31524L5.09063 2.14404C5.07303 2.20164 5.05383 2.25764 5.03623 2.31524C5.02503 2.34724 5.00903 2.46564 4.98023 2.48484C4.95143 2.50404 4.83463 2.48484 4.80103 2.48484H4.62183L4.76743 2.59044C4.79943 2.60964 4.90183 2.66244 4.91303 2.69444Z" fill="#F4F4F4"/>
<path fill-rule="evenodd" clip-rule="evenodd" d="M5.91943 6.98888C5.93063 7.02088 5.87463 7.12648 5.86343 7.16008L5.80903 7.32968L5.95303 7.22408C5.98023 7.20488 6.06343 7.11848 6.09863 7.11848C6.13383 7.11848 6.21543 7.20488 6.24263 7.22408L6.38823 7.32968C6.36903 7.27368 6.34983 7.21608 6.33223 7.16008C6.31463 7.10408 6.26503 7.02088 6.27623 6.98888C6.28743 6.95688 6.39303 6.90408 6.42183 6.88328L6.56583 6.77928H6.39943C6.36583 6.77928 6.24903 6.80008 6.22023 6.77928C6.19143 6.75848 6.17543 6.64168 6.16583 6.60968C6.14663 6.55208 6.12903 6.49448 6.11143 6.43848C6.09223 6.49448 6.07463 6.55208 6.05543 6.60968C6.04583 6.64168 6.02823 6.76008 6.00103 6.77928C5.97383 6.79848 5.85543 6.77928 5.82183 6.77928H5.63623L5.78023 6.88328C5.80903 6.90408 5.91943 6.95688 5.91943 6.98888Z" fill="#F4F4F4"/>
<path fill-rule="evenodd" clip-rule="evenodd" d="M4.91303 6.12901C4.92263 6.16261 4.86823 6.26821 4.85703 6.30021C4.84583 6.33221 4.82023 6.41381 4.80103 6.46981L4.94663 6.36421C4.97383 6.34501 5.05703 6.25861 5.09063 6.25861C5.12423 6.25861 5.20903 6.34501 5.23623 6.36421L5.38023 6.46981C5.36263 6.41381 5.34343 6.35621 5.32423 6.30021C5.30503 6.24421 5.25863 6.16261 5.26823 6.12901C5.27783 6.09541 5.38663 6.04421 5.41383 6.02501L5.55943 5.91941H5.38023C5.34663 5.91941 5.22023 5.94021 5.20103 5.91941C5.18183 5.89861 5.15623 5.78181 5.14663 5.74981L5.09063 5.57861C5.07303 5.63621 5.05383 5.69221 5.03623 5.74981C5.02503 5.78181 5.00903 5.90021 4.98023 5.91941C4.95143 5.93861 4.83463 5.91941 4.80103 5.91941H4.62183L4.76743 6.02501C4.79943 6.04421 4.90183 6.09701 4.91303 6.12901Z" fill="#F4F4F4"/>
<path fill-rule="evenodd" clip-rule="evenodd" d="M4.91303 4.41284C4.92263 4.44484 4.86823 4.55044 4.85703 4.58244L4.79943 4.75364L4.94503 4.64804C4.97223 4.62724 5.05543 4.54244 5.08903 4.54244C5.12263 4.54244 5.20743 4.62724 5.23463 4.64804L5.37863 4.75364C5.36103 4.69604 5.34183 4.64004 5.32263 4.58244C5.31303 4.55044 5.25703 4.44484 5.26663 4.41284C5.27623 4.38084 5.38503 4.32804 5.41223 4.30724L5.55783 4.20164H5.38023C5.34663 4.20164 5.22023 4.22244 5.20103 4.20164C5.18183 4.18084 5.15623 4.06244 5.14663 4.03044C5.13703 3.99844 5.10983 3.91684 5.09063 3.86084L5.03623 4.03044C5.02503 4.06244 5.00903 4.18084 4.98023 4.20164C4.95143 4.22244 4.83463 4.20164 4.80103 4.20164H4.62183L4.76743 4.30724C4.79943 4.32804 4.90183 4.37924 4.91303 4.41284Z" fill="#F4F4F4"/>
<path fill-rule="evenodd" clip-rule="evenodd" d="M1.14829 5.91941C1.11949 5.90021 1.10349 5.78181 1.09229 5.74981C1.07469 5.69221 1.05549 5.63621 1.03789 5.57861L0.981892 5.74981C0.972292 5.78181 0.954692 5.90021 0.927492 5.91941C0.900292 5.93861 0.781892 5.91941 0.748292 5.91941H0.569092L0.714692 6.02501C0.741892 6.04421 0.849092 6.09701 0.858692 6.12901C0.868292 6.16101 0.813892 6.26821 0.804292 6.30021C0.794692 6.33221 0.765892 6.41381 0.748292 6.46981L0.892292 6.36421C0.919492 6.34501 1.00269 6.25861 1.03789 6.25861C1.07309 6.25861 1.15469 6.34501 1.18189 6.36421L1.32749 6.46981C1.30829 6.41381 1.28909 6.35621 1.27149 6.30021C1.25389 6.24421 1.20429 6.16261 1.21549 6.12901C1.22669 6.09541 1.33389 6.04421 1.36109 6.02501L1.50509 5.91941H1.32589C1.29229 5.91941 1.17549 5.94021 1.14829 5.91941Z" fill="#F4F4F4"/>
<path fill-rule="evenodd" clip-rule="evenodd" d="M6.94013 0.977294C6.94973 1.00929 6.89373 1.11489 6.88413 1.14689L6.82813 1.31809L6.97213 1.21249C6.99933 1.19169 7.08413 1.10689 7.11773 1.10689C7.15133 1.10689 7.23453 1.19169 7.26173 1.21249L7.40733 1.31809L7.35933 1.14689C7.34973 1.11489 7.29373 1.00929 7.30333 0.977294C7.31293 0.945294 7.42173 0.890894 7.44893 0.871694L7.59453 0.766094H7.40733C7.37373 0.766094 7.25533 0.785294 7.22813 0.766094C7.20093 0.746894 7.18333 0.626893 7.17213 0.594893L7.11773 0.425293L7.06333 0.594893C7.05213 0.626893 7.03453 0.745294 7.00733 0.766094C6.98013 0.786894 6.86173 0.766094 6.82813 0.766094H6.64893L6.79453 0.871694C6.82173 0.890894 6.92893 0.943694 6.94013 0.977294Z" fill="#F4F4F4"/>
</g>
</svg>
