<svg width="16" height="16" viewBox="0 0 16 16" fill="none" xmlns="http://www.w3.org/2000/svg">
<path d="M3.19909 13.4154C3.27552 13.464 3.36254 13.4994 3.45514 13.5195C3.54775 13.5396 3.64414 13.5441 3.7388 13.5327C3.83345 13.5212 3.92451 13.4941 4.00677 13.4529C4.08903 13.4116 4.16087 13.3571 4.21818 13.2923C4.65851 12.7955 5.22949 12.3923 5.8859 12.1146C6.54231 11.8369 7.26611 11.6923 8 11.6923C8.73389 11.6923 9.45769 11.8369 10.1141 12.1146C10.7705 12.3923 11.3415 12.7955 11.7818 13.2923C11.8391 13.357 11.9109 13.4114 11.9931 13.4526C12.0753 13.4938 12.1662 13.5208 12.2608 13.5323C12.3553 13.5437 12.4516 13.5393 12.5441 13.5192C12.6367 13.4992 12.7236 13.4639 12.8 13.4154C12.8764 13.3669 12.9408 13.3061 12.9894 13.2366C13.0381 13.1671 13.0701 13.0901 13.0836 13.0101C13.0971 12.9301 13.0919 12.8486 13.0682 12.7704C13.0445 12.6921 13.0028 12.6185 12.9455 12.5538C12.3015 11.8233 11.4427 11.2481 10.4545 10.8854C10.9961 10.467 11.3755 9.91992 11.543 9.31584C11.7105 8.71177 11.6582 8.07897 11.393 7.50048C11.1279 6.92199 10.6622 6.42484 10.0572 6.07429C9.45217 5.72373 8.73601 5.53614 8.00273 5.53614C7.26944 5.53614 6.55329 5.72373 5.94825 6.07429C5.34321 6.42484 4.87756 6.92199 4.61241 7.50048C4.34726 8.07897 4.295 8.71177 4.46249 9.31584C4.62997 9.91992 5.00937 10.467 5.55091 10.8854C4.56076 11.2474 3.70004 11.8226 3.05455 12.5538C2.93872 12.6843 2.88888 12.8484 2.91598 13.0099C2.94309 13.1715 3.04492 13.3173 3.19909 13.4154ZM8 6.76923C8.43152 6.76923 8.85335 6.87751 9.21215 7.08036C9.57095 7.28322 9.8506 7.57155 10.0157 7.90889C10.1809 8.24623 10.2241 8.61743 10.1399 8.97555C10.0557 9.33367 9.84791 9.66262 9.54278 9.92081C9.23765 10.179 8.84888 10.3548 8.42565 10.4261C8.00242 10.4973 7.56373 10.4607 7.16505 10.321C6.76638 10.1813 6.42563 9.94465 6.18588 9.64105C5.94614 9.33745 5.81818 8.98052 5.81818 8.61538C5.81818 8.12575 6.04805 7.65618 6.45722 7.30996C6.86639 6.96374 7.42135 6.76923 8 6.76923ZM14.5455 0H1.45455C1.06878 0 0.698807 0.12967 0.426026 0.360484C0.153246 0.591298 0 0.904349 0 1.23077V14.7692C0 15.0957 0.153246 15.4087 0.426026 15.6395C0.698807 15.8703 1.06878 16 1.45455 16H14.5455C14.9312 16 15.3012 15.8703 15.574 15.6395C15.8468 15.4087 16 15.0957 16 14.7692V1.23077C16 0.904349 15.8468 0.591298 15.574 0.360484C15.3012 0.12967 14.9312 0 14.5455 0ZM14.5455 14.7692H1.45455V1.23077H14.5455V14.7692ZM4.36364 3.07692C4.36364 2.91371 4.44026 2.75719 4.57665 2.64178C4.71304 2.52637 4.89802 2.46154 5.09091 2.46154H10.9091C11.102 2.46154 11.287 2.52637 11.4234 2.64178C11.5597 2.75719 11.6364 2.91371 11.6364 3.07692C11.6364 3.24013 11.5597 3.39666 11.4234 3.51207C11.287 3.62747 11.102 3.69231 10.9091 3.69231H5.09091C4.89802 3.69231 4.71304 3.62747 4.57665 3.51207C4.44026 3.39666 4.36364 3.24013 4.36364 3.07692Z" fill="white"/>
</svg>
