<svg width="16" height="16" viewBox="0 0 16 16" fill="none" xmlns="http://www.w3.org/2000/svg">
<path fill-rule="evenodd" clip-rule="evenodd" d="M2.92066 4.41379C3.14519 4.41379 3.36051 4.29754 3.51927 4.0906C3.67803 3.88366 3.76722 3.603 3.76722 3.31034C3.76722 3.01769 3.67803 2.73703 3.51927 2.53009C3.36051 2.32315 3.14519 2.2069 2.92066 2.2069C2.69614 2.2069 2.48082 2.32315 2.32205 2.53009C2.16329 2.73703 2.0741 3.01769 2.0741 3.31034C2.0741 3.603 2.16329 3.88366 2.32205 4.0906C2.48082 4.29754 2.69614 4.41379 2.92066 4.41379ZM2.92066 6.62069C3.59423 6.62069 4.24021 6.27192 4.71649 5.65111C5.19277 5.0303 5.46035 4.1883 5.46035 3.31034C5.46035 2.43239 5.19277 1.59039 4.71649 0.969578C4.24021 0.348768 3.59423 0 2.92066 0C2.2471 0 1.60112 0.348768 1.12484 0.969578C0.648554 1.59039 0.380981 2.43239 0.380981 3.31034C0.380981 4.1883 0.648554 5.0303 1.12484 5.65111C1.60112 6.27192 2.2471 6.62069 2.92066 6.62069Z" fill="white"/>
<path fill-rule="evenodd" clip-rule="evenodd" d="M2.96296 7.44828C2.62618 7.44828 2.30319 7.62266 2.06505 7.93306C1.82691 8.24347 1.69312 8.66447 1.69312 9.10345V10.7586C1.69312 11.0513 1.60393 11.3319 1.44517 11.5389C1.28641 11.7458 1.07108 11.8621 0.846561 11.8621C0.622039 11.8621 0.406713 11.7458 0.247952 11.5389C0.089191 11.3319 0 11.0513 0 10.7586V9.10345C0 8.07916 0.312168 7.09683 0.867832 6.37255C1.42349 5.64827 2.17714 5.24138 2.96296 5.24138C3.74879 5.24138 4.50243 5.64827 5.05809 6.37255C5.61376 7.09683 5.92593 8.07916 5.92593 9.10345V10.7586C5.92593 11.0513 5.83673 11.3319 5.67797 11.5389C5.51921 11.7458 5.30389 11.8621 5.07936 11.8621C4.85484 11.8621 4.63952 11.7458 4.48076 11.5389C4.32199 11.3319 4.2328 11.0513 4.2328 10.7586V9.10345C4.2328 8.66447 4.09902 8.24347 3.86088 7.93306C3.62273 7.62266 3.29975 7.44828 2.96296 7.44828ZM13.0794 4.41379C12.8548 4.41379 12.6395 4.29754 12.4808 4.0906C12.322 3.88366 12.2328 3.603 12.2328 3.31034C12.2328 3.01769 12.322 2.73703 12.4808 2.53009C12.6395 2.32315 12.8548 2.2069 13.0794 2.2069C13.3039 2.2069 13.5192 2.32315 13.678 2.53009C13.8367 2.73703 13.9259 3.01769 13.9259 3.31034C13.9259 3.603 13.8367 3.88366 13.678 4.0906C13.5192 4.29754 13.3039 4.41379 13.0794 4.41379ZM13.0794 6.62069C12.4058 6.62069 11.7598 6.27192 11.2835 5.65111C10.8073 5.0303 10.5397 4.1883 10.5397 3.31034C10.5397 2.43239 10.8073 1.59039 11.2835 0.969578C11.7598 0.348768 12.4058 0 13.0794 0C13.7529 0 14.3989 0.348768 14.8752 0.969578C15.3515 1.59039 15.619 2.43239 15.619 3.31034C15.619 4.1883 15.3515 5.0303 14.8752 5.65111C14.3989 6.27192 13.7529 6.62069 13.0794 6.62069Z" fill="white"/>
<path fill-rule="evenodd" clip-rule="evenodd" d="M13.0371 7.44811C13.3738 7.44811 13.6968 7.62249 13.935 7.9329C14.1731 8.2433 14.3069 8.6643 14.3069 9.10328V10.7585C14.3069 11.0511 14.3961 11.3318 14.5549 11.5387C14.7136 11.7456 14.9289 11.8619 15.1535 11.8619C15.378 11.8619 15.5933 11.7456 15.7521 11.5387C15.9108 11.3318 16 11.0511 16 10.7585V9.10328C16 8.079 15.6879 7.09666 15.1322 6.37238C14.5765 5.64811 13.8229 5.24121 13.0371 5.24121C12.2512 5.24121 11.4976 5.64811 10.9419 6.37238C10.3863 7.09666 10.0741 8.079 10.0741 9.10328V10.7585C10.0741 11.0511 10.1633 11.3318 10.322 11.5387C10.4808 11.7456 10.6961 11.8619 10.9207 11.8619C11.1452 11.8619 11.3605 11.7456 11.5193 11.5387C11.678 11.3318 11.7672 11.0511 11.7672 10.7585V9.10328C11.7672 8.6643 11.901 8.2433 12.1391 7.9329C12.3773 7.62249 12.7003 7.44811 13.0371 7.44811Z" fill="white"/>
<path fill-rule="evenodd" clip-rule="evenodd" d="M8.04231 10.4828C7.48101 10.4828 6.94269 10.7734 6.54579 11.2908C6.14889 11.8081 5.92591 12.5098 5.92591 13.2414V14.8966C5.92591 15.1892 5.83672 15.4699 5.67796 15.6768C5.5192 15.8838 5.30387 16 5.07935 16C4.85483 16 4.6395 15.8838 4.48074 15.6768C4.32198 15.4699 4.23279 15.1892 4.23279 14.8966V13.2414C4.23279 11.9245 4.63415 10.6615 5.34857 9.73025C6.063 8.79903 7.03196 8.27588 8.04231 8.27588C9.05266 8.27588 10.0216 8.79903 10.7361 9.73025C11.4505 10.6615 11.8518 11.9245 11.8518 13.2414V14.8966C11.8518 15.1892 11.7626 15.4699 11.6039 15.6768C11.4451 15.8838 11.2298 16 11.0053 16C10.7808 16 10.5654 15.8838 10.4067 15.6768C10.2479 15.4699 10.1587 15.1892 10.1587 14.8966V13.2414C10.1587 12.5098 9.93574 11.8081 9.53883 11.2908C9.14193 10.7734 8.60362 10.4828 8.04231 10.4828Z" fill="white"/>
<path fill-rule="evenodd" clip-rule="evenodd" d="M8.00001 7.44846C8.22453 7.44846 8.43986 7.33221 8.59862 7.12527C8.75738 6.91833 8.84657 6.63767 8.84657 6.34501C8.84657 6.05236 8.75738 5.77169 8.59862 5.56476C8.43986 5.35782 8.22453 5.24156 8.00001 5.24156C7.77549 5.24156 7.56016 5.35782 7.4014 5.56476C7.24264 5.77169 7.15345 6.05236 7.15345 6.34501C7.15345 6.63767 7.24264 6.91833 7.4014 7.12527C7.56016 7.33221 7.77549 7.44846 8.00001 7.44846ZM8.00001 9.65536C8.67358 9.65536 9.31955 9.30659 9.79584 8.68578C10.2721 8.06497 10.5397 7.22297 10.5397 6.34501C10.5397 5.46705 10.2721 4.62506 9.79584 4.00425C9.31955 3.38344 8.67358 3.03467 8.00001 3.03467C7.32644 3.03467 6.68047 3.38344 6.20418 4.00425C5.7279 4.62506 5.46033 5.46705 5.46033 6.34501C5.46033 7.22297 5.7279 8.06497 6.20418 8.68578C6.68047 9.30659 7.32644 9.65536 8.00001 9.65536Z" fill="white"/>
</svg>
